<?xml version="1.0" encoding="UTF-8"?>
<svg width="100px" height="76px" viewBox="0 0 100 76" version="1.1" xmlns="http://www.w3.org/2000/svg" xmlns:xlink="http://www.w3.org/1999/xlink">
    <!-- Generator: Sketch 55.2 (78181) - https://sketchapp.com -->
    <title>AC</title>
    <desc>Created with Sketch.</desc>
    <g id="AC" stroke="none" stroke-width="1" fill="none" fill-rule="evenodd">
        <g fill="#000000">
            <path d="M91.348,0.598 L8.653,0.598 C4.1022,0.598 0.3913002,4.3089 0.3913002,8.8792 L0.3913002,38.9772 C0.3913002,43.528 4.1022,47.2389 8.653,47.2389 L91.329,47.2389 C95.8798,47.2389 99.5907767,43.528 99.5907767,38.9772 L99.5907767,8.8792 C99.61023,4.3089 95.8993,0.598 91.3485,0.598 L91.348,0.598 Z M94.1019,38.977 C94.1019,40.5004 92.8714,41.7309 91.348,41.7309 L8.653,41.7309 C7.1296,41.7309 5.8991,40.5004 5.8991,38.977 L5.8991,8.879 C5.8991,7.3556 7.1296,6.1251 8.653,6.1251 L91.329,6.1251 C92.8524,6.1251 94.0829,7.3556 94.0829,8.879 L94.0829,38.977 L94.1019,38.977 Z" id="Fill-1"></path>
            <path d="M84.121,30.715 L15.87901,30.715 C14.35561,30.715 13.12511,31.9455 13.12511,33.4689 C13.12511,34.9923 14.35561,36.2228 15.87901,36.2228 L84.10201,36.2228 C85.6254,36.2228 86.85591,34.9923 86.85591,33.4689 C86.85591,31.9455 85.62541,30.715 84.12151,30.715 L84.121,30.715 Z" id="Fill-2"></path>
            <path d="M31.953,54.934 C30.6053,54.25041 28.9452,54.77775 28.2421,56.1449 L20.4491,71.4179 C19.76551,72.7656 20.25379,74.5429 21.66,75.1288 C23.2616,75.79286 24.8827,74.87489 25.3709,73.9179 L33.1639,58.6449 C33.84749,57.2972 33.30062,55.6371 31.953,54.934 Z" id="Fill-3"></path>
            <path d="M71.758,56.145 C71.07441,54.7778 69.4142,54.2505 68.0471,54.9341 C66.6994,55.61769 66.1526,57.2779 66.8362,58.645 L74.6292,73.918 C75.11748,74.87503 76.7386,75.793 78.3401,75.1289 C79.7463,74.54296 80.2346,72.7851 79.551,71.418 L71.758,56.145 Z" id="Fill-4"></path>
            <path d="M50,54.602 C48.4766,54.602 47.2461,55.8325 47.2461,57.3559 L47.2461,72.6289 C47.2461,74.1523 48.4766,75.3828 50,75.3828 C51.5234,75.3828 52.7539,74.1523 52.7539,72.6289 L52.7539,57.3559 C52.7539,55.8325 51.5234,54.602 50,54.602 Z" id="Fill-5"></path>
        </g>
    </g>
</svg>