<?xml version="1.0" encoding="UTF-8"?>
<svg width="28px" height="24px" viewBox="0 0 28 24" version="1.1" xmlns="http://www.w3.org/2000/svg" xmlns:xlink="http://www.w3.org/1999/xlink">
    <!-- Generator: Sketch 55.2 (78181) - https://sketchapp.com -->
    <title>Barbeque Grill</title>
    <desc>Created with Sketch.</desc>
    <g id="Listing-Page" stroke="none" stroke-width="1" fill="none" fill-rule="evenodd">
        <g id="7.2" transform="translate(-394.000000, -356.000000)" fill="#000000">
            <g id="Barbeque-Grill" transform="translate(394.000000, 356.000000)">
                <path d="M8.01217021,4.96860759 C7.94468426,4.90690025 7.35244255,4.34557975 7.37454468,3.58727089 C7.38617957,3.13749873 7.60609277,2.73757975 8.02846383,2.39580759 C8.25652085,2.21186734 8.37521702,2.01132152 8.39383404,1.77991899 C8.42757702,1.3539038 8.10992298,0.892253165 7.98309787,0.749863291 L8.54625532,0.226511392 C8.57301617,0.257365063 9.21879149,0.986005063 9.15129362,1.83925063 C9.11522426,2.29139241 8.89647277,2.68298734 8.49969787,3.00458734 C8.26000298,3.19920608 8.14016596,3.39621266 8.13432766,3.60625823 C8.12269277,3.94566076 8.40776553,4.28743291 8.5194766,4.39066329 L8.01217021,4.96860759 Z" id="Fill-1"></path>
                <path d="M11.6658723,4.96860759 C11.5972217,4.90690025 11.0037915,4.34557975 11.0270851,3.58608608 C11.03872,3.13749873 11.2586332,2.73639494 11.6810043,2.39580759 C11.9090613,2.21186734 12.0277574,2.0089519 12.0463745,1.77751899 C12.0870996,1.26604557 11.6414468,0.755756962 11.6379617,0.751017722 L12.1999574,0.226481013 C12.227883,0.257334684 12.8724936,0.985974684 12.8049957,1.83803544 C12.7689264,2.29017722 12.5501749,2.68295696 12.1534,3.00337215 C11.9125434,3.19799089 11.7915447,3.39618228 11.7857064,3.60859747 C11.7752362,4.00970127 12.1673404,4.38470886 12.172017,4.38826329 L11.6658723,4.96860759 Z" id="Fill-2"></path>
                <path d="M15.3171915,4.96860759 C15.2497055,4.90690025 14.6574638,4.34557975 14.679566,3.58727089 C14.6912009,3.13749873 14.911114,2.73757975 15.3334851,2.39580759 C15.5603804,2.21186734 15.6802383,2.01132152 15.6976936,1.77991899 C15.733763,1.3539038 15.4149472,0.892253165 15.2892809,0.749863291 L15.8524383,0.226511392 C15.8792021,0.257365063 16.5249745,0.986005063 16.4574766,1.83925063 C16.4214072,2.29139241 16.2026557,2.68298734 15.8058809,3.00458734 C15.566186,3.19920608 15.4463489,3.39621266 15.4393489,3.60625823 C15.427714,3.94566076 15.7127868,4.28743291 15.8244979,4.39066329 L15.3171915,4.96860759 Z" id="Fill-3"></path>
                <path d="M18.9685106,4.96860759 C18.9010247,4.90690025 18.308783,4.34557975 18.3308851,3.58727089 C18.34252,3.13749873 18.5624332,2.73757975 18.9848043,2.39580759 C19.2128613,2.21186734 19.3315574,2.01132152 19.3501745,1.77991899 C19.3839174,1.3539038 19.0662634,0.892253165 18.9394383,0.749863291 L19.5025957,0.226511392 C19.5293566,0.257365063 20.1751319,0.986005063 20.107634,1.83925063 C20.0715647,2.29139241 19.8528132,2.68298734 19.4560383,3.00458734 C19.2163434,3.19920608 19.0965064,3.39621266 19.0906681,3.60625823 C19.0790332,3.94566076 19.364106,4.28743291 19.475817,4.39066329 L18.9685106,4.96860759 Z" id="Fill-4"></path>
                <path d="M13.9988085,14.1812658 C8.77680851,14.1812658 4.68553191,12.2588051 4.68553191,9.80475949 C4.68553191,7.35065316 8.77531915,5.42825316 13.9988085,5.42825316 C19.2222979,5.42825316 23.3132766,7.35071392 23.3132766,9.80475949 C23.3132766,12.2588658 19.2234894,14.1812658 13.9988085,14.1812658 Z M13.9988085,6.2041519 C9.36421277,6.2041519 5.44778723,7.8524962 5.44778723,9.80475949 C5.44778723,11.7569013 9.36421277,13.4053671 13.9988085,13.4053671 C18.6354894,13.4053671 22.5522128,11.7570228 22.5522128,9.80475949 C22.5522128,7.85261772 18.6357872,6.2041519 13.9988085,6.2041519 Z" id="Fill-5"></path>
                <path d="M13.9988085,18.6443544 C9.08391489,18.6443544 5.00574468,15.4332152 4.71234043,11.3319494 L4.68208851,10.9154127 L5.89219489,10.9154127 L6.0050617,11.0400182 C7.29312128,12.4533752 10.5044234,13.4039271 13.9975723,13.4039271 C17.4916149,13.4039271 20.7032745,12.4533752 21.9912745,11.0400182 L22.1041413,10.9154127 L23.3142477,10.9154127 L23.2839957,11.3319494 C22.9931055,15.4332152 18.9148043,18.6443544 13.9987191,18.6443544 L13.9988085,18.6443544 Z M5.51748936,11.692557 C6.02014894,15.1886582 9.65285106,17.8681519 13.9988085,17.8681519 C18.3471489,17.8681519 21.9773191,15.1873823 22.4822128,11.692557 L22.4333438,11.692557 C20.9288502,13.2091747 17.6510034,14.1810835 13.9987906,14.1810835 C10.348663,14.1810835 7.06968426,13.2091747 5.56632255,11.692557 L5.51748936,11.692557 Z" id="Fill-6"></path>
                <path d="M2.11310638,10.9342785 C1.09730213,10.9342785 0.0698808511,10.546238 0.0698808511,9.80451646 C0.0698808511,8.31994937 4.15639149,8.31994937 4.15639149,9.80451646 C4.15522681,10.5462076 3.12897021,10.9342785 2.11316596,10.9342785 L2.11310638,10.9342785 Z M2.11310638,9.44971139 C1.31489787,9.44971139 0.870412766,9.71434633 0.828531915,9.81997975 C0.871583404,9.89355646 1.31489787,10.1570127 2.11310638,10.1570127 C2.91015319,10.1570127 3.3546383,9.89237772 3.39651915,9.7867443 C3.35463234,9.71554025 2.91015319,9.44971139 2.11310638,9.44971139 Z" id="Fill-7"></path>
                <polygon id="Fill-8" points="3.7746383 10.1926177 5.06734468 10.1926177 5.06734468 9.41650633 3.7746383 9.41650633"></polygon>
                <path d="M25.8868936,10.9342785 C24.8710894,10.9342785 23.8436681,10.546238 23.8436681,9.80451646 C23.8436681,8.31994937 27.9301787,8.31994937 27.9301787,9.80451646 C27.9301787,10.5462076 26.9027574,10.9342785 25.8869532,10.9342785 L25.8868936,10.9342785 Z M25.8868936,9.44971139 C25.0875234,9.44971139 24.6453617,9.71434633 24.6023191,9.81997975 C24.6453706,9.89236861 25.0898468,10.1570127 25.8868936,10.1570127 C26.6839404,10.1570127 27.1284255,9.89237772 27.1714681,9.78795949 C27.130743,9.71557063 26.6862638,9.44974177 25.8868936,9.44974177 L25.8868936,9.44971139 Z" id="Fill-9"></path>
                <polygon id="Fill-10" points="22.9325957 10.1926177 24.2253021 10.1926177 24.2253021 9.41650633 22.9325957 9.41650633"></polygon>
                <polygon id="Fill-11" points="5.4513617 10.8558987 4.99290638 10.2352405 10.8526511 5.72567089 11.3111064 6.34632911"></polygon>
                <polygon id="Fill-12" points="15.0205106 5.51453165 15.4929064 6.12331139 7.39911915 12.6680203 6.9267234 12.0592405"></polygon>
                <polygon id="Fill-13" points="18.3495319 6.096 18.8475447 6.68223797 10.8142255 13.7753013 10.3162128 13.1890633"></polygon>
                <polygon id="Fill-14" points="20.972 7.18086076 21.4863064 7.75403544 14.7213277 14.0708962 14.2070213 13.4977215"></polygon>
                <polygon id="Fill-15" points="7.84595745 23.986937 5.71897021 23.986937 5.71897021 23.2108253 7.32351915 23.2108253 10.0043702 16.0691544 10.7141404 16.3468435"></polygon>
                <polygon id="Fill-16" points="22.278766 23.986937 20.1517787 23.986937 17.2835957 16.347038 17.9945277 16.0693489 20.6753787 23.2110197 22.278766 23.2110197"></polygon>
                <polygon id="Fill-17" points="13.6184255 21.9092658 14.3794 21.9092658 14.3794 18.2576203 13.6184255 18.2576203"></polygon>
                <path d="M13.9988085,15.6218734 C7.64697872,15.6218734 5.23123404,13.2140354 5.13025532,13.1108051 L5.67131064,12.5625418 L5.40019915,12.8366704 L5.66898128,12.5625418 C5.69108936,12.5850896 7.99727064,14.845762 13.9977898,14.845762 C19.9972366,14.845762 22.3057472,12.5862684 22.3277898,12.5625418 L22.8676834,13.1108051 C22.7687809,13.2140476 20.3532238,15.6218734 13.9991302,15.6218734 L13.9988085,15.6218734 Z" id="Fill-18"></path>
                <path d="M20.498383,18.596962 L20.1318511,17.918157 C21.7841191,16.988962 22.8766851,15.302643 23.501383,14.0508152 L24.1797277,14.4020658 C23.5048681,15.7513519 22.3203489,17.5740152 20.4983234,18.5972051 L20.498383,18.596962 Z" id="Fill-19"></path>
                <path d="M24.7165532,13.1951392 L24.0079447,12.9067686 C24.2243668,12.3549509 24.324434,11.9882673 24.3255957,11.9846825 L25.0586298,12.1923554 C25.0551387,12.2089701 24.9480923,12.5993833 24.7165532,13.1951392 L24.7165532,13.1951392 Z" id="Fill-20"></path>
            </g>
        </g>
    </g>
</svg>