<?xml version="1.0" encoding="UTF-8"?>
<svg width="18px" height="22px" viewBox="0 0 18 22" version="1.1" xmlns="http://www.w3.org/2000/svg" xmlns:xlink="http://www.w3.org/1999/xlink">
    <!-- Generator: Sketch 55.2 (78181) - https://sketchapp.com -->
    <title>Coffee Machine</title>
    <desc>Created with Sketch.</desc>
    <g id="Listing-Page" stroke="none" stroke-width="1" fill="none" fill-rule="evenodd">
        <g id="7.2" transform="translate(-396.000000, -929.000000)" fill="#000000">
            <g id="Coffee-Machine" transform="translate(396.000000, 929.000000)">
                <path d="M10.5625,16.8510638 L11.734375,16.8510638 C11.83789,16.8510638 11.9375,16.8126668 12.01075,16.7440994 C12.084,16.6755319 12.1250075,16.58228 12.1250075,16.4853653 L12.1250075,14.6569079 L11.3437575,14.6569079 L11.3437575,16.1196738 L10.5625,16.1196738 L10.5625,16.8510638 Z" id="Fill-1"></path>
                <path d="M0.0155,17.9482553 L0.0155,18.6796383 C0.0164775,19.6889468 0.8905,20.5071837 1.968625,20.5080967 L2.35925,20.5080967 L2.35925,21.6051711 C2.35925,21.7020788 2.400265,21.7953307 2.4735075,21.8639052 C2.54675,21.9324797 2.64636,21.9708697 2.7498825,21.9708697 L15.2498825,21.9708697 C15.3533975,21.9708697 15.4530075,21.9324726 15.5262575,21.8639052 C15.5995075,21.7953377 15.640515,21.7020858 15.640515,21.6051711 L15.640515,20.5080967 L16.03114,20.5080967 C17.109265,20.5071825 17.98329,19.6889468 17.984265,18.6796383 L17.984265,17.9482553 C17.984265,17.8513477 17.94325,17.7580957 17.8700075,17.6895213 C17.796765,17.6209468 17.697155,17.5825568 17.5936325,17.5825568 L13.2868825,17.5825568 C13.5446825,17.2680504 13.6863075,16.8822547 13.6872825,16.4854823 L13.6872825,15.0227164 L15.6404075,15.0227164 C16.2878575,15.0227164 16.8122825,14.5317653 16.8122825,13.9256419 L16.8122825,9.90291851 C16.8122825,9.29679511 16.2878575,8.80584404 15.6404075,8.80584404 L13.6872825,8.80584404 L13.6872825,7.34307809 L3.5310325,7.34307809 L3.5310325,16.4852483 C3.53201,16.8820206 3.67361,17.2678398 3.9314325,17.5823228 L0.4059325,17.5823228 C0.1901125,17.5823228 0.0153075,17.74597 0.0153075,17.9480143 L0.0155,17.9482553 Z M13.6875,11 L14.46875,11 L14.46875,12.8284574 L13.6875,12.8284574 L13.6875,11 Z M13.6875,13.5599574 L15.25,13.5599574 L15.25,10.2688511 L13.6875,10.2688511 L13.6875,9.53746809 L15.640625,9.53746809 C15.74414,9.53746809 15.84375,9.57586511 15.917,9.64443255 C15.99025,9.713 16.0312575,9.80625191 16.0312575,9.9031666 L16.0312575,13.92589 C16.0312575,14.0227977 15.9902425,14.1160496 15.917,14.184624 C15.8437575,14.2531985 15.7441475,14.2915885 15.640625,14.2915885 L13.6875,14.2915885 L13.6875,13.5599574 Z M14.859375,21.2393626 L3.140625,21.2393626 L3.140625,20.5079797 L14.859375,20.5079797 L14.859375,21.2393626 Z M4.312375,11.0365106 C5.222525,11.2092996 5.876825,11.958966 5.876825,12.8283872 C5.876825,13.6978085 5.222525,14.4474936 4.312375,14.6202638 L4.312375,11.0365106 Z M4.312375,15.3590426 C5.6571,15.1780247 6.65515,14.1001511 6.65515,12.8285745 C6.65515,11.5569979 5.6571,10.4790213 4.312375,10.2981064 L4.312375,9.53746809 L8.999875,9.53746809 L8.999875,8.80608511 L4.312375,8.80608511 L4.312375,8.07470213 L12.906125,8.07470213 L12.906125,16.4857234 C12.906125,17.0918468 12.3817,17.5827979 11.73425,17.5827979 L5.48425,17.5827979 C4.8368,17.5827979 4.312375,17.0918468 4.312375,16.4857234 L4.312375,15.3590426 Z M0.796875,18.3138298 L17.203125,18.3138298 L17.203125,18.6795213 C17.203125,19.2856447 16.6787,19.7765957 16.03125,19.7765957 L1.96875,19.7765957 C1.3213,19.7765957 0.796875,19.2856447 0.796875,18.6795213 L0.796875,18.3138298 Z" id="Fill-2"></path>
                <path d="M9.3905,5.51451064 L10.17175,5.51451064 C10.18054,5.25486383 10.2918675,5.00710638 10.48425,4.81968511 C10.78015,4.50611489 10.946175,4.10384255 10.953,3.68602979 C10.946165,3.26821702 10.7801475,2.86596809 10.48425,2.55237447 C10.2918675,2.36495787 10.18055,2.11719574 10.17175,1.85754894 C10.18054,1.59790213 10.2918675,1.35014468 10.48425,1.1627234 C10.78015,0.849153191 10.946175,0.446880851 10.953,0.0290680851 L10.17175,0.0290680851 C10.16296,0.288714894 10.0516325,0.53647234 9.85925,0.723893617 C9.56335,1.03746383 9.397325,1.43973617 9.3905,1.85754894 C9.397335,2.2753617 9.5633525,2.67761064 9.85925,2.99120426 C10.0516325,3.17862085 10.16295,3.42638298 10.17175,3.68602979 C10.16296,3.9456766 10.0516325,4.19343404 9.85925,4.38085532 C9.56335,4.69442553 9.397325,5.09669787 9.3905,5.51451064 Z" id="Fill-3"></path>
                <path d="M7.047,6.61172553 L7.82825,6.61172553 C7.83704,6.35205532 7.9483675,6.10429787 8.14075,5.9168766 C8.766725,5.27508511 8.766725,4.29138085 8.14075,3.64958936 C7.9483675,3.46217277 7.83705,3.21441064 7.82825,2.95476383 C7.83704,2.69511702 7.9483675,2.44735957 8.14075,2.2599383 C8.43665,1.94636809 8.602675,1.54409574 8.6095,1.12628298 L7.82825,1.12628298 C7.81946,1.38592979 7.7081325,1.63368723 7.51575,1.82110851 C7.21985,2.13467872 7.053825,2.53695106 7.047,2.95476383 C7.053835,3.3725766 7.2198525,3.77482553 7.51575,4.08841915 C7.7081325,4.27583574 7.81945,4.52359787 7.82825,4.78324468 C7.81946,5.04289149 7.7081325,5.29064894 7.51575,5.47807021 C7.21985,5.79164043 7.053825,6.19391277 7.047,6.61172553 L7.047,6.61172553 Z" id="Fill-4"></path>
                <polygon id="Fill-5" points="9.78125 9.53723404 10.5625 9.53723404 10.5625 8.80585106 9.78125 8.80585106"></polygon>
            </g>
        </g>
    </g>
</svg>