<?xml version="1.0" encoding="UTF-8"?>
<svg width="18px" height="20px" viewBox="0 0 18 20" version="1.1" xmlns="http://www.w3.org/2000/svg" xmlns:xlink="http://www.w3.org/1999/xlink">
    <!-- Generator: Sketch 55.2 (78181) - https://sketchapp.com -->
    <title>Dishwasher</title>
    <desc>Created with Sketch.</desc>
    <g id="Listing-Page" stroke="none" stroke-width="1" fill="none" fill-rule="evenodd">
        <g id="7.1" transform="translate(-25.000000, -2930.000000)" fill="#000000" fill-rule="nonzero">
            <g id="Dishwasher" transform="translate(25.000000, 2930.000000)">
                <path d="M0.0903,0.363333333 L0.0903,19.6969697 C0.0903,19.8792606 0.209832,20 0.3903,20 L17.4306,20 C17.611068,20 17.7306,19.8792606 17.7306,19.6969697 L17.7306,0.363333333 C17.7306,0.181042424 17.611068,0.0603030303 17.4306,0.0603030303 L0.3903,0.0603030303 C0.209832,0.0603030303 0.0903,0.182224242 0.0903,0.363333333 Z M17.1306,0.666363636 L17.1306,2.54490909 L0.6903,2.54490909 L0.6903,0.666363636 L17.1306,0.666363636 Z M0.6903,19.3939394 L0.6903,3.15090909 L17.1306,3.15090909 L17.1306,19.3939394 L0.6903,19.3939394 Z" id="Shape"></path>
                <path d="M3.6306,11.4842424 C3.6306,14.4233939 6.00012,16.8181818 8.9112,16.8181818 C11.82096,16.8181818 14.1918,14.4247273 14.1918,11.4842424 C14.1918,8.54509091 11.82228,6.15030303 8.9112,6.15030303 C6.00027,6.15148667 3.6306,8.54493939 3.6306,11.4842424 L3.6306,11.4842424 Z M4.29036,12.2122121 C4.95012,12.424097 6.35988,12.6063939 8.58066,11.7884545 C11.0709,10.8485758 13.02096,12.0003394 13.50006,12.3341515 C13.10982,14.5465152 11.1903,16.2132424 8.90976,16.2132424 C6.56952,16.2120588 4.65006,14.4850303 4.29036,12.2123333 L4.29036,12.2122121 Z M4.230594,11.4842424 C4.230594,8.87769697 6.330594,6.75636364 8.911194,6.75636364 C11.491794,6.75636364 13.591794,8.87757576 13.591794,11.4842424 L13.591794,11.6357576 C12.750384,11.1516061 10.800384,10.3029091 8.369994,11.212 C5.910234,12.1210909 4.560294,11.6973333 4.229694,11.5458182 C4.2308658,11.5150424 4.2308658,11.5150424 4.2308658,11.4842667 L4.230594,11.4842424 Z" id="Shape"></path>
                <path d="M2.6097,11.4842424 C2.6097,15 5.42922,17.8478788 8.9097,17.8478788 C12.3903,17.8478788 15.2097,14.9998788 15.2097,11.4842424 C15.2097,7.96848485 12.39018,5.12060606 8.9097,5.12060606 C5.4303,5.12060606 2.6097,7.96978788 2.6097,11.4842424 L2.6097,11.4842424 Z M3.2097,11.4842424 C3.2097,8.30242424 5.7597,5.72666667 8.9097,5.72666667 C12.0597,5.72666667 14.6097,8.30242424 14.6097,11.4842424 C14.6097,14.6660606 12.0597,17.2418182 8.9097,17.2418182 C5.7597,17.2418182 3.2097,14.6660606 3.2097,11.4842424 L3.2097,11.4842424 Z" id="Shape"></path>
                <path d="M3.4806,1.93878788 L2.37084,1.93878788 C2.190372,1.93878788 2.07084,1.81804848 2.07084,1.63575758 C2.07084,1.45346667 2.190372,1.33272727 2.37084,1.33272727 L3.4806,1.33272727 C3.661068,1.33272727 3.7806,1.45346667 3.7806,1.63575758 C3.7806,1.81804848 3.6306,1.93878788 3.4806,1.93878788 Z" id="Shape"></path>
                <path d="M6.1806,1.93878788 L5.07084,1.93878788 C4.890372,1.93878788 4.77084,1.81804848 4.77084,1.63575758 C4.77084,1.45346667 4.890372,1.33272727 5.07084,1.33272727 L6.1806,1.33272727 C6.361068,1.33272727 6.4806,1.45346667 6.4806,1.63575758 C6.4806,1.81804848 6.359898,1.93878788 6.1806,1.93878788 Z" id="Shape"></path>
            </g>
        </g>
    </g>
</svg>