<?xml version="1.0" encoding="UTF-8"?>
<svg width="18px" height="23px" viewBox="0 0 18 23" version="1.1" xmlns="http://www.w3.org/2000/svg" xmlns:xlink="http://www.w3.org/1999/xlink">
    <!-- Generator: Sketch 55.2 (78181) - https://sketchapp.com -->
    <title>Door Man</title>
    <desc>Created with Sketch.</desc>
    <g id="Listing-Page" stroke="none" stroke-width="1" fill="none" fill-rule="evenodd">
        <g id="7.2" transform="translate(-400.000000, -84.000000)" fill="#000000">
            <g id="Door-Man" transform="translate(400.000000, 84.000000)">
                <path d="M4.88571429,5.3334978 C6.14530286,5.3334978 7.17387429,4.32248352 7.17387429,3.08442637 C7.17387429,2.65495824 7.04530286,2.22549011 6.81428571,1.89671648 L6.81428571,0.252873626 L2.90597143,0.252873626 L2.90597143,1.92140989 C2.70005657,2.25018352 2.57148,2.65397253 2.57148,3.08445165 C2.59759543,4.32250879 3.62617714,5.3334978 4.88576571,5.3334978 L4.88571429,5.3334978 Z M4.88571429,4.14477692 C4.29408,4.14477692 3.80592,3.66496154 3.80592,3.08344066 C3.80592,2.50191978 4.29408,2.0221044 4.88571429,2.0221044 C5.47734857,2.0221044 5.96550857,2.50191978 5.96550857,3.08344066 C5.96550857,3.66496154 5.47734857,4.14477692 4.88571429,4.14477692 Z" id="Fill-1"></path>
                <path d="M9.69402857,12.6631429 L9.69402857,5.53491209 L6.09402857,5.53491209 L4.88566286,6.82432747 L3.67729714,5.53491209 L0.0772971429,5.53491209 L0.0772971429,12.6621319 C0.0772971429,13.3443473 0.591582857,13.8755209 1.23444,13.8755209 C1.59402857,13.8755209 1.90342286,13.6987949 2.10831429,13.4203736 L2.10831429,23.0000005 L7.63688571,23.0000005 L7.63688571,13.4213846 C7.84280057,13.699811 8.15117143,13.8765319 8.51076,13.8765319 C9.17974286,13.8755462 9.69402857,13.3197044 9.69402857,12.6631429 Z M4.5,8.71978022 C4.70591486,8.71978022 4.88571429,8.89650615 4.88571429,9.12458022 C4.88571429,9.35165846 4.70591486,9.52938022 4.5,9.52938022 C4.29408514,9.52938022 4.11428571,9.35265429 4.11428571,9.12458022 C4.11428571,8.89651626 4.29408514,8.71978022 4.5,8.71978022 Z M4.5,10.1602374 C4.70591486,10.1602374 4.88571429,10.3369633 4.88571429,10.5650374 C4.88571429,10.7921156 4.70591486,10.9698374 4.5,10.9698374 C4.29408514,10.9698374 4.11428571,10.7931114 4.11428571,10.5650374 C4.11428571,10.3369734 4.29408514,10.1602374 4.5,10.1602374 Z M4.5,11.6006945 C4.70591486,11.6006945 4.88571429,11.7774204 4.88571429,12.0054945 C4.88571429,12.2325727 4.70591486,12.4102945 4.5,12.4102945 C4.29408514,12.4102945 4.11428571,12.2335686 4.11428571,12.0054945 C4.11428571,11.8030996 4.29408514,11.6006945 4.5,11.6006945 Z M1.74882857,12.6630165 C1.74882857,12.966111 1.51780114,13.2188582 1.23454286,13.2188582 C0.951274286,13.2188582 0.720257143,12.966111 0.720257143,12.6630165 L0.720257143,12.2078692 L1.74882857,12.2078692 L1.74882857,12.6630165 Z M1.07984571,7.25371978 L1.07984571,6.59617253 L3.26556,6.59617253 L3.88229143,7.25371978 L1.07984571,7.25371978 Z M6.63464571,21.8882915 L3.13698857,21.8882915 L3.13698857,14.2297967 L6.60841714,14.2297967 L6.60841714,21.8882915 L6.63464571,21.8882915 Z M5.88834,7.25371978 L6.50507143,6.59617253 L8.69078571,6.59617253 L8.69078571,7.25371978 L5.88834,7.25371978 Z M9.05145429,12.6630165 C9.05145429,12.966111 8.82042686,13.2188582 8.53716857,13.2188582 C8.2539,13.2188582 8.02288286,12.966111 8.02288286,12.6630165 L8.02288286,12.2078692 L9.05145429,12.2078692 L9.05145429,12.6630165 Z" id="Fill-2"></path>
                <polygon id="Fill-3" points="7.97142857 0.227068132 7.97142857 4.04405714 9.20592 4.04405714 9.20592 1.44050769 16.6630629 1.44050769 16.6630629 19.1831121 8.58826286 19.1831121 8.58826286 20.3718077 17.8716343 20.3718077 17.8716343 0.227093407"></polygon>
                <path d="M15.9940286,10.5393077 C15.9940286,11.5502967 14.4511714,11.5502967 14.4511714,10.5393077 C14.4511714,9.52831868 15.9940286,9.52831868 15.9940286,10.5393077" id="Fill-4"></path>
                <polygon id="Fill-5" points="11.0059714 21.0038022 9.38576571 22.5953256 16.8691371 22.5953256 15.2489314 21.0038022"></polygon>
            </g>
        </g>
    </g>
</svg>