<?xml version="1.0" encoding="UTF-8"?>
<svg width="23px" height="23px" viewBox="0 0 23 23" version="1.1" xmlns="http://www.w3.org/2000/svg" xmlns:xlink="http://www.w3.org/1999/xlink">
    <!-- Generator: Sketch 55.2 (78181) - https://sketchapp.com -->
    <title>Elevator</title>
    <desc>Created with Sketch.</desc>
    <g id="Listing-Page" stroke="none" stroke-width="1" fill="none" fill-rule="evenodd">
        <g id="7.2" transform="translate(-399.000000, -40.000000)" fill="#000000">
            <g id="Elevator" transform="translate(399.000000, 40.000000)">
                <path d="M19.2102273,1.01654651 L3.78977273,1.01654651 L3.78977273,0.0376317442 L3.13636364,0.0376317442 L3.13636364,7.28773721 L0.784090909,7.28773721 L0.784090909,0.0376317442 L0.130681818,0.0376317442 L0.130681818,22.7544352 L0.784090909,22.75548 L0.784090909,13.1861434 L3.13636364,13.1861434 L3.13636364,22.75548 L3.78977273,22.75548 L3.78977273,22.2644835 L19.2102273,22.2644835 L19.2102273,22.75548 L19.8636364,22.75548 L19.8636364,0.0376317442 L19.2102273,0.0376317442 L19.2102273,1.01654651 Z M19.2102273,1.68515116 L19.2102273,2.4738907 L3.78977273,2.4738907 L3.78977273,1.68515116 L19.2102273,1.68515116 Z M3.78977273,3.14249535 L11.2059659,3.14249535 L11.2059659,20.191914 L3.78977273,20.191914 L3.78977273,3.14249535 Z M11.859375,3.14249535 L19.2102273,3.14249535 L19.2102273,20.191914 L11.859375,20.191914 L11.859375,3.14249535 Z M0.784090909,12.5176698 L0.784090909,7.95644884 L3.13636364,7.95644884 L3.13636364,12.5176698 L0.784090909,12.5176698 Z M3.78977273,21.5959837 L3.78977273,20.8605186 L19.2102273,20.8605186 L19.2102273,21.5959837 L3.78977273,21.5959837 Z" id="Fill-1"></path>
                <polygon id="Fill-2" points="22.2159091 22.7543819 22.8693182 22.7543819 22.8693182 0.0376028605 22.2159091 0.0376028605"></polygon>
                <polygon id="Fill-3" points="1.63352273 9.89534884 2.28693182 9.89534884 2.28693182 8.99273256 1.63352273 8.99273256"></polygon>
                <polygon id="Fill-4" points="1.63352273 11.5168488 2.28693182 11.5168488 2.28693182 10.6142326 1.63352273 10.6142326"></polygon>
                <path d="M17.1284659,9.10452326 L15.5072011,6.22952326 L13.884917,9.10452326 L15.1804966,9.10452326 L15.1804966,16.4361744 L15.8339057,16.4361744 L15.8339057,9.10452326 L17.1284659,9.10452326 Z M15.5072011,7.56673256 L15.9982773,8.4359186 L15.0171443,8.4359186 L15.5072011,7.56673256 Z" id="Fill-5"></path>
                <path d="M7.81947727,14.2297791 L7.81947727,6.89812791 L7.16606818,6.89812791 L7.16606818,14.2297791 L5.87048864,14.2297791 L7.49277273,17.1047791 L9.11505682,14.2297791 L7.81947727,14.2297791 Z M7.49277273,15.7675698 L7.00271591,14.8983837 L7.98384886,14.8983837 L7.49277273,15.7675698 Z" id="Fill-6"></path>
            </g>
        </g>
    </g>
</svg>