<?xml version="1.0" encoding="UTF-8"?>
<svg width="18px" height="18px" viewBox="0 0 18 18" version="1.1" xmlns="http://www.w3.org/2000/svg" xmlns:xlink="http://www.w3.org/1999/xlink">
    <!-- Generator: Sketch 55.2 (78181) - https://sketchapp.com -->
    <title>Fire Place</title>
    <desc>Created with Sketch.</desc>
    <g id="Listing-Page" stroke="none" stroke-width="1" fill="none" fill-rule="evenodd">
        <g id="7.2" transform="translate(-398.000000, -431.000000)" fill="#000000">
            <path d="M398,433.70966 L399.223284,433.70966 L399.223284,445.591712 L398.568548,445.591712 L398.568548,447.022142 L398,447.022142 L398,449 L416,449 L416,447.022142 L415.431452,447.022142 L415.431452,445.591712 L414.776716,445.591712 L414.776716,433.70966 L416,433.70966 L416,431 L398,431 L398,433.70966 Z M415.419355,448.419243 L398.580645,448.419243 L398.580645,447.602706 L415.419355,447.602706 L415.419355,448.419243 Z M414.850806,446.172354 L414.850806,446.988891 L399.149194,446.988891 L399.149194,446.172354 L404.956419,446.172354 C404.972296,446.175377 404.987418,446.176891 405.00405,446.176891 L408.995985,446.176891 C409.000522,446.176891 409.005057,446.175377 409.01035,446.175377 L410.635847,446.176891 L410.92617,446.173865 L411.893912,446.174622 L411.893912,446.172354 L414.850806,446.172354 Z M411.313323,445.591712 L410.926226,445.591712 L410.926226,438.504597 C410.926226,437.978381 410.618523,437.494513 410.1422,437.269979 L407.000135,435.786614 L403.857297,437.265431 C403.381748,437.48921 403.074026,437.973852 403.074026,438.500048 L403.074026,445.589487 L402.686929,445.589487 L402.686929,438.499274 C402.686929,437.824124 403.081594,437.201908 403.692471,436.914607 L407.000987,435.357907 L410.309503,436.919136 C410.920381,437.206437 411.31429,437.828653 411.31429,438.503803 L411.313323,445.591712 Z M410.345581,445.591712 L409.286348,445.591712 L409.286348,444.754021 C409.286348,444.593741 409.156307,444.4637 408.996026,444.4637 L408.533329,444.4637 C408.692855,444.31098 408.834994,444.124993 408.94009,443.900439 C409.429245,442.852556 409.288632,441.147619 408.209,440.219947 C407.674477,439.761027 407.356942,439.265818 407.2904,438.789518 C407.275278,438.681404 407.201186,438.591441 407.098363,438.555151 C406.995541,438.519618 406.881376,438.543809 406.802757,438.619415 C406.306789,439.09345 406.181292,440.091438 406.792928,440.766627 C407.290406,441.314752 407.643477,442.246953 407.51798,442.684718 C407.456739,442.899439 407.126354,443.110367 406.851148,443.110367 C406.623574,443.110367 406.554012,442.968986 406.530593,442.922111 C406.454232,442.767122 406.482206,442.652964 406.552518,442.410276 C406.659121,442.04511 406.805041,441.545352 406.398283,440.732609 C406.331751,440.599545 406.176012,440.538307 406.036135,440.590472 C405.897022,440.642639 405.819903,440.791587 405.857706,440.935218 C405.892485,441.06677 405.892485,441.06677 405.675498,441.346506 C405.56209,441.492423 405.407105,441.692026 405.205234,441.984611 C404.832498,442.524434 404.61855,443.378751 404.980679,444.069695 C405.047968,444.198221 405.143228,444.333557 405.274775,444.461318 L405.004117,444.461318 C404.843836,444.461318 404.713795,444.591358 404.713795,444.751639 L404.713795,445.58782 L403.654563,445.587063 L403.654563,438.499174 C403.654563,438.196756 403.830723,437.919287 404.104408,437.790752 L407.000085,436.428355 L409.896537,437.795281 C410.169479,437.923808 410.346382,438.20204 410.346382,438.503703 L410.345581,445.591712 Z M406.00971,443.179922 C406.169993,443.505023 406.476955,443.691757 406.8512,443.691757 C407.39329,443.691757 407.942929,443.311476 408.076748,442.844233 C408.275581,442.149438 407.795503,441.007045 407.223161,440.375733 C407.013742,440.145141 406.944181,439.866162 406.961561,439.615151 C407.15133,439.975787 407.441658,440.325082 407.831019,440.659241 C408.676284,441.385798 408.815387,442.79426 408.413929,443.653996 C408.117568,444.288308 407.436355,444.453133 407.221632,444.4607 C406.327226,444.493211 405.735994,444.262624 405.494813,443.802195 C405.246065,443.328159 405.417695,442.699886 405.682313,442.316566 C405.848645,442.076142 405.982468,441.899994 406.086035,441.766156 C406.08301,441.948364 406.038405,442.09958 405.99531,442.248515 C405.918192,442.514642 405.829735,442.81555 406.009675,443.17996 L406.00971,443.179922 Z M405.29449,445.044322 L408.705781,445.044322 L408.705781,445.591693 L407.090852,445.591693 L405.29449,445.590936 L405.29449,445.044322 Z M414.196168,445.591693 L411.89391,445.591693 L411.89391,438.504577 C411.89391,437.605648 411.368465,436.777769 410.555697,436.395301 L407.000794,434.716879 L403.445116,436.389998 C402.631613,436.772563 402.106148,437.601177 402.106148,438.500048 L402.106148,445.592583 L399.80389,445.591827 L399.80389,433.709776 L414.195955,433.709776 L414.196168,445.591693 Z M398.580684,431.580622 L415.419394,431.580622 L415.419394,433.128999 L398.580684,433.128999 L398.580684,431.580622 Z" id="Fire-Place"></path>
        </g>
    </g>
</svg>