<?xml version="1.0" encoding="UTF-8"?>
<svg width="100px" height="91px" viewBox="0 0 100 91" version="1.1" xmlns="http://www.w3.org/2000/svg" xmlns:xlink="http://www.w3.org/1999/xlink">
    <!-- Generator: Sketch 55.2 (78181) - https://sketchapp.com -->
    <title>Fridge</title>
    <desc>Created with Sketch.</desc>
    <g id="Fridge" stroke="none" stroke-width="1" fill="none" fill-rule="evenodd">
        <g id="Group-4" transform="translate(22.000000, 0.000000)" fill="#000000">
            <path d="M7.562,85.738 L8.312,85.738 L8.312,88.136399 C8.312,89.456699 9.3823,90.530899 10.7065,90.530899 C12.0307,90.530899 13.1049,89.456699 13.1049,88.136399 L13.1049,85.738 L43.0819,85.738 L43.0819,88.136399 C43.0819,89.456699 44.1522,90.530899 45.4725,90.530899 C46.7967,90.530899 47.8709,89.456699 47.8709,88.136399 L47.8709,85.738 L48.6209,85.738 C52.5857,85.738 55.8162,82.5114 55.8162,78.5466 L55.82011,7.2106 C55.82011,3.2458 52.59351,0.0153 48.62481,0.0153 L7.56281,0.0153 C3.59801,0.0153 0.36751,3.2419 0.36751,7.2106 L0.36751,78.5426 C0.37141,82.5114 3.59801,85.7379 7.56281,85.7379 L7.562,85.738 Z M5.1674,7.211 C5.1674,5.8907 6.2417,4.8126 7.5659,4.8126 L48.6249,4.8126 C49.9452,4.8126 51.0194,5.8868 51.0194,7.211 L51.0194,29.691 L5.1674,29.691 L5.1674,7.211 Z M5.1675,34.488 L51.0225,34.488 L51.0225,78.547 C51.0225,79.8634 49.9483,80.9415 48.628,80.9415 L7.562,80.9415 C6.2378,80.9415 5.1636,79.8634 5.1636,78.547 L5.1636,34.488 L5.1675,34.488 Z" id="Fill-1"></path>
            <path d="M12.059,11.41 C10.7348,11.41 9.6645,12.4842 9.6645,13.8084 L9.6645,22.199 C9.6645,23.5193 10.7348,24.5935 12.059,24.5935 C13.3832,24.5935 14.4574,23.5193 14.4574,22.199 L14.4574,13.8084 C14.4574,12.4842 13.3832,11.41 12.059,11.41 Z" id="Fill-2"></path>
            <path d="M12.059,64.16 C13.3832,64.16 14.4574,63.0858 14.4574,61.7655 L14.4574,41.3825 C14.4574,40.0583 13.3871,38.9841 12.059,38.9841 C10.7348,38.9841 9.6645,40.0544 9.6645,41.3825 L9.6645,61.7655 C9.6645,63.0858 10.7348,64.16 12.059,64.16 Z" id="Fill-3"></path>
        </g>
    </g>
</svg>