<?xml version="1.0" encoding="UTF-8"?>
<svg width="29px" height="23px" viewBox="0 0 29 23" version="1.1" xmlns="http://www.w3.org/2000/svg" xmlns:xlink="http://www.w3.org/1999/xlink">
    <!-- Generator: Sketch 55.2 (78181) - https://sketchapp.com -->
    <title>Guest Lounge</title>
    <desc>Created with Sketch.</desc>
    <g id="Listing-Page" stroke="none" stroke-width="1" fill="none" fill-rule="evenodd">
        <g id="7.2" transform="translate(-392.000000, -237.000000)" fill="#000000">
            <g id="Guest-Lounge" transform="translate(392.000000, 237.000000)">
                <path d="M28.1018878,9.26446053 L27.0465245,8.45467895 C26.8072479,8.27144461 26.5113265,8.17096184 26.2131,8.17096184 L25.596998,8.17096184 L25.596998,4.38806711 C25.596998,3.60549211 24.9750959,2.96948158 24.2098806,2.96948158 L23.6816071,2.96948158 C23.4746951,2.15615921 22.7568622,1.55089605 21.8980184,1.55089605 L13.5753143,1.55089605 C12.7164704,1.55089605 11.9986316,2.15615921 11.7917255,2.96948158 L11.263452,2.96948158 C10.4982367,2.96948158 9.87633469,3.60549211 9.87633469,4.38806711 L9.87633469,8.17096184 L9.26023265,8.17096184 C8.96200612,8.17096184 8.66608776,8.27144461 8.42796224,8.45467895 L7.3714449,9.26446053 C6.91368878,9.61557368 6.63972755,10.1758961 6.63972755,10.7622447 C6.63972755,10.9821247 6.67671735,11.1972776 6.7495399,11.4017961 L7.09401847,12.3723355 C8.00719296,14.9423434 8.47421133,17.6305592 8.48575214,20.3636247 C8.20717163,20.6225169 8.02684194,20.9948839 8.02684194,21.4110023 C8.02684194,22.1935773 8.64874398,22.8295879 9.41395929,22.8295879 C10.0589726,22.8295879 10.5976328,22.3744602 10.7525164,21.7632958 C11.6252389,21.4583036 14.7000674,20.4652786 17.7367817,20.4652786 C20.7734931,20.4652786 23.8480879,21.4582734 24.7210441,21.7632958 C24.8759396,22.3744602 25.4146176,22.8295879 26.0596012,22.8295879 C26.8248165,22.8295879 27.4467186,22.1935773 27.4467186,21.4110023 C27.4467186,20.9948839 27.2663918,20.6224958 26.9866543,20.3636247 C26.9982158,17.6304987 27.4652135,14.9422829 28.378388,12.3723355 L28.7228665,11.4029763 C28.7968461,11.1961004 28.8338359,10.9809566 28.8338359,10.7622447 C28.8338359,10.1758961 28.5598806,9.61554342 28.1021186,9.26446053 L28.1018878,9.26446053 Z M26.4916776,9.21126395 L27.5470408,10.0210455 C27.5632216,10.0328663 27.5747832,10.0494172 27.5898099,10.0624213 L25.7888803,10.0624213 L24.8641354,9.11669763 L26.214263,9.11669763 C26.3125167,9.11669763 26.4107705,9.14979947 26.4916864,9.21127 L26.4916776,9.21126395 Z M23.093351,11.4810008 L24.4804684,12.8995863 L10.993101,12.8995863 L12.3802184,11.4810008 L23.093351,11.4810008 Z M23.7475969,10.5352771 L23.7475969,9.88153237 C23.7475969,9.72312289 23.7984594,9.57417974 23.8816835,9.45004026 L25.1347202,10.7315034 L25.1347202,12.2316482 L23.7475969,10.8130626 L23.7475969,10.5352771 Z M11.5918622,9.45007053 C11.6750893,9.57537816 11.7259488,9.72314711 11.7259488,9.88156263 L11.7259488,10.8119126 L10.3388314,12.2304982 L10.3388314,10.7303534 L11.5918622,9.45007053 Z M10.3388255,13.8451889 L25.1347439,13.8451889 L25.1347439,14.7909126 C25.1347439,15.0521684 24.9266778,15.2637745 24.6723714,15.2637745 L10.801198,15.2637745 C10.5468916,15.2637745 10.3388255,15.0521684 10.3388255,14.7909126 L10.3388255,13.8451889 Z M24.6725194,4.38795211 L24.6725194,8.17084684 L24.4956608,8.17084684 C24.2378893,8.17084684 23.9789578,8.23350066 23.7477863,8.35171763 L23.7477863,3.91513868 L24.2101588,3.91513868 C24.4644651,3.91513868 24.6725312,4.12674474 24.6725312,4.38800053 L24.6725194,4.38795211 Z M12.6508357,3.44222842 C12.6508357,2.920885 13.065802,2.49650474 13.5755806,2.49650474 L21.8982847,2.49650474 C22.4080633,2.49650474 22.8230296,2.920885 22.8230296,3.44222842 L22.8230296,10.5353074 L12.6508357,10.5353074 L12.6508357,3.44222842 Z M10.8013459,4.38795211 C10.8013459,4.12669632 11.009412,3.91509026 11.2637184,3.91509026 L11.7260908,3.91509026 L11.7260908,8.35166921 C11.4949046,8.23345526 11.2359908,8.17079842 10.9782163,8.17079842 L10.8013578,8.17079842 L10.8013459,4.38795211 Z M8.98307551,9.21129421 C9.06283439,9.14982368 9.16108816,9.11672184 9.26049898,9.11672184 L10.6106265,9.11672184 L9.68588163,10.0624455 L7.88495204,10.0624455 C7.89997878,10.0494414 7.91153735,10.0328905 7.92772112,10.0210697 L8.98307551,9.21129421 Z M7.96470204,12.0484653 L7.61906939,11.0767455 C7.61097602,11.0542842 7.60750786,11.0306426 7.60057449,11.0081813 L9.41422857,11.0081813 L9.41422857,19.9927076 C9.41076041,19.9927076 9.40729224,19.9938879 9.40382408,19.9938879 C9.35411867,17.2772853 8.87324245,14.6067432 7.96468429,12.0485984 L7.96470204,12.0484653 Z M9.41422857,21.883991 C9.15992224,21.883991 8.95185612,21.6723849 8.95185612,21.4111291 C8.95185612,21.1498733 9.15992224,20.9382673 9.41422857,20.9382673 C9.6685349,20.9382673 9.87660102,21.1498733 9.87660102,21.4111291 C9.87660102,21.6723849 9.6685349,21.883991 9.41422857,21.883991 Z M10.6591571,20.7963936 C10.5805553,20.6308904 10.471897,20.4831094 10.3389735,20.3613607 L10.3389735,16.1220982 C10.4846215,16.1752947 10.6383541,16.2095768 10.8013459,16.2095768 L24.6725194,16.2095768 C24.8355053,16.2095768 24.9892408,16.1752947 25.1348918,16.1220982 L25.1348918,20.3613607 C25.0019594,20.4843048 24.8944582,20.6308904 24.8147082,20.7963936 C23.6842112,20.4122028 20.7366571,19.5196521 17.7369327,19.5196521 C14.7372082,19.5196521 11.7895653,20.4121726 10.6591571,20.7963936 Z M26.0596367,21.883991 C25.8053304,21.883991 25.5972643,21.6723849 25.5972643,21.4111291 C25.5972643,21.1498733 25.8053304,20.9382673 26.0596367,20.9382673 C26.3139431,20.9382673 26.5220092,21.1498733 26.5220092,21.4111291 C26.5220092,21.6723849 26.3139431,21.883991 26.0596367,21.883991 Z M27.5091633,12.0484653 C26.599451,14.6066403 26.1197378,17.2770311 26.0688694,19.9937547 C26.0665553,19.9937547 26.0630871,19.9925714 26.0596219,19.9925714 L26.0596219,11.0080451 L27.873276,11.0080451 C27.8663397,11.0316897 27.8628715,11.0553313 27.8547811,11.0777926 L27.5091633,12.0484653 Z" id="Fill-1"></path>
                <path d="M3.86528571,9.58978947 L6.63952633,9.58978947 L6.63952633,8.64406579 L5.30096327,8.64406579 L5.71477551,4.38846053 L5.71477551,2.969875 L4.07334592,2.969875 L4.27910092,1.07842763 L6.17715092,1.07842763 L6.17715092,0.132703947 L3.45147643,0.132703947 L3.14283357,2.969875 L1.09105428,2.969875 L1.09336599,4.43576184 L1.50486978,8.64415658 L0.166312929,8.64415658 L0.166312929,9.58988026 L2.94054673,9.58988026 L2.94054673,21.8842882 L0.166312929,21.8842882 L0.166312929,22.8300118 L6.63952633,22.8300118 L6.63952633,21.8842882 L3.86529163,21.8842882 L3.86528571,9.58978947 Z M3.45724388,8.64406579 L3.71386133,6.27975658 L4.60277051,6.27975658 L4.37158429,8.64406579 L3.45724388,8.64406579 Z M4.79118469,3.91544737 L4.79234173,4.34100789 L4.695245,5.33400263 L3.81672255,5.33400263 L3.97046102,3.91541711 L4.79118469,3.91544737 Z M2.01578734,3.91544737 L3.0399398,3.91544737 L2.88620133,5.33403289 L2.10826183,5.33403289 L2.01578734,4.38830921 L2.01578734,3.91544737 Z M2.20190223,6.27975658 L2.78450602,6.27975658 L2.52788887,8.64406579 L2.43425734,8.64406579 L2.20190223,6.27975658 Z" id="Fill-2"></path>
            </g>
        </g>
    </g>
</svg>