<?xml version="1.0" encoding="UTF-8"?>
<svg width="25px" height="16px" viewBox="0 0 25 16" version="1.1" xmlns="http://www.w3.org/2000/svg" xmlns:xlink="http://www.w3.org/1999/xlink">
    <!-- Generator: Sketch 55.2 (78181) - https://sketchapp.com -->
    <title>Gyn</title>
    <desc>Created with Sketch.</desc>
    <g id="Listing-Page" stroke="none" stroke-width="1" fill="none" fill-rule="evenodd">
        <g id="7.1" transform="translate(-22.000000, -2805.000000)" fill="#000000" fill-rule="nonzero" stroke="#000000">
            <path d="M45.1038961,2808.8 L43.6103896,2808.8 L43.6103896,2806.93333 C43.6103896,2806.40469 43.221839,2806 42.7142857,2806 L39.7272727,2806 C39.2197195,2806 38.8311688,2806.40469 38.8311688,2806.93333 L38.8311688,2811.28889 L30.1688312,2811.28889 L30.1688312,2806.93333 C30.1688312,2806.40469 29.7802805,2806 29.2727273,2806 L26.2857143,2806 C25.778161,2806 25.3896104,2806.40469 25.3896104,2806.93333 L25.3896104,2808.8 L23.8961039,2808.8 C23.3885506,2808.8 23,2809.20469 23,2809.73333 L23,2816.26667 C23,2816.79531 23.3885506,2817.2 23.8961039,2817.2 L25.3896104,2817.2 L25.3896104,2819.06667 C25.3896104,2819.59531 25.778161,2820 26.2857143,2820 L29.2727273,2820 C29.7802805,2820 30.1688312,2819.59531 30.1688312,2819.06667 L30.1688312,2815.02222 L38.8311688,2815.02222 L38.8311688,2819.06667 C38.8311688,2819.59531 39.2197195,2820 39.7272727,2820 L42.7142857,2820 C43.221839,2820 43.6103896,2819.59531 43.6103896,2819.06667 L43.6103896,2817.2 L45.1038961,2817.2 C45.6114494,2817.2 46,2816.79531 46,2816.26667 L46,2809.73333 C46,2809.20469 45.6114494,2808.8 45.1038961,2808.8 Z M23.8961039,2816.57778 C23.7164171,2816.57778 23.5974026,2816.45382 23.5974026,2816.26667 L23.5974026,2809.73333 C23.5974026,2809.54618 23.7164171,2809.42222 23.8961039,2809.42222 L25.3896104,2809.42222 L25.3896104,2816.57778 L23.8961039,2816.57778 Z M29.5714286,2819.06667 C29.5714286,2819.25382 29.452414,2819.37778 29.2727273,2819.37778 L26.2857143,2819.37778 C26.1060275,2819.37778 25.987013,2819.25382 25.987013,2819.06667 L25.987013,2806.93333 C25.987013,2806.74618 26.1060275,2806.62222 26.2857143,2806.62222 L29.2727273,2806.62222 C29.452414,2806.62222 29.5714286,2806.74618 29.5714286,2806.93333 L29.5714286,2819.06667 Z M38.8311688,2814.4 L30.1688312,2814.4 L30.1688312,2811.91111 L38.8311688,2811.91111 L38.8311688,2814.4 Z M43.012987,2819.06667 C43.012987,2819.25382 42.8939725,2819.37778 42.7142857,2819.37778 L39.7272727,2819.37778 C39.547586,2819.37778 39.4285714,2819.25382 39.4285714,2819.06667 L39.4285714,2806.93333 C39.4285714,2806.74618 39.547586,2806.62222 39.7272727,2806.62222 L42.7142857,2806.62222 C42.8939725,2806.62222 43.012987,2806.74618 43.012987,2806.93333 L43.012987,2819.06667 Z M45.4025974,2816.26667 C45.4025974,2816.45382 45.2835829,2816.57778 45.1038961,2816.57778 L43.6103896,2816.57778 L43.6103896,2809.42222 L45.1038961,2809.42222 C45.2835829,2809.42222 45.4025974,2809.54618 45.4025974,2809.73333 L45.4025974,2816.26667 Z" id="Gyn"></path>
        </g>
    </g>
</svg>