<?xml version="1.0" encoding="UTF-8"?>
<svg width="19px" height="19px" viewBox="0 0 19 19" version="1.1" xmlns="http://www.w3.org/2000/svg" xmlns:xlink="http://www.w3.org/1999/xlink">
    <!-- Generator: Sketch 55.2 (78181) - https://sketchapp.com -->
    <title>Hair Dryer</title>
    <desc>Created with Sketch.</desc>
    <g id="Listing-Page" stroke="none" stroke-width="1" fill="none" fill-rule="evenodd">
        <g id="7.2" transform="translate(-397.000000, -1094.000000)" fill="#000000">
            <g id="Hair-Dryer" transform="translate(397.000000, 1094.000000)">
                <path d="M4.63781915,18.974734 L4.63702883,18.974734 C4.46253606,18.974734 4.32120436,18.832614 4.32198938,18.6581213 L4.32830915,15.6199404 C4.32830915,15.4454477 4.47043117,15.3049043 4.64413362,15.3049043 L4.64492394,15.3049043 C4.8194167,15.3049043 4.9607484,15.4470243 4.95996339,15.621517 L4.95364362,18.6596979 C4.95364362,18.8341906 4.81152362,18.974734 4.63781915,18.974734 Z" id="Fill-1"></path>
                <path d="M4.25094681,8.47602128 C3.87668723,8.47602128 3.51033085,8.4286466 3.16056915,8.33390128 C1.31457766,7.8427917 0.0251648936,6.16345447 0.0251648936,4.25112468 C0.0251648936,1.92119915 1.9209,0.0254438298 4.25084574,0.0254438298 C5.5267766,0.0254438298 10.0644415,0.866335319 11.867016,1.50507894 L12.0770468,1.57929819 L12.0770468,6.91506415 L11.8757095,6.99323096 C10.6961127,7.45195968 8.0817733,8.10177989 6.06918819,8.33784479 C5.33016904,8.42469702 4.65035309,8.47602128 4.25082755,8.47602128 L4.25094681,8.47602128 Z M4.25094681,0.656914894 C2.26914574,0.656914894 0.656914894,2.26920638 0.656914894,4.25094681 C0.656914894,5.87744787 1.75361915,7.30570213 3.32398936,7.7235 C3.62087447,7.80403574 3.93273723,7.84430362 4.2509266,7.84430362 C4.62833936,7.84430362 5.28052447,7.79456202 5.99585426,7.71086702 C7.82290638,7.49610638 10.2389181,6.91104787 11.4454181,6.47995 L11.4454181,2.02849255 C9.5970617,1.42841596 5.41089681,0.657015957 4.25088617,0.657015957 L4.25094681,0.656914894 Z" id="Fill-2"></path>
                <path d="M4.63781915,14.4931636 C4.43885074,14.4931636 4.23987021,14.4584179 4.04564574,14.3897268 C3.80483085,14.3005056 3.5932234,14.1639098 3.41320851,13.9838949 C3.08711596,13.6617438 2.90710106,13.2274928 2.90710106,12.7624374 L2.90710106,8.26186298 C2.90710106,8.16316809 2.91499617,8.06999936 2.9307884,7.97603426 L2.98842713,7.63100234 L3.32636436,7.72338074 C3.61928777,7.80391649 3.93038245,7.84497266 4.2501484,7.84497266 C4.63229096,7.84497266 5.28605266,7.79523106 5.99744096,7.71153606 L6.29826755,7.67600606 L6.34564223,7.97525606 C6.36143245,8.07316266 6.36853926,8.16396043 6.36853926,8.26187309 L6.36853926,12.7624476 C6.36853926,13.4770093 5.91848181,14.1275976 5.24893394,14.3810454 C5.05786064,14.4552647 4.85179351,14.4931636 4.63782117,14.4931636 L4.63781915,14.4931636 Z M3.53875,8.41679787 L3.53875,12.7625426 C3.53875,13.0578309 3.65244681,13.3318149 3.85851596,13.5363074 C3.97537,13.6531615 4.11038723,13.7400117 4.26119468,13.7960819 C4.51148936,13.8845128 4.79020319,13.8813555 5.0223266,13.7913461 C5.45027128,13.6294863 5.7368883,13.2165354 5.7368883,12.7625567 L5.7368883,8.37578011 C5.13287021,8.43973532 4.59201702,8.47684394 4.24935,8.47684394 C4.00774681,8.47684394 3.77008511,8.45710415 3.53875,8.41683628 L3.53875,8.41679787 Z" id="Fill-3"></path>
                <path d="M5.73698936,12.5066489 L5.73698936,9.38701064 L6.11913191,9.469125 C7.12029043,9.68546223 7.76772553,10.2650027 7.76772553,10.9463952 C7.76772553,11.6277878 7.12029043,12.2081165 6.11913191,12.4236654 L5.73698936,12.5066489 Z M6.3686383,10.1987553 L6.3686383,11.6941766 C6.83448191,11.5173149 7.13609681,11.2338713 7.13609681,10.946466 C7.13609681,10.6590606 6.83448191,10.3748287 6.3686383,10.1987553 Z" id="Fill-4"></path>
                <path d="M4.64428723,15.9365613 C4.19819149,15.9365613 3.8357766,15.5725617 3.8357766,15.1248894 L3.8357766,13.6452543 L4.25660638,13.7944811 C4.51638085,13.8860691 4.79034468,13.8813333 5.0224883,13.7913238 L5.45279787,13.6247262 L5.45279787,15.1248974 C5.45279787,15.5725698 5.09038298,15.9365613 4.64428723,15.9365613 L4.64428723,15.9365613 Z M4.46742553,14.4845489 L4.46742553,15.1241011 C4.46742553,15.2251649 4.54480202,15.30412 4.64428723,15.30412 C4.74219383,15.30412 4.82114894,15.2235843 4.82114894,15.1241011 L4.82114894,14.4829723 C4.70508319,14.4956053 4.58585213,14.4963956 4.46742553,14.484551 L4.46742553,14.4845489 Z" id="Fill-5"></path>
                <path d="M18.6588085,3.62576596 C18.3903628,3.62576596 18.2371904,3.50338372 18.1455862,3.42995479 C18.0800523,3.37784426 18.0729455,3.37310638 18.0263632,3.37310638 C17.9805691,3.37310638 17.972674,3.37784426 17.9071402,3.42995479 C17.8155521,3.50259543 17.6623838,3.62576596 17.3939179,3.62576596 C17.1254721,3.62576596 16.9722998,3.50338372 16.8806955,3.42995479 C16.8151617,3.37784426 16.8080549,3.37310638 16.7622609,3.37310638 C16.7164668,3.37310638 16.70936,3.37784426 16.6438262,3.42995479 C16.5522381,3.50259543 16.3998581,3.62576596 16.1306038,3.62576596 C15.8621581,3.62576596 15.7089857,3.50338372 15.6173815,3.42995479 C15.5534263,3.37784426 15.5463215,3.37310638 15.5005274,3.37310638 C15.3260347,3.37310638 15.184703,3.23177468 15.184703,3.05728191 C15.184703,2.88278915 15.3260347,2.74145745 15.5005274,2.74145745 C15.7689732,2.74145745 15.9221455,2.86383968 16.0137498,2.93726862 C16.0792836,2.98937915 16.0863904,2.99411702 16.1321845,2.99411702 C16.1779785,2.99411702 16.1850853,2.98937915 16.2506191,2.93726862 C16.3422072,2.86462798 16.4953755,2.74145745 16.7638415,2.74145745 C17.0323074,2.74145745 17.1854596,2.86383968 17.2770638,2.93726862 C17.3425977,2.98937915 17.3497045,2.99411702 17.3954985,2.99411702 C17.4412926,2.99411702 17.4491877,2.98937915 17.5147215,2.93726862 C17.6063096,2.86462798 17.7594779,2.74145745 18.0279438,2.74145745 C18.2964098,2.74145745 18.4495619,2.86383968 18.5411662,2.93726862 C18.6051214,2.98937915 18.6130165,2.99411702 18.6588105,2.99411702 C18.8333033,2.99411702 18.974635,3.13544872 18.974635,3.30994149 C18.974635,3.48443426 18.8333033,3.62576596 18.6588105,3.62576596 L18.6588085,3.62576596 Z" id="Fill-6"></path>
                <path d="M18.6588085,4.88906383 C18.3903628,4.88906383 18.2371904,4.7666816 18.1455862,4.69325266 C18.0800523,4.64114213 18.0729455,4.63640426 18.0263632,4.63640426 C17.9805691,4.63640426 17.972674,4.64114213 17.9071402,4.69325266 C17.8155521,4.7658933 17.6623838,4.88906383 17.3939179,4.88906383 C17.1254721,4.88906383 16.9722998,4.7666816 16.8806955,4.69325266 C16.8151617,4.64114213 16.8080549,4.63640426 16.7622609,4.63640426 C16.7164668,4.63640426 16.70936,4.64114213 16.6438262,4.69325266 C16.5522381,4.7658933 16.3998581,4.88906383 16.1306038,4.88906383 C15.8621581,4.88906383 15.7089857,4.7666816 15.6173815,4.69325266 C15.5534263,4.64114213 15.5463215,4.63640426 15.5005274,4.63640426 C15.3260347,4.63640426 15.184703,4.49507255 15.184703,4.32057979 C15.184703,4.14608702 15.3260347,4.00475532 15.5005274,4.00475532 C15.7689732,4.00475532 15.9221455,4.12713755 16.0137498,4.20056649 C16.0792836,4.25267702 16.0863904,4.25741489 16.1321845,4.25741489 C16.1779785,4.25741489 16.1850853,4.25267702 16.2506191,4.20056649 C16.3422072,4.12792585 16.4953755,4.00475532 16.7638415,4.00475532 C17.0323074,4.00475532 17.1854596,4.12713755 17.2770638,4.20056649 C17.3425977,4.25267702 17.3497045,4.25741489 17.3954985,4.25741489 C17.4412926,4.25741489 17.4491877,4.25267702 17.5147215,4.20056649 C17.6063096,4.12792585 17.7594779,4.00475532 18.0279438,4.00475532 C18.2964098,4.00475532 18.4495619,4.12713755 18.5411662,4.20056649 C18.6051214,4.25267702 18.6130165,4.25741489 18.6588105,4.25741489 C18.8333033,4.25741489 18.974635,4.3987466 18.974635,4.57323936 C18.974635,4.74773213 18.8333033,4.88906383 18.6588105,4.88906383 L18.6588085,4.88906383 Z" id="Fill-7"></path>
                <path d="M18.6588085,6.1523617 C18.3903628,6.1523617 18.2371904,6.02997947 18.1455862,5.95655053 C18.0800523,5.90444 18.0729455,5.89970213 18.0263632,5.89970213 C17.9805691,5.89970213 17.972674,5.90444 17.9071402,5.95655053 C17.8155521,6.02919117 17.6623838,6.1523617 17.3939179,6.1523617 C17.1254721,6.1523617 16.9722998,6.02997947 16.8806955,5.95655053 C16.8151617,5.90444 16.8080549,5.89970213 16.7622609,5.89970213 C16.7164668,5.89970213 16.70936,5.90444 16.6438262,5.95655053 C16.5522381,6.02919117 16.3998581,6.1523617 16.1306038,6.1523617 C15.8621581,6.1523617 15.7089857,6.02997947 15.6173815,5.95655053 C15.5534263,5.90444 15.5463215,5.89970213 15.5005274,5.89970213 C15.3260347,5.89970213 15.184703,5.75837043 15.184703,5.58387766 C15.184703,5.40938489 15.3260347,5.26805319 15.5005274,5.26805319 C15.7689732,5.26805319 15.9221455,5.39043543 16.0137498,5.46386436 C16.0792836,5.51597489 16.0863904,5.52071277 16.1321845,5.52071277 C16.1779785,5.52071277 16.1850853,5.51597489 16.2506191,5.46386436 C16.3422072,5.39122372 16.4953755,5.26805319 16.7638415,5.26805319 C17.0323074,5.26805319 17.1854596,5.39043543 17.2770638,5.46386436 C17.3425977,5.51597489 17.3497045,5.52071277 17.3954985,5.52071277 C17.4412926,5.52071277 17.4491877,5.51597489 17.5147215,5.46386436 C17.6063096,5.39122372 17.7594779,5.26805319 18.0279438,5.26805319 C18.2964098,5.26805319 18.4495619,5.39043543 18.5411662,5.46386436 C18.6051214,5.51597489 18.6130165,5.52071277 18.6588105,5.52071277 C18.8333033,5.52071277 18.974635,5.66204447 18.974635,5.83653723 C18.974635,6.01103 18.8333033,6.1523617 18.6588105,6.1523617 L18.6588085,6.1523617 Z" id="Fill-8"></path>
                <path d="M11.7614043,7.01524468 C11.6350745,7.01524468 11.5166479,6.93944681 11.4676926,6.81469564 C11.4037373,6.65204553 11.4834828,6.46887543 11.6461329,6.40571053 L13.7638244,5.57429883 L13.7638244,2.7825116 L11.6643244,2.10348394 C11.498517,2.04979479 11.406935,1.87136053 11.4606201,1.705535 C11.5143052,1.53970947 11.6919552,1.44893394 11.858569,1.50183074 L14.1767712,2.25190628 C14.3070485,2.29375277 14.3954733,2.41455638 14.3954733,2.55194457 L14.3954733,5.78922117 C14.3954733,5.91870819 14.3157279,6.03557436 14.1949243,6.08293287 L11.8767221,6.99329564 C11.8388232,7.00829755 11.8001339,7.01540436 11.7614467,7.01540436 L11.7614043,7.01524468 Z" id="Fill-9"></path>
            </g>
        </g>
    </g>
</svg>