<?xml version="1.0" encoding="UTF-8"?>
<svg width="8px" height="20px" viewBox="0 0 8 20" version="1.1" xmlns="http://www.w3.org/2000/svg" xmlns:xlink="http://www.w3.org/1999/xlink">
    <!-- Generator: Sketch 55.2 (78181) - https://sketchapp.com -->
    <title>Heating</title>
    <desc>Created with Sketch.</desc>
    <g id="Listing-Page" stroke="none" stroke-width="1" fill="none" fill-rule="evenodd">
        <g id="7.2" transform="translate(-403.000000, -578.000000)" fill="#000000">
            <g id="Heating" transform="translate(403.000000, 578.000000)">
                <path d="M6.382,12.9881188 L6.382,2.47069307 C6.382,1.10853465 5.26246,0 3.8866,0 C2.51074,0 1.3912,1.10845545 1.3912,2.47069307 L1.3912,13.1768317 C0.62948,13.8706733 0.1787,14.8406535 0.14666,15.8679208 C0.11541,16.8750297 0.49276,17.8442574 1.20838,18.5952473 C1.92322,19.3447919 2.87556,19.7733068 3.89038,19.8011483 C3.927098,19.8019218 3.963818,19.8026953 4.000536,19.8026953 C5.010696,19.8026953 5.960696,19.4213487 6.687336,18.7221012 C7.439676,17.9973091 7.854516,17.0257842 7.854516,15.9862594 C7.854516,14.8151505 7.307636,13.7098238 6.381856,12.9880416 L6.382,12.9881188 Z M6.13044,18.1544547 C5.53434,18.7283954 4.7445,19.031623 3.91324,19.0091875 C3.11246,18.9875281 2.35856,18.6471875 1.79064,18.0515836 C1.22188,17.4544356 0.92188,16.6878812 0.9461,15.8919802 C0.972662,15.0287327 1.37422,14.2149901 2.04688,13.660297 C2.138286,13.5844931 2.19063,13.4738792 2.19063,13.356297 L2.19063,2.47055446 C2.19063,1.54465347 2.95157,0.791247525 3.88673,0.791247525 C4.82189,0.791247525 5.58283,1.54465347 5.58283,2.47055446 L5.58283,13.186 C5.58283,13.3151762 5.646112,13.4358416 5.752362,13.510099 C6.567982,14.0770891 7.05470339,15.0029901 7.05470339,15.9853465 C7.055484,16.8091485 6.726582,17.5795644 6.130482,18.1542566 L6.13044,18.1544547 Z" id="Fill-1"></path>
                <path d="M5.293,14.1584158 L4.78362,13.8041386 L4.78362,7.85423762 C4.78362,7.63609901 4.604714,7.4589703 4.3844,7.4589703 L3.38986,7.4589703 C3.16954,7.4589703 2.99064,7.63610495 2.99064,7.85423762 L2.99064,13.9124554 L2.5586,14.2690495 C2.06172,14.6790099 1.76564,15.2800396 1.7461,15.9166337 C1.728132,16.5006337 1.95078,17.0660792 2.37344,17.5085347 C2.79454,17.9502176 3.35,18.2031483 3.9422,18.2193859 L4.002356,18.2201596 C4.604696,18.2201596 5.171116,17.9881002 5.596896,17.5657644 C6.023456,17.1434277 6.257836,16.5826356 6.257836,15.9862396 C6.256274,15.2606752 5.896896,14.5776653 5.292996,14.1584178 L5.293,14.1584158 Z" id="Fill-2"></path>
                <path d="M3.389,6.28712871 L4.38354,6.28712871 C4.60464,6.28712871 4.78276,6.10999406 4.78276,5.89186139 C4.78276,5.67372277 4.603854,5.49659406 4.38354,5.49659406 L3.389,5.49659406 C3.16868,5.49659406 2.98978,5.67372871 2.98978,5.89186139 C2.98978,6.11 3.168686,6.28712871 3.389,6.28712871 Z" id="Fill-3"></path>
                <path d="M3.389,4.32475248 L4.38354,4.32475248 C4.60464,4.32475248 4.78276,4.14761782 4.78276,3.92948515 C4.78276,3.71135248 4.603854,3.53421782 4.38354,3.53421782 L3.389,3.53421782 C3.16868,3.53421782 2.98978,3.71135248 2.98978,3.92948515 C2.98978,4.14685149 3.168686,4.32475248 3.389,4.32475248 Z" id="Fill-4"></path>
            </g>
        </g>
    </g>
</svg>