<?xml version="1.0" encoding="UTF-8"?>
<svg width="18px" height="12px" viewBox="0 0 18 12" version="1.1" xmlns="http://www.w3.org/2000/svg" xmlns:xlink="http://www.w3.org/1999/xlink">
    <!-- Generator: Sketch 55.2 (78181) - https://sketchapp.com -->
    <title>Iron</title>
    <desc>Created with Sketch.</desc>
    <g id="Listing-Page" stroke="none" stroke-width="1" fill="none" fill-rule="evenodd">
        <g id="7.2" transform="translate(-395.000000, -1059.000000)" fill="#000000">
            <g id="Iron" transform="translate(395.000000, 1059.000000)">
                <path d="M17.5286374,0.0523278689 C17.2844703,-0.0690865574 16.9869956,0.0292740984 16.8649121,0.272104918 L16.0126615,1.9672918 L9.8352989,1.9672918 C6.63030989,1.9672918 3.74892527,3.73855082 2.31644176,6.58866885 L0.052595011,11.0918164 C-0.0238990549,11.2439685 -0.0161729011,11.425318 0.0742306154,11.5705574 C0.163858747,11.7150256 0.32302622,11.8033967 0.494560286,11.8033967 L13.3517037,11.8033967 C13.6252246,11.8033967 13.8462092,11.5836197 13.8462092,11.3115934 L13.8462092,9.64945574 C14.9217587,9.12922623 16.1108466,8.85257705 17.3077477,8.85257705 C17.4530097,8.85257705 17.5913169,8.78879607 17.6847982,8.67890951 C17.7790629,8.56825377 17.8192424,8.42301443 17.7952886,8.28009639 L16.8325457,2.53603082 L17.7496952,0.71175541 C17.8725481,0.468922623 17.7728756,0.173840656 17.5287105,0.0524242623 L17.5286374,0.0523278689 Z M12.8571429,10.8196721 L1.29501099,10.8196721 L1.78951648,9.83606557 L12.8571429,9.83606557 L12.8571429,10.8196721 Z M13.2303363,8.85245902 L2.28396264,8.85245902 L3.20111209,7.02895082 C4.46518681,4.51308197 7.00722198,2.95091803 9.8352,2.95091803 L15.8998154,2.95091803 L16.7273407,7.88822951 C15.5104022,7.96814754 14.3143516,8.29703607 13.2301978,8.85261639 L13.2303363,8.85245902 Z" id="Fill-1"></path>
                <path d="M12.3626374,3.93442623 L9.3956044,3.93442623 C8.57735604,3.93442623 7.91208791,4.59605902 7.91208791,5.40983607 C7.91208791,6.22361311 8.57735604,6.8852459 9.3956044,6.8852459 L12.3626374,6.8852459 C13.1808857,6.8852459 13.8461538,6.22361311 13.8461538,5.40983607 C13.8461538,4.59605902 13.1808857,3.93442623 12.3626374,3.93442623 Z M12.3626374,5.90163934 L9.3956044,5.90163934 C9.12285495,5.90163934 8.9010989,5.68109508 8.9010989,5.40983607 C8.9010989,5.13857705 9.12285495,4.91803279 9.3956044,4.91803279 L12.3626374,4.91803279 C12.6353868,4.91803279 12.8571429,5.13857705 12.8571429,5.40983607 C12.8571429,5.68109508 12.6353868,5.90163934 12.3626374,5.90163934 Z" id="Fill-2"></path>
            </g>
        </g>
    </g>
</svg>