<?xml version="1.0" encoding="UTF-8"?>
<svg width="18px" height="25px" viewBox="0 0 18 25" version="1.1" xmlns="http://www.w3.org/2000/svg" xmlns:xlink="http://www.w3.org/1999/xlink">
    <!-- Generator: Sketch 55.2 (78181) - https://sketchapp.com -->
    <title>Washing Machine</title>
    <desc>Created with Sketch.</desc>
    <g id="Listing-Page" stroke="none" stroke-width="1" fill="none" fill-rule="evenodd">
        <g id="7.1" transform="translate(-25.000000, -2739.000000)" fill="#000000" fill-rule="nonzero">
            <g id="Washing-Machine" transform="translate(25.000000, 2739.000000)">
                <path d="M3.2694,4.76190476 C3.2694,5.40946429 2.29089,5.40946429 2.29089,4.76190476 C2.29089,4.11434524 3.2694,4.11434524 3.2694,4.76190476" id="Shape"></path>
                <path d="M12.1194,4.76190476 C12.1194,5.40946429 11.14089,5.40946429 11.14089,4.76190476 C11.14089,4.11434524 12.1194,4.11434524 12.1194,4.76190476" id="Shape"></path>
                <path d="M13.9149,4.76190476 C13.9149,5.40946429 12.93522,5.40946429 12.93522,4.76190476 C12.93522,4.11434524 13.9149,4.11434524 13.9149,4.76190476" id="Shape"></path>
                <path d="M15.7089,4.76190476 C15.7089,5.40946429 14.73039,5.40946429 14.73039,4.76190476 C14.73039,4.11434524 15.7089,4.11434524 15.7089,4.76190476" id="Shape"></path>
                <path d="M17.5113,2.51458333 L0.4887,2.51458333 C0.240264,2.51458333 0.0387,2.71454762 0.0387,2.9610119 L0.0387,22.8723214 C0.0387,23.1187887 0.240264,23.31875 0.4887,23.31875 L1.58556,23.31875 L1.58556,24.4045833 C1.58556,24.6510476 1.787124,24.8510119 2.03556,24.8510119 C2.283996,24.8510119 2.48556,24.6510476 2.48556,24.4045833 L2.48556,23.3175893 L15.51336,23.3175893 L15.5145318,24.4045833 C15.5145318,24.6510476 15.7160958,24.8510119 15.9645318,24.8510119 C16.2129678,24.8510119 16.4145318,24.6510476 16.4145318,24.4045833 L16.4145318,23.3175893 L17.5113918,23.3175893 C17.7598278,23.3175893 17.9613918,23.117625 17.9613918,22.8711607 L17.9613918,2.96104167 C17.9613918,2.71341369 17.7598278,2.51458333 17.5113918,2.51458333 L17.5113,2.51458333 Z M0.9387,3.40744048 L17.0601,3.40744048 L17.0601,6.11741071 L0.9387,6.11624792 L0.9387,3.40744048 Z M17.0613,22.4247024 L0.9387,22.4247024 L0.9387,7.00892857 L17.0601,7.00892857 L17.0613,22.4247024 Z" id="Shape"></path>
                <path d="M0.4887,1.04166667 L17.5101,1.04166667 C17.758536,1.04166667 17.9601,0.841702381 17.9601,0.595238095 C17.9601,0.34877381 17.758536,0.148809524 17.5101,0.148809524 L0.4887,0.148809524 C0.240264,0.148809524 0.0387,0.34877381 0.0387,0.595238095 C0.0387,0.841702381 0.240264,1.04166667 0.4887,1.04166667 Z" id="Shape"></path>
                <path d="M9,20.0428571 C11.96016,20.0428571 14.3685,17.6537798 14.3685,14.7169643 C14.3685,11.7814583 11.96031,9.3922619 9,9.3922619 C6.03969,9.3922619 3.6315,11.7813393 3.6315,14.7169643 C3.6315,17.653631 6.03969,20.0428571 9,20.0428571 Z M9,19.15 C6.54258,19.15 4.5423,17.1701488 4.5327,14.7333333 C4.740123,14.7984375 4.89129,14.9181815 5.07528,15.0646726 C5.40105,15.3250893 5.80653,15.6494345 6.57177,15.6494345 C7.33818,15.6494345 7.74246,15.3250893 8.06826,15.0646726 C8.34951,14.8402946 8.55108,14.6775298 8.99991,14.6775298 C9.44757,14.6775298 9.65148,14.8402917 9.93156,15.0646726 C10.25733,15.3250893 10.66281,15.6494345 11.42805,15.6494345 C12.19329,15.6494345 12.59874,15.3250893 12.92454,15.0646726 C13.108524,14.9181875 13.2597,14.7984435 13.46712,14.7333333 C13.457745,17.1700893 11.45736,19.15 8.99982,19.15 L9,19.15 Z M9,10.2854167 C11.15859,10.2854167 12.9645,11.8130357 13.3782,13.8348214 C12.90828,13.9348036 12.60945,14.1708036 12.35985,14.3696131 C12.0786,14.5939911 11.87703,14.756756 11.4282,14.756756 C10.98054,14.756756 10.77663,14.593994 10.49655,14.3696131 C10.17078,14.1091964 9.7653,13.7848512 9.00006,13.7848512 C8.23482,13.7848512 7.82937,14.1091964 7.50357,14.3696131 C7.22232,14.5939911 7.02075,14.756756 6.57192,14.756756 C6.12426,14.756756 5.92152,14.593994 5.64027,14.3696131 C5.390661,14.1696488 5.09184,13.9336607 4.62192,13.8336607 C5.03559,11.8119345 6.84144,10.2854167 9.00012,10.2854167 L9,10.2854167 Z" id="Shape"></path>
            </g>
        </g>
    </g>
</svg>