<?xml version="1.0" encoding="UTF-8"?>
<svg width="20px" height="20px" viewBox="0 0 20 20" version="1.1" xmlns="http://www.w3.org/2000/svg" xmlns:xlink="http://www.w3.org/1999/xlink">
    <!-- Generator: Sketch 55.2 (78181) - https://sketchapp.com -->
    <title>Luxuty Toiletries</title>
    <desc>Created with Sketch.</desc>
    <g id="Listing-Page" stroke="none" stroke-width="1" fill="none" fill-rule="evenodd">
        <g id="7.2" transform="translate(-395.000000, -1168.000000)" fill="#000000">
            <g id="Luxuty-Toiletries" transform="translate(395.000000, 1168.000000)">
                <path d="M8.98594059,9.5312 L8.91787129,9.565576 C6.9500495,10.591356 5.56856436,12.605376 5.56856436,14.924176 L6.18737624,14.924176 C6.18737624,12.877376 7.4010198,11.092976 9.15074257,10.156176 L12.5008416,10.156176 C14.251297,11.092896 15.4695545,12.877976 15.4695545,14.924176 C15.4695545,16.797616 14.4307228,18.5069754 12.7861881,19.3749754 L10.829198,19.3749754 L10.829198,19.9999754 L12.9539505,19.9999754 L13.0189248,19.9655994 C14.8993406,19.0015394 16.0890238,17.0524 16.0890238,14.9242 C16.0890238,12.6046 14.7013406,10.5914 12.7335782,9.5656 L12.6670554,9.5312 L8.98594059,9.5312 Z" id="Fill-1"></path>
                <path d="M9.95287129,5.4688 C9.61485149,5.4688 9.33405941,5.7524 9.33405941,6.0938 L9.33405941,8.9062 L9.95287129,8.9062 L9.95287129,6.0938 L13.820396,6.0938 L13.820396,6.56256 L10.5716832,6.56256 L10.5716832,7.18756 L13.820396,7.18756 C14.1584158,7.18756 14.4392079,6.90396 14.4392079,6.56256 L14.4392079,6.0938 C14.4392079,5.7524 14.1584158,5.4688 13.820396,5.4688 L9.95287129,5.4688 Z" id="Fill-2"></path>
                <polygon id="Fill-3" points="11.8093069 8.9062 12.4281188 8.9062 12.4281188 6.875 11.8093069 6.875"></polygon>
                <polygon id="Fill-4" points="6.24 13.125 15.5221782 13.125 15.5221782 12.5 6.24 12.5"></polygon>
                <path d="M9.33405941,8.4376 C9.16311287,8.4376 9.02465347,8.577444 9.02465347,8.7501 L9.02465347,9.84386 L9.64346535,9.84386 L9.64346535,9.06262 L12.1187129,9.06262 L12.1187129,9.84386 L12.7375248,9.84386 L12.7375248,8.7501 C12.7375248,8.577444 12.5990653,8.4376 12.4281188,8.4376 L9.33405941,8.4376 Z" id="Fill-5"></path>
                <path d="M4.95049505,15.3124 C4.0779802,15.3124 3.40346535,16.10302 3.40346535,17.03116 L3.40346535,18.2811592 C3.40346535,19.2092792 4.0779604,19.9999191 4.95049505,19.9999191 L8.97267327,19.9999191 C9.84518812,19.9999191 10.519703,19.2092992 10.519703,18.2811592 L10.519703,17.03116 C10.519703,16.10304 9.84520792,15.3124 8.97267327,15.3124 L4.95049505,15.3124 Z M4.95049505,15.9374 L8.97267327,15.9374 C9.47158416,15.9374 9.90089109,16.40146 9.90089109,17.03116 L9.90089109,18.2811594 C9.90089109,18.9108394 9.47158416,19.3749194 8.97267327,19.3749194 L4.95049505,19.3749194 C4.45158416,19.3749194 4.02227723,18.9108592 4.02227723,18.2811594 L4.02227723,17.03116 C4.02227723,16.40148 4.45158416,15.9374 4.95049505,15.9374 Z" id="Fill-6"></path>
                <path d="M0.618811881,3.75 C0.281564356,3.75 0,4.03438 0,4.375 L0,9.0626 C0,9.40322 0.281564356,9.6876 0.618811881,9.6876 L1.5470297,9.6876 C1.88427723,9.6876 2.16584158,9.40322 2.16584158,9.0626 L2.16584158,4.375 C2.16584158,4.03438 1.88427723,3.75 1.5470297,3.75 L0.618811881,3.75 Z M0.618811881,4.375 L1.5470297,4.375 L1.5470297,9.0626 L0.618811881,9.0626 L0.618811881,4.375 Z" id="Fill-7"></path>
                <polygon id="Fill-8" points="0 20 0.618811881 20 0.618811881 9.0624 0 9.0624"></polygon>
                <polygon id="Fill-9" points="1.23762376 20 1.85643564 20 1.85643564 10.1562 1.23762376 10.1562"></polygon>
                <polygon id="Fill-10" points="1.85643564 4.6874 3.50479208 4.6874 3.50479208 4.0624 1.85643564 4.0624"></polygon>
                <polygon id="Fill-11" points="1.85643564 9.0626 3.55817822 9.0626 3.55817822 8.4376 1.85643564 8.4376"></polygon>
                <polygon id="Fill-12" points="2.47524752 5.7812 3.55817822 5.7812 3.55817822 5.1562 2.47524752 5.1562"></polygon>
                <polygon id="Fill-13" points="2.47524752 6.875 3.55817822 6.875 3.55817822 6.25 2.47524752 6.25"></polygon>
                <polygon id="Fill-14" points="2.47524752 7.9688 3.55817822 7.9688 3.55817822 7.3438 2.47524752 7.3438"></polygon>
                <path d="M2.78455446,3.125 C2.66465941,3.125 2.55637624,3.194532 2.50530693,3.303906 C2.45425545,3.413282 2.47049901,3.542966 2.54630297,3.635946 L2.75206535,3.885166 C3.07307525,4.274226 3.24865941,4.764846 3.24865941,5.270326 L3.24865941,8.124326 C3.24865941,8.983706 3.94481782,9.686826 4.79568911,9.686826 L6.03331287,9.687608 C6.14624554,9.687608 6.24990693,9.62589 6.30404554,9.52589 C6.35896436,9.426672 6.35509703,9.30479 6.29553663,9.20871 L5.99232871,8.71809 C5.71541782,8.27121 5.5692198,7.75481 5.5692198,7.22747 L5.5692198,4.68687 C5.5692198,3.82749 4.87306139,3.12437 4.0221901,3.12437 L2.78455446,3.125 Z M3.37706139,3.75 L4.02217822,3.75 C4.53811881,3.75 4.95039604,4.16562 4.95039604,4.6875 L4.95039604,7.2281 C4.95039604,7.87264 5.12985149,8.50466 5.46788119,9.05076 L5.47561584,9.062478 L4.79569505,9.061698 C4.27898218,9.061698 3.86747723,8.646078 3.86747723,8.124198 L3.86747723,5.270198 C3.86747723,4.720978 3.67409901,4.203798 3.37706139,3.749098 L3.37706139,3.75 Z" id="Fill-15"></path>
                <path d="M18.2550495,1.5625 C17.4041782,1.5625 16.7080198,2.26562 16.7080198,3.125 C16.7080198,3.98438 17.4041782,4.6875 18.2550495,4.6875 C19.1059208,4.6875 19.8020792,3.98438 19.8020792,3.125 C19.8020792,2.26562 19.1059208,1.5625 18.2550495,1.5625 Z M18.2550495,2.1875 C18.7717624,2.1875 19.1832673,2.60312 19.1832673,3.125 C19.1832673,3.6461 18.7717624,4.0625 18.2550495,4.0625 C17.7391089,4.0625 17.3268317,3.6461 17.3268317,3.125 C17.3268317,2.6039 17.7391089,2.1875 18.2550495,2.1875 Z" id="Fill-16"></path>
                <path d="M16.0891089,4.2188 C15.4950495,4.2188 15.0061782,4.71256 15.0061782,5.31256 C15.0061782,5.91256 15.4950495,6.40632 16.0891089,6.40632 C16.6831683,6.40632 17.1720396,5.91256 17.1720396,5.31256 C17.1720396,4.71256 16.6831683,4.2188 16.0891089,4.2188 Z M16.0891089,4.8438 C16.3490099,4.8438 16.5532277,5.05004 16.5532277,5.31256 C16.5532277,5.57508 16.3490297,5.78132 16.0891089,5.78132 C15.8291881,5.78132 15.6249901,5.57508 15.6249901,5.31256 C15.6249901,5.05004 15.8291881,4.8438 16.0891089,4.8438 Z" id="Fill-17"></path>
                <path d="M15.3156436,0 C14.6357228,0 14.0780198,0.56328 14.0780198,1.25 C14.0780198,1.93672 14.6357228,2.5 15.3156436,2.5 C15.9955644,2.5 16.5532673,1.93672 16.5532673,1.25 C16.5532673,0.56328 15.9955644,0 15.3156436,0 Z M15.3156436,0.625 C15.6614059,0.625 15.9344554,0.90078 15.9344554,1.25 C15.9344554,1.59922 15.6614059,1.875 15.3156436,1.875 C14.9698812,1.875 14.6968317,1.59922 14.6968317,1.25 C14.6968317,0.90078 14.9698812,0.625 15.3156436,0.625 Z" id="Fill-18"></path>
            </g>
        </g>
    </g>
</svg>