<?xml version="1.0" encoding="UTF-8"?>
<svg width="100px" height="91px" viewBox="0 0 100 91" version="1.1" xmlns="http://www.w3.org/2000/svg" xmlns:xlink="http://www.w3.org/1999/xlink">
    <!-- Generator: Sketch 55.2 (78181) - https://sketchapp.com -->
    <title>Microwave</title>
    <desc>Created with Sketch.</desc>
    <g id="Microwave" stroke="none" stroke-width="1" fill="none" fill-rule="evenodd">
        <g id="Group-6" transform="translate(1.000000, 9.000000)" fill="#000000">
            <path d="M95.457,0.793 L2.542999,0.793 C1.292999,0.793 0.460999,1.62503 0.460999,2.875 L0.460999,62.875 C0.460999,64.125 1.293029,64.957 2.542999,64.957 L8.374999,64.957 L8.374999,69.332 C8.374999,70.582 9.20703,71.414 10.457,71.414 L23.164,71.414 C24.414,71.414 25.246,70.58197 25.246,69.332 L25.246,64.957 L72.328,64.957 L72.328,69.332 C72.328,70.582 73.16003,71.414 74.41,71.414 L87.117,71.414 C88.367,71.414 89.199,70.58197 89.199,69.332 L89.199,64.957 L95.031,64.957 C96.281,64.957 97.113,64.12497 97.113,62.875 L97.12472,2.875 C97.54269,1.625 96.49972,0.793 95.45672,0.793 L95.457,0.793 Z M21.293,67.043 L12.75,67.043 L12.75,64.75 L21.293,64.75 L21.293,67.043 Z M85.25,67.043 L76.707,67.043 L76.707,64.75 L85.25,64.75 L85.25,67.043 Z M93.375,60.5821 L4.625,60.5821 L4.625,4.9571 L93.375,4.9571 L93.375,60.5821 Z" id="Fill-1"></path>
            <path d="M11.918,54.332 L67.961,54.332 C69.211,54.332 70.043,53.49997 70.043,52.25 L70.043,13.293 C70.043,12.043 69.21097,11.211 67.961,11.211 L11.918,11.20709 C10.668,11.20709 9.83598904,12.03912 9.83598904,13.28909 L9.83598904,52.24609 C9.83209,53.49999 10.8751,54.332 11.918,54.332 L11.918,54.332 Z M14,15.375 L65.875,15.375 L65.875,41.832 L42.332,41.832 C41.082,41.832 40.25,42.66403 40.25,43.914 C40.25,45.16397 41.08203,45.996 42.332,45.996 L66.082,45.996 L66.082,50.164 L14,50.16791 L14,15.375 Z" id="Fill-2"></path>
            <path d="M81.5,28.293 C85.25,28.293 88.168,25.375 88.168,21.625 C88.168,17.875 85.25,14.957 81.5,14.957 C77.75,14.957 74.832,17.875 74.832,21.625 C74.832,25.375 77.75,28.293 81.5,28.293 Z M81.5,19.125 C82.957,19.125 84,20.168 84,21.625 C84,23.082 82.957,24.125 81.5,24.125 C80.043,24.125 79,23.082 79,21.625 C79,20.375 80.043,19.125 81.5,19.125 Z" id="Fill-3"></path>
            <path d="M81.5,50.582 C85.25,50.582 88.168,47.664 88.168,43.914 C88.168,40.164 85.25,37.246 81.5,37.246 C77.75,37.246 74.832,40.164 74.832,43.914 C74.832,47.6679 77.75,50.582 81.5,50.582 Z M81.5,41.4179 C82.957,41.4179 84,42.4609 84,43.9179 C84,45.3749 82.957,46.4179 81.5,46.4179 C80.043,46.4179 79,45.3749 79,43.9179 C79,42.457 80.043,41.4179 81.5,41.4179 Z" id="Fill-4"></path>
            <path d="M36.707,41.832 L33.789,41.832 C32.539,41.832 31.707,42.66403 31.707,43.914 C31.707,45.16397 32.53903,45.996 33.789,45.996 L36.707,45.996 C37.957,45.996 38.789011,45.16397 38.789011,43.914 C38.79291,42.8749 37.7499,41.832 36.707,41.832 Z" id="Fill-5"></path>
        </g>
    </g>
</svg>