<?xml version="1.0" encoding="UTF-8"?>
<svg width="19px" height="19px" viewBox="0 0 19 19" version="1.1" xmlns="http://www.w3.org/2000/svg" xmlns:xlink="http://www.w3.org/1999/xlink">
    <!-- Generator: Sketch 55.2 (78181) - https://sketchapp.com -->
    <title>Mini Bar</title>
    <desc>Created with Sketch.</desc>
    <g id="Listing-Page" stroke="none" stroke-width="1" fill="none" fill-rule="evenodd">
        <g id="7.2" transform="translate(-396.000000, -970.000000)" fill="#000000">
            <g id="Mini-Bar" transform="translate(396.000000, 970.000000)">
                <path d="M18.6588085,17.0797872 L18.0271596,17.0797872 L18.0271596,6.97340426 C18.0271596,6.88971128 17.9939985,6.80917553 17.9347812,6.74995213 C17.8755638,6.69072872 17.7950281,6.65757372 17.711329,6.65757372 L15.8163822,6.65757372 L15.8163822,4.13097798 L16.1322067,4.13097798 C16.2158997,4.13097798 16.2964354,4.09781691 16.3556588,4.03859957 C16.4148822,3.97938223 16.4480372,3.89884649 16.4480372,3.81514745 L16.4480372,2.23602511 C16.4480372,2.15233213 16.4148762,2.07179638 16.3556588,2.01257298 C16.2964415,1.95334957 16.2159057,1.92019457 16.1322067,1.92019457 L12.973962,1.92019457 C12.7994693,1.92019457 12.6581376,2.06152628 12.6581376,2.23601904 L12.6581376,3.81514138 C12.6581376,3.89883436 12.6912986,3.97937011 12.750516,4.03859351 C12.8097333,4.09781691 12.890269,4.13097191 12.9739681,4.13097191 L13.2897926,4.13097191 L13.2897926,6.65756766 L11.3948457,6.65756766 C11.220353,6.65756766 11.0790213,6.79889936 11.0790213,6.97339213 L11.0790213,17.0797751 L10.1315479,17.0797751 L10.7631968,12.0645836 C10.7742491,11.9753624 10.7466163,11.8861433 10.6873989,11.8182304 C10.626603,11.7495394 10.5389604,11.7100598 10.4473723,11.7108501 L10.1315479,11.7108501 L10.1315479,8.36624372 C10.1110198,7.65879691 9.57175532,7.0737384 8.86825,6.99557564 L8.86825,2.86772457 C8.86825,2.7840316 8.83508894,2.70349585 8.7758716,2.64427245 C8.71665426,2.58504904 8.63611851,2.55189404 8.55241947,2.55189404 L6.97329713,2.55189404 C6.79880436,2.55189404 6.65747266,2.69322574 6.65747266,2.86771851 L6.65747266,6.99556957 C6.43165564,7.02478309 6.2153184,7.10610915 6.02582372,7.23244298 L6.02582372,6.97347702 C6.02582372,6.22261319 5.49760351,5.57594617 4.76252585,5.42594723 L4.76252585,0.34122383 C4.76252585,0.257530851 4.72936479,0.176995106 4.67014745,0.117771702 C4.61093011,0.0585482979 4.53039436,0.0253932979 4.44669532,0.0253932979 L2.55174851,0.0253932979 C2.37725574,0.0253932979 2.23592404,0.166725 2.23592404,0.341217766 L2.23592404,5.42594117 C1.50084638,5.5759583 0.972625362,6.22260713 0.972625362,6.97347096 L0.972625362,17.0798539 L0.340976426,17.0798539 C0.16648366,17.0798539 0.0251519574,17.2211856 0.0251519574,17.3956784 L0.0251519574,18.6589761 C0.0251519574,18.7426691 0.0583130213,18.8232048 0.117530362,18.8824282 C0.176747702,18.9416516 0.257283649,18.9748066 0.340982489,18.9748066 L18.6588024,18.9748066 C18.7424954,18.9748066 18.8230312,18.9416455 18.8822546,18.8824282 C18.941478,18.8232109 18.974633,18.7426751 18.974633,18.6589761 L18.974633,17.3956784 C18.974633,17.3119854 18.9414719,17.2314497 18.8822546,17.1722263 C18.8230372,17.1130029 18.7425015,17.0798479 18.6588024,17.0798479 L18.6588085,17.0797872 Z M13.2898936,2.5518617 L15.8164894,2.5518617 L15.8164894,3.49933511 L13.2898936,3.49933511 L13.2898936,2.5518617 Z M13.9215426,4.13098404 L15.1848404,4.13098404 L15.1848404,6.65757979 L13.9215426,6.65757979 L13.9215426,4.13098404 Z M11.7106702,7.28922872 L17.3955106,7.28922872 L17.3955106,17.0798883 L11.7106702,17.0798883 L11.7106702,7.28922872 Z M6.02582979,9.18417553 L7.01435532,9.18417553 C7.51573298,9.18575415 7.9207766,9.59237234 7.9207766,10.09375 L7.9207766,11.7107713 L6.02582979,11.7107713 L6.02582979,9.18417553 Z M5.43523298,12.3424202 L10.0904351,12.3424202 L9.4998383,17.0798883 L6.02566809,17.0798883 L5.43523298,12.3424202 Z M7.28912766,4.44690957 L8.23660106,4.44690957 L8.23660106,6.97350532 L7.28912766,6.97350532 L7.28912766,4.44690957 Z M8.23660106,3.1836117 L8.23660106,3.81526064 L7.28912766,3.81526064 L7.28912766,3.1836117 L8.23660106,3.1836117 Z M6.88171915,7.60515426 L8.64402979,7.60515426 C9.08933723,7.58146691 9.4715,7.92097872 9.49991915,8.36628617 L9.49991915,11.7108926 L8.55244574,11.7108926 L8.55244574,10.0938713 C8.55244574,9.24430851 7.86395851,8.55422447 7.01437553,8.55264787 L6.02585,8.55264787 L6.02585,8.36631043 C6.05427319,7.92100298 6.4364117,7.58148915 6.88173936,7.60517851 L6.88171915,7.60515426 Z M2.86766596,1.92031383 L4.13096383,1.92031383 L4.13096383,5.39448404 L2.86766596,5.39448404 L2.86766596,1.92031383 Z M4.13096383,0.657015957 L4.13096383,1.28866489 L2.86766596,1.28866489 L2.86766596,0.657015957 L4.13096383,0.657015957 Z M1.60436809,7.60515426 L3.49931489,7.60515426 L3.49931489,15.8165904 L1.60436809,15.8165904 L1.60436809,7.60515426 Z M1.60436809,16.4482394 L3.81524043,16.4482394 C3.8989334,16.4482394 3.97946915,16.4150783 4.03869255,16.355861 C4.09791596,16.2966436 4.13107096,16.2161079 4.13107096,16.1324088 L4.13107096,7.28932372 C4.13107096,7.20563074 4.09790989,7.125095 4.03869255,7.0658716 C3.97947521,7.00664819 3.89893947,6.97349319 3.81524043,6.97349319 L1.60436809,6.97349319 C1.60436809,6.45002298 2.02837128,6.02601979 2.55184149,6.02601979 L4.4467883,6.02601979 C4.97025851,6.02601979 5.3942617,6.45002298 5.3942617,6.97349319 L5.3942617,11.7109613 L5.07843723,11.7109613 C4.98763745,11.7109613 4.90157553,11.7504388 4.84156383,11.8183416 C4.78234649,11.8862444 4.7547116,11.9754635 4.76576596,12.0646948 L5.3942617,17.0798863 L1.60436809,17.0798863 L1.60436809,16.4482394 Z M18.3429618,18.3431862 L0.656792202,18.3431862 L0.656792202,17.7115372 L18.3429618,17.7115372 L18.3429618,18.3431862 Z" id="Fill-1"></path>
                <path d="M9.1842766,14.8689149 C9.10295255,14.8468062 9.01610032,14.8578605 8.9434617,14.899707 C8.87003277,14.9423438 8.81713191,15.0118252 8.79581351,15.0931493 L8.69790691,15.4689854 C8.56841989,15.8700876 8.18943457,16.137745 7.76779628,16.125112 C7.34696649,16.1132673 6.9845516,15.8234971 6.87875798,15.4153003 L6.3923984,12.9044705 C6.35923734,12.7299778 6.19106106,12.6154886 6.01656223,12.6486578 C5.8420634,12.6818269 5.72758032,12.8499951 5.76074947,13.0244939 L6.24395585,15.5510897 C6.40660596,16.2482684 7.01772074,16.7496461 7.73307074,16.7717588 C8.44842074,16.7938676 9.08952926,16.3319695 9.29483032,15.6458471 L9.39589415,15.2731641 C9.42352904,15.1918401 9.41642223,15.1018286 9.37615436,15.0260227 C9.33667681,14.9494345 9.26719543,14.8925861 9.18429074,14.8689007 L9.1842766,14.8689149 Z" id="Fill-2"></path>
                <path d="M16.7640638,8.23669606 L12.3425213,8.23669606 C12.1680285,8.23669606 12.0266968,8.37803383 12.0266968,8.5525266 L12.0266968,13.9214415 C12.0266968,14.0051345 12.0598579,14.0856702 12.1190752,14.1448936 C12.1782926,14.204117 12.2588283,14.237272 12.3425273,14.237272 L16.7640699,14.237272 C16.8477629,14.237272 16.9282986,14.204111 16.987522,14.1448936 C17.0467454,14.0856763 17.0799004,14.0051405 17.0799004,13.9214415 L17.0799004,8.5525266 C17.0799004,8.46883362 17.0467394,8.38829787 16.987522,8.32907447 C16.9283047,8.26985106 16.8477689,8.23669606 16.7640699,8.23669606 L16.7640638,8.23669606 Z M16.4482394,13.605617 L12.6583457,13.605617 L12.6583457,8.86814894 L16.4482394,8.86814894 L16.4482394,13.605617 Z" id="Fill-3"></path>
            </g>
        </g>
    </g>
</svg>