<?xml version="1.0" encoding="UTF-8"?>
<svg width="22px" height="22px" viewBox="0 0 22 22" version="1.1" xmlns="http://www.w3.org/2000/svg" xmlns:xlink="http://www.w3.org/1999/xlink">
    <!-- Generator: Sketch 55.2 (78181) - https://sketchapp.com -->
    <title>Monthly Cleaning</title>
    <desc>Created with Sketch.</desc>
    <g id="Listing-Page" stroke="none" stroke-width="1" fill="none" fill-rule="evenodd">
        <g id="7.1" transform="translate(-23.000000, -3200.000000)" fill="#000000" fill-rule="nonzero">
            <g id="Monthly-Cleaning" transform="translate(23.000000, 3200.000000)">
                <path d="M11.9528444,10.2666667 L0.733333333,10.2666667 C0.317973333,10.2666667 0,10.58464 0,11 C0,11.41536 0.317973333,11.7333333 0.733333333,11.7333333 L1.17352889,11.7333333 L1.58888889,18.3582667 C1.61371467,20.3625156 3.22647111,22 5.25555556,22 L7.45555556,22 C9.45980444,22 11.0972889,20.3624178 11.1222222,18.3582667 L11.4888889,11.7333333 L11.9290844,11.7333333 C12.3444444,11.7333333 12.6624178,11.41536 12.6624178,11 C12.6862895,10.58464 12.3444444,10.2666667 11.9529667,10.2666667 L11.9528444,10.2666667 Z M9.63062222,18.2846889 L9.63062222,18.3333871 C9.63062222,19.5556093 8.65284444,20.5333871 7.43062222,20.5333871 L5.23062222,20.5333871 C4.03323556,20.5333871 3.03062222,19.5556093 3.03062222,18.3333871 L2.61526222,11.7333871 L10.0221733,11.7333871 L9.63062222,18.2846889 Z" id="Shape"></path>
                <path d="M2.0042,9.28888889 C2.27348,9.28888889 2.49308889,9.06927022 2.49308889,8.8 C2.49308889,7.45555556 3.59308889,6.35555556 4.93753333,6.35555556 L7.87086667,6.35555556 C9.21531111,6.35555556 10.3153111,7.45555556 10.3153111,8.8 C10.3153111,9.06928 10.5349298,9.28888889 10.8042,9.28888889 C11.07348,9.28888889 11.2930889,9.06927022 11.2930889,8.8 C11.2930889,6.91797333 9.75289333,5.37777778 7.87086667,5.37777778 L4.93753333,5.37777778 C3.05550667,5.37777778 1.51531111,6.91797333 1.51531111,8.8 C1.51531111,9.06928 1.73588311,9.28888889 2.0042,9.28888889 Z" id="Shape"></path>
                <path d="M14.2027111,16.1333333 L20.5333333,16.1333333 C20.8026133,16.1333333 21.0222222,15.9137147 21.0222222,15.6444444 C21.0222222,15.3751742 20.8026036,15.1555556 20.5333333,15.1555556 L18.0888889,15.1555556 L18.0888889,0.733333333 C18.0888889,0.317973333 17.7709156,0 17.3555556,0 C16.9401956,0 16.6222222,0.317973333 16.6222222,0.733333333 L16.6222222,15.1555556 L14.1777778,15.1555556 C13.9084978,15.1555556 13.6888889,15.3751742 13.6888889,15.6444444 C13.6888889,15.9137147 13.9333333,16.1333333 14.2026133,16.1333333 L14.2027111,16.1333333 Z" id="Shape"></path>
                <path d="M19.6777778,16.8666667 L15.0582667,16.8666667 C13.7873511,16.8666667 12.7360444,17.9179733 12.7360444,19.1888889 L12.7360444,20.7777778 C12.7360444,21.4624178 13.2736267,22 13.9582667,22 L20.7777778,22 C21.4375822,22 22,21.4624178 22,20.7777778 L22,19.1888889 C22,17.9179733 20.9735289,16.8666667 19.6777778,16.8666667 Z M20.5333333,20.5333333 L14.2027111,20.5333333 L14.2027111,19.1888889 C14.2027111,18.7248356 14.5942133,18.3333333 15.0582667,18.3333333 L19.6777778,18.3333333 C20.1418311,18.3333333 20.5333333,18.7248356 20.5333333,19.1888889 L20.5333333,20.5333333 Z" id="Shape"></path>
            </g>
        </g>
    </g>
</svg>