<?xml version="1.0" encoding="UTF-8"?>
<svg width="23px" height="23px" viewBox="0 0 23 23" version="1.1" xmlns="http://www.w3.org/2000/svg" xmlns:xlink="http://www.w3.org/1999/xlink">
    <!-- Generator: Sketch 55.2 (78181) - https://sketchapp.com -->
    <title>No Smoking</title>
    <desc>Created with Sketch.</desc>
    <g id="Listing-Page" stroke="none" stroke-width="1" fill="none" fill-rule="evenodd">
        <g id="7.1" transform="translate(-24.000000, -3265.000000)" fill="#000000" fill-rule="nonzero">
            <path d="M35.5,3265.00032 C32.450346,3265.00032 29.5252585,3266.21236 27.368062,3268.36834 C25.2120254,3270.5256 24,3273.45049 24,3276.50016 C24,3279.54984 25.2120577,3282.47482 27.368062,3284.63199 C29.5253551,3286.78799 32.4502816,3288 35.5,3288 C38.5497184,3288 41.4747415,3286.78796 43.631938,3284.63199 C45.7879746,3282.47472 47,3279.54984 47,3276.50016 C46.9962243,3273.45181 45.7829159,3270.52808 43.6280715,3268.37188 C41.472035,3266.21713 38.5481074,3265.00387 35.4996778,3265 L35.5,3265.00032 Z M45.711161,3276.50016 C45.7124182,3278.98591 44.8036872,3281.38609 43.1561304,3283.24747 L39.3662954,3279.45156 L42.5015606,3279.45156 C42.6727347,3279.45156 42.8363691,3279.3836 42.9571979,3279.26277 C43.0780267,3279.14194 43.1459937,3278.97832 43.1459937,3278.80714 L43.1459937,3275.30444 C43.1459937,3275.21256 43.1258555,3275.12069 43.0880957,3275.03762 C42.9760762,3274.54426 42.6576553,3274.12262 42.2146164,3273.88096 C41.9377155,3273.68714 41.8735248,3273.62673 41.8735248,3273.55876 C41.8735248,3273.49079 41.9414918,3273.42031 42.2146164,3273.23655 C42.5720763,3272.98861 43.1107471,3272.61479 43.1107471,3271.8483 C43.1107471,3271.08055 42.5632477,3270.70044 42.2083011,3270.4487 C41.9339199,3270.25865 41.8672095,3270.19446 41.8672095,3270.1265 C41.8672095,3270.05853 41.9351765,3269.98805 42.2083011,3269.80429 C42.4109423,3269.6734 42.5959521,3269.51607 42.7595703,3269.33735 C44.6487847,3271.24291 45.7097903,3273.81665 45.7110791,3276.49998 L45.711161,3276.50016 Z M29.4772492,3278.16281 C28.9158948,3278.16155 28.4615463,3277.70592 28.4590009,3277.14457 L28.4590009,3276.97088 C28.4590009,3276.40702 28.9171514,3275.94888 29.481019,3275.94888 L31.0467667,3275.94888 L31.0467667,3278.16281 L29.4772492,3278.16281 Z M32.3318372,3275.9489 L34.0360385,3275.9489 L36.2499762,3278.16281 L32.3331904,3278.16281 L32.3318372,3275.9489 Z M35.8571377,3275.9489 L41.8508896,3275.9489 L41.8508896,3278.16281 L38.0774873,3278.16281 L35.8571377,3275.9489 Z M41.7928918,3268.46761 C41.7010103,3268.57333 41.5915105,3268.66269 41.4706817,3268.73192 C41.1132218,3268.97986 40.574551,3269.35368 40.574551,3270.11766 C40.574551,3270.88164 41.113254,3271.25798 41.4706817,3271.50591 C41.7450629,3271.69596 41.8117733,3271.76015 41.8117733,3271.82812 C41.8117733,3271.89609 41.7438063,3271.96657 41.4706817,3272.15032 C41.1132218,3272.39827 40.574551,3272.77208 40.574551,3273.53858 C40.5732925,3273.96901 40.7671231,3274.37683 41.1031689,3274.64742 L34.5684262,3274.64742 L28.7686448,3268.84772 C30.5546552,3267.26817 32.8378359,3266.36574 35.2202572,3266.29649 C37.6028397,3266.22727 39.9351573,3266.99755 41.8078423,3268.47012 L41.7928918,3268.46761 Z M25.2883235,3276.50019 C25.2870662,3274.01444 26.1957973,3271.61427 27.8433541,3269.75289 L32.7483581,3274.66008 L29.4772814,3274.66008 C28.2022961,3274.66008 27.1676795,3275.69465 27.1676795,3276.9709 L27.1676795,3277.14459 C27.1676795,3278.42082 28.2022639,3279.45542 29.4772814,3279.45542 L37.5325334,3279.45542 L42.2474335,3284.1564 C40.2726402,3285.89959 37.7000827,3286.81082 35.0695596,3286.70131 C32.4377476,3286.59181 29.9493192,3285.46913 28.1268989,3283.56734 C26.3044143,3281.66684 25.2874226,3279.13444 25.2886792,3276.50008 L25.2883235,3276.50019 Z" id="No-Smoking"></path>
        </g>
    </g>
</svg>