<?xml version="1.0" encoding="UTF-8"?>
<svg width="20px" height="16px" viewBox="0 0 20 16" version="1.1" xmlns="http://www.w3.org/2000/svg" xmlns:xlink="http://www.w3.org/1999/xlink">
    <!-- Generator: Sketch 55.2 (78181) - https://sketchapp.com -->
    <title>Parking</title>
    <desc>Created with Sketch.</desc>
    <g id="Listing-Page" stroke="none" stroke-width="1" fill="none" fill-rule="evenodd">
        <g id="7.2" transform="translate(-398.000000, -316.000000)" fill="#000000">
            <g id="Parking" transform="translate(398.000000, 316.000000)">
                <path d="M4.4484,15.0844 C2.257,13.36486 1,10.782 1,8 C1,5.2204 2.25468,2.6398 4.443,0.9204 C4.66018,0.750088 4.69768,0.43524 4.527376,0.21806 C4.356282,0.00088 4.042216,-0.03662 3.825036,0.133684 C1.394636,2.044624 3.60488832e-05,4.911884 3.60488832e-05,8.000084 C3.60488832e-05,11.091484 1.396136,13.961084 3.831236,15.871084 C3.922642,15.94296 4.032016,15.977334 4.139836,15.977334 C4.288274,15.977334 4.435156,15.91171 4.533596,15.785928 C4.703908,15.569528 4.665628,15.254688 4.44844,15.084368 L4.4484,15.0844 Z" id="Fill-1"></path>
                <path d="M16.1782,0.136 C15.96102,-0.034312 15.64696,0.003188 15.47586,0.219594 C15.304766,0.436774 15.343048,0.750834 15.559454,0.921934 C17.746254,2.642254 19.000054,5.221934 19.000054,8.000134 C19.000054,10.779734 17.745374,13.360334 15.556254,15.080534 C15.339074,15.251628 15.301574,15.565694 15.471878,15.782874 C15.570316,15.908656 15.717198,15.9735 15.865638,15.9735 C15.97345,15.9735 16.082818,15.938344 16.174238,15.866468 C18.605438,13.955528 20.00004,11.088268 20.00004,8.000068 C20.00004,4.913268 18.607078,2.046868 16.178238,0.136068 L16.1782,0.136 Z" id="Fill-2"></path>
                <path d="M18,8 C18,3.589 14.411,0 10,0 C5.589,0 2,3.589 2,8 C2,12.411 5.589,16 10,16 C14.411,16 18,12.411 18,8 Z M10,15 C6.1398,15 3,11.8602 3,8 C3,4.1398 6.1398,1 10,1 C13.8602,1 17,4.1398 17,8 C17,11.8602 13.8602,15 10,15 Z" id="Fill-3"></path>
                <path d="M10.1742,2.8336 L7.9782,2.8336 C7.70164,2.8336 7.4782,3.05704 7.4782,3.3336 L7.4782,12.6672 C7.4782,12.94376 7.70164,13.1672 7.9782,13.1672 C8.25476,13.1672 8.4782,12.94376 8.4782,12.6672 L8.4782,8.9992 L10.37898,8.9992 C12.0571,8.9992 13.32198,7.67732 13.32198,5.925 C13.32198,4.22032 11.91026,2.8336 10.17438,2.8336 L10.1742,2.8336 Z M10.37888,7.9992 L8.4781,7.9992 L8.4781,3.8336 L10.17498,3.8336 C11.33904,3.8336 12.32258,4.79142 12.32258,5.925 C12.321798,7.12734 11.50462,7.9992 10.37882,7.9992 L10.37888,7.9992 Z" id="Fill-4"></path>
            </g>
        </g>
    </g>
</svg>