<?xml version="1.0" encoding="UTF-8"?>
<svg width="20px" height="20px" viewBox="0 0 20 20" version="1.1" xmlns="http://www.w3.org/2000/svg" xmlns:xlink="http://www.w3.org/1999/xlink">
    <!-- Generator: Sketch 55.2 (78181) - https://sketchapp.com -->
    <title>Bone</title>
    <desc>Created with Sketch.</desc>
    <g id="Listing-Page" stroke="none" stroke-width="1" fill="none" fill-rule="evenodd">
        <g id="7.1" transform="translate(-24.000000, -2675.000000)" fill="#000000" fill-rule="nonzero">
            <path d="M37.4381302,2695 C36.5725974,2695 35.7586458,2694.66326 35.1464557,2694.051 C33.9701141,2692.87459 33.8891993,2691.01209 34.9013365,2689.7408 L29.2589198,2684.09806 C28.6877726,2684.5543 27.9840692,2684.80297 27.241665,2684.80297 C26.3761321,2684.80297 25.5621805,2684.46635 24.9499905,2683.8541 C24.3377704,2683.24184 24.0011709,2682.42787 24,2681.56229 C24,2680.6967 24.3365994,2679.8827 24.9488195,2679.27048 C25.5798046,2678.63946 26.4300853,2678.30167 27.3225797,2678.32515 C27.296778,2677.45016 27.6275038,2676.59281 28.2701983,2675.95005 C28.8824184,2675.33779 29.6963399,2675 30.5630437,2675 C31.4285766,2675 32.2425281,2675.33662 32.8547182,2675.95005 C33.4669383,2676.5623 33.8035377,2677.37627 33.8035377,2678.24185 C33.8035377,2678.9843 33.5560736,2679.68802 33.0986635,2680.2604 L38.7410802,2685.90315 C39.3122274,2685.4469 40.0171017,2685.1994 40.759506,2685.1994 C41.6250388,2685.1994 42.4389904,2685.53602 43.0511805,2686.14828 C43.6634006,2686.76053 44,2687.5745 44,2688.44009 C44,2689.30567 43.6634006,2690.11967 43.0511805,2690.73189 C42.4201954,2691.36292 41.5699147,2691.69836 40.6774203,2691.6784 C40.7032223,2692.55338 40.3724962,2693.41073 39.7286007,2694.0535 C39.1175516,2694.66338 38.3036301,2695 37.4380972,2695 L37.4381302,2695 Z M29.2646874,2682.59442 C29.4300538,2682.59442 29.5895474,2682.66011 29.7068513,2682.77739 L36.2229675,2689.29389 C36.3484589,2689.41939 36.4141365,2689.59063 36.404754,2689.76773 C36.3953715,2689.94483 36.3121028,2690.10903 36.1760549,2690.22046 C36.1256236,2690.26151 36.0775401,2690.30373 36.0317985,2690.35065 C35.254236,2691.12708 35.254236,2692.3903 36.0306257,2693.16674 C36.4070971,2693.54206 36.906727,2693.74966 37.4380023,2693.74966 C37.9692776,2693.74966 38.4689076,2693.54323 38.8453789,2693.16674 C39.3860517,2692.62603 39.5666463,2691.83785 39.3180173,2691.11183 C39.2406123,2690.88664 39.2980792,2690.63565 39.4669635,2690.46676 C39.6358478,2690.29786 39.8856487,2690.24039 40.1119999,2690.3178 C40.3219339,2690.38935 40.5412535,2690.42688 40.7629209,2690.42688 C41.2930253,2690.42688 41.7914843,2690.22045 42.1667847,2689.8463 C42.5432561,2689.46981 42.7496713,2688.97015 42.7496713,2688.43884 C42.7496713,2687.90754 42.5432561,2687.40788 42.1667847,2687.03138 C41.7903133,2686.65489 41.2906834,2686.44846 40.7594081,2686.44846 C40.2281328,2686.44846 39.7285029,2686.65489 39.3520315,2687.03138 C39.303945,2687.07947 39.2617252,2687.12756 39.2206764,2687.17799 C39.1092602,2687.31405 38.9450647,2687.39732 38.767974,2687.40671 C38.5920511,2687.41726 38.4196351,2687.34923 38.2953356,2687.22491 L31.7780185,2680.70601 C31.652527,2680.58051 31.5868495,2680.40927 31.596232,2680.23217 C31.6044415,2680.05624 31.6877122,2679.89087 31.8249311,2679.77944 C31.8753624,2679.73722 31.9246199,2679.69382 31.9715324,2679.64691 C32.3468328,2679.27158 32.554419,2678.77192 32.554419,2678.24062 C32.554419,2677.70931 32.3480038,2677.20965 31.9715324,2676.83316 C31.595061,2676.45667 31.0954311,2676.25024 30.5641558,2676.25024 C30.0317096,2676.25024 29.5320796,2676.45667 29.1556083,2676.83316 C28.6149355,2677.37386 28.4343409,2678.16087 28.6841409,2678.88806 C28.7615458,2679.11443 28.7040786,2679.36424 28.5351946,2679.53314 C28.3663106,2679.70203 28.1153385,2679.75951 27.8901583,2679.68209 C27.6802242,2679.61055 27.4620756,2679.57302 27.2392372,2679.57302 C26.7079619,2679.57302 26.2095029,2679.77944 25.8353734,2680.15359 C25.460073,2680.53009 25.2524868,2681.02975 25.2524868,2681.56105 C25.2524868,2682.09236 25.460076,2682.59202 25.8353734,2682.96851 C26.2118448,2683.34501 26.7114747,2683.55143 27.24275,2683.55143 C27.7740253,2683.55143 28.2736553,2683.34383 28.6501266,2682.96851 C28.6982131,2682.9216 28.7416069,2682.87234 28.7826557,2682.8219 C28.8940719,2682.68585 29.0594413,2682.60257 29.2353581,2682.59436 C29.2447406,2682.59554 29.2541231,2682.59436 29.2646784,2682.59436 L29.2646874,2682.59442 Z" id="Bone"></path>
        </g>
    </g>
</svg>