<?xml version="1.0" encoding="UTF-8"?>
<svg width="20px" height="17px" viewBox="0 0 20 17" version="1.1" xmlns="http://www.w3.org/2000/svg" xmlns:xlink="http://www.w3.org/1999/xlink">
    <!-- Generator: Sketch 55.2 (78181) - https://sketchapp.com -->
    <title>Pool</title>
    <desc>Created with Sketch.</desc>
    <g id="Listing-Page" stroke="none" stroke-width="1" fill="none" fill-rule="evenodd">
        <g id="7.1" transform="translate(-24.000000, -2866.000000)" fill="#000000" fill-rule="nonzero">
            <g id="Pool" transform="translate(24.000000, 2866.000000)">
                <path d="M19.6247917,16.0087381 C17.47875,14.9359571 16.729375,15.0980238 15.458125,15.5027857 C15.0202917,15.6442945 14.520625,15.8063571 13.8329583,15.9075476 C13.082625,16.0292919 12.5617917,15.7858033 11.9367917,15.4822238 C11.3947917,15.2189667 10.7697917,14.9359571 9.97879167,14.9359571 C9.22845833,14.9359571 8.60345833,15.2189667 8.02079167,15.4822238 C7.374625,15.7857952 6.81229167,16.0284905 6.14579167,15.9075476 C5.27095833,15.745485 4.72895833,15.5431 4.29195833,15.3810333 C3.12495833,14.9557095 2.64645833,14.854519 0.375083333,16.0087381 C0.12525,16.1304824 0.0414166667,16.4135 0.16675,16.6561952 C0.249758333,16.8182579 0.416583333,16.9194524 0.604583333,16.9194524 C0.687591667,16.9194524 0.750254167,16.8988986 0.834083333,16.8585802 C2.83441667,15.8672374 3.06304167,15.947866 3.95908333,16.2719993 C4.39691667,16.4340619 5.02191667,16.6561993 5.97975,16.8388279 C6.95875,17.020655 7.75058333,16.6570007 8.4585,16.3328755 C8.97933333,16.0901802 9.479,15.8672374 9.99983333,15.8672374 C10.5621667,15.8672374 11.0203333,16.0901802 11.5208333,16.3328755 C12.1873333,16.6570088 12.958,17.0206469 14.0208333,16.8388279 C14.7711667,16.7170836 15.3335,16.5352564 15.7705,16.3937517 C16.8333333,16.049866 17.3118333,15.9083612 19.18675,16.8388279 C19.4365833,16.9605721 19.72875,16.8593817 19.85325,16.6364469 C19.9582313,16.413504 19.8744083,16.1297052 19.6245625,16.0087421 L19.6247917,16.0087381 Z" id="Shape"></path>
                <path d="M19.8958333,7.42717857 L19.8958333,6.47615 L13.5416667,6.47615 L13.5416667,1.92257857 C13.5416667,1.4371881 13.9583333,1.03242619 14.458,1.03242619 C14.9576667,1.03242619 15.3743333,1.4371881 15.3743333,1.92257857 C15.3743333,2.18583571 15.5826667,2.38821667 15.8536667,2.38821667 C16.1246667,2.38821667 16.333,2.18583571 16.333,1.92257857 C16.333,0.91067381 15.4785,0.0805880952 14.4368333,0.0805880952 C13.3951667,0.0805880952 12.5406667,0.91067381 12.5406667,1.92257857 L12.5406667,3.29893095 L7.20691667,3.29893095 L7.20691667,1.92257857 C7.20691667,1.4371881 7.62358333,1.03242619 8.12325,1.03242619 C8.62291667,1.03242619 9.03958333,1.4371881 9.03958333,1.92257857 C9.03958333,2.18583571 9.24791667,2.38821667 9.51891667,2.38821667 C9.78991667,2.38821667 9.99825,2.18583571 9.99825,1.92257857 C9.99825,0.91067381 9.14375,0.0805880952 8.10208333,0.0805880952 C7.06041667,0.0805880952 6.20591667,0.91067381 6.20591667,1.92257857 L6.20835813,6.47615 L0.0625247917,6.47615 L0.0625247917,7.42717857 L6.20835813,7.42717857 L6.20835813,13.2353095 C6.16685396,13.2353095 6.14569563,13.2353095 6.10419146,13.2147557 C5.22935813,13.0526931 4.68735812,12.8503081 4.25035812,12.6882414 C3.08335812,12.2629176 2.60485812,12.1617271 0.333483125,13.3159462 C0.0836497917,13.4376905 -0.000183541667,13.7207081 0.125149792,13.9634033 C0.208158125,14.125466 0.374983125,14.2266605 0.562983125,14.2266605 C0.645991458,14.2266605 0.708653958,14.2061067 0.792483125,14.1657883 C2.79281646,13.1744455 3.02144146,13.255074 3.91748312,13.5792074 C4.35531646,13.74127 4.98031646,13.9634074 5.93814979,14.146036 C6.91714979,14.3278631 7.70898312,13.9642088 8.41689979,13.6400836 C8.93773313,13.3973883 9.43739979,13.1744455 9.95823313,13.1744455 C10.5205665,13.1744455 10.9787331,13.3973883 11.4792331,13.6400836 C12.1457331,13.9642169 12.9163998,14.327855 13.9792331,14.146036 C14.7295665,14.0242917 15.2918998,13.8424645 15.7288998,13.7009598 C16.7917331,13.357074 17.2702331,13.2155693 19.1451498,14.146036 C19.3949831,14.2677802 19.6871498,14.1665898 19.8116498,13.943655 C19.9369748,13.7009598 19.8328081,13.4171407 19.6033165,13.2961979 C17.4572748,12.2234169 16.7078998,12.3854836 15.4366498,12.7902455 C14.9988165,12.9317543 14.4991498,13.0938169 13.8114831,13.1950074 C13.7073165,13.2155612 13.6031498,13.2155612 13.4989831,13.2155612 L13.4989831,7.38678738 L19.8954415,7.38678738 L19.8958333,7.42717857 Z M7.22895833,4.27044048 L12.5627083,4.27044048 L12.5627083,6.4759881 L7.22895833,6.4759881 L7.22895833,4.27044048 Z M11.9579167,12.8107143 C11.4159167,12.5474571 10.7909167,12.2644476 9.99991667,12.2644476 C9.24958333,12.2644476 8.62458333,12.5474571 8.04191667,12.8107143 C7.77091667,12.9324586 7.49991667,13.0534095 7.22975,13.1348476 L7.22975,10.5844429 L12.5635,10.5844429 L12.5635,13.073931 C12.3543542,12.992505 12.166375,12.9118683 11.9580417,12.8106738 L11.9579167,12.8107143 Z M12.5625625,9.63353571 L7.2288125,9.63353571 L7.2288125,7.4279881 L12.5625625,7.4279881 L12.5625625,9.63353571 Z" id="Shape"></path>
            </g>
        </g>
    </g>
</svg>