<?xml version="1.0" encoding="UTF-8"?>
<svg width="17px" height="19px" viewBox="0 0 17 19" version="1.1" xmlns="http://www.w3.org/2000/svg" xmlns:xlink="http://www.w3.org/1999/xlink">
    <!-- Generator: Sketch 55.2 (78181) - https://sketchapp.com -->
    <title>Private Terrace</title>
    <desc>Created with Sketch.</desc>
    <g id="Listing-Page" stroke="none" stroke-width="1" fill="none" fill-rule="evenodd">
        <g id="7.2" transform="translate(-399.000000, -392.000000)" fill="#000000">
            <g id="Private-Terrace" transform="translate(399.000000, 392.000000)">
                <path d="M13.2696724,12.6531094 C13.5936983,12.6531094 13.8558793,12.3875458 13.8558793,12.0593594 C13.8558793,11.7311641 13.5936895,11.4656094 13.2696724,11.4656094 L3.85372414,11.4656094 C3.52969828,11.4656094 3.26751724,11.731173 3.26751724,12.0593594 C3.26751724,12.3875547 3.52970707,12.6531094 3.85372414,12.6531094 L7.97534483,12.6531094 L7.97534483,18.40625 C7.97534483,18.7344453 8.23753466,19 8.56155172,19 C8.88557759,19 9.14775862,18.7344364 9.14775862,18.40625 L9.14775862,12.6531094 L13.2696724,12.6531094 Z" id="Fill-1"></path>
                <path d="M5.30663793,14.5875469 L1.30841379,14.5875469 L1.30841379,10.5506406 C1.30841379,10.2224453 1.04622397,9.95689062 0.722206897,9.95689062 C0.398181034,9.95689062 0.136,10.2224542 0.136,10.5506406 L0.136,18.40625 C0.136,18.7344453 0.398189828,19 0.722206897,19 C1.04623276,19 1.30841379,18.7344364 1.30841379,18.40625 L1.30841379,15.7749578 L4.72043103,15.7749578 L4.72043103,18.40625 C4.72043103,18.7344453 4.98262086,19 5.30663793,19 C5.630655,19 5.89284483,18.7344364 5.89284483,18.40625 L5.89284483,15.1812969 C5.89284483,14.8531016 5.630655,14.5875469 5.30663793,14.5875469 Z" id="Fill-2"></path>
                <path d="M16.2775,9.95689062 C15.9534741,9.95689062 15.6912931,10.2224542 15.6912931,10.5506406 L15.6912931,14.5875469 L11.693069,14.5863861 C11.3690431,14.5863861 11.1068621,14.8519497 11.1068621,15.1801361 L11.1068621,18.4062767 C11.1068621,18.734472 11.3690519,19.0000267 11.693069,19.0000267 C12.017086,19.0000267 12.2792759,18.7344631 12.2792759,18.4062767 L12.2792759,15.7749845 L15.6912931,15.7749845 L15.6912931,18.4062767 C15.6912931,18.734472 15.9534829,19.0000267 16.2775,19.0000267 C16.6015259,19.0000267 16.8637069,18.7344631 16.8637069,18.4062767 L16.8637069,10.5506673 C16.8637069,10.222472 16.6015171,9.95689062 16.2775,9.95689062 L16.2775,9.95689062 Z" id="Fill-3"></path>
                <path d="M0.887224138,6.05120312 L7.97563793,6.05120312 L7.97563793,9.28446875 C7.97563793,9.61266406 8.23782776,9.87821875 8.56184483,9.87821875 C8.88587069,9.87821875 9.14805172,9.61265516 9.14805172,9.28446875 L9.14805172,6.05120312 L16.2775,6.05120312 C16.5385438,6.05120312 16.7686828,5.87493359 16.8408155,5.62097187 C16.9129453,5.36584344 16.8087559,5.09333594 16.5866391,4.95416094 L8.87098397,0.0904578125 C8.68092397,-0.028986875 8.44047362,-0.028986875 8.25042534,0.0916185937 L0.576977069,4.95413422 C0.354860345,5.09445516 0.251808103,5.36696859 0.323946724,5.62094516 C0.396076552,5.87607359 0.626195,6.05117641 0.887262241,6.05117641 L0.887224138,6.05120312 Z M8.56301724,1.2931875 L14.2257759,4.86370312 L2.92986207,4.86370312 L8.56301724,1.2931875 Z" id="Fill-4"></path>
            </g>
        </g>
    </g>
</svg>