<?xml version="1.0" encoding="UTF-8"?>
<svg width="20px" height="11px" viewBox="0 0 20 11" version="1.1" xmlns="http://www.w3.org/2000/svg" xmlns:xlink="http://www.w3.org/1999/xlink">
    <!-- Generator: Sketch 55.2 (78181) - https://sketchapp.com -->
    <title>Roof Deck</title>
    <desc>Created with Sketch.</desc>
    <g id="Listing-Page" stroke="none" stroke-width="1" fill="none" fill-rule="evenodd">
        <g id="7.2" transform="translate(-398.000000, -284.000000)" fill="#000000">
            <g id="Roof-Deck" transform="translate(398.000000, 284.000000)">
                <path d="M5.4282,7.80368519 C4.93366,7.80368519 4.6868,7.5705463 4.50632,7.40025 L4.475852,7.37160519 C4.41257,7.31272259 4.407884,7.21166519 4.466478,7.14720519 C4.525072,7.0827513 4.62351,7.07877296 4.686798,7.13765556 L4.718048,7.16709685 C4.883672,7.32385296 5.055548,7.48538389 5.428208,7.48538389 C5.514146,7.48538389 5.584458,7.55620352 5.584458,7.64452741 C5.584458,7.73205685 5.514926,7.80367093 5.428208,7.80367093 L5.4282,7.80368519 Z" id="Fill-1"></path>
                <path d="M1.46796,7.77027778 C1.388272,7.77027778 1.320304,7.7082113 1.312492,7.62625315 C1.3046796,7.5387237 1.36718,7.46154037 1.453116,7.45278722 C2.270296,7.37480741 3.267956,7.16713352 3.935116,6.93717241 C4.017148,6.91011852 4.105428,6.95388222 4.132772,7.03663685 C4.160116,7.12018796 4.116366,7.21010278 4.035116,7.23795315 C3.346836,7.47508463 2.321056,7.68832167 1.481916,7.76949759 C1.4772286,7.77029407 1.472541,7.77029407 1.4678536,7.77029407 L1.46796,7.77027778 Z" id="Fill-2"></path>
                <path d="M10,7.80368519 C9.50546,7.80368519 9.2586,7.5705463 9.07812,7.40104444 C9.014838,7.34136537 9.010932,7.24031 9.069526,7.17664444 C9.12812,7.11219056 9.226558,7.10821222 9.289846,7.1678913 C9.45547,7.32464741 9.627346,7.48617833 9.999226,7.48617833 C10.085164,7.48617833 10.1554825,7.55699796 10.1554825,7.64532185 C10.156258,7.73205481 10.085944,7.80366889 10.000008,7.80366889 L10,7.80368519 Z" id="Fill-3"></path>
                <path d="M6.046,7.76946296 C5.966312,7.76946296 5.898344,7.70739648 5.890532,7.62543833 C5.881938,7.53790889 5.94522,7.46072556 6.031156,7.45197241 C6.854596,7.37319611 7.853816,7.16552426 8.516356,6.93715204 C8.598388,6.91009815 8.686668,6.95386185 8.714012,7.03661648 C8.741356,7.12016759 8.697606,7.21008241 8.616356,7.23793278 C7.932756,7.473455 6.905416,7.68671241 6.060156,7.76788833 C6.05625,7.76947926 6.05078,7.76947926 6.046094,7.76947926 L6.046,7.76946296 Z" id="Fill-4"></path>
                <path d="M14.5718,7.80368519 C14.12102,7.80368519 13.88118,7.61589481 13.69212,7.44003333 C13.628058,7.38115074 13.624152,7.28009333 13.681964,7.21563333 C13.739776,7.150385 13.838996,7.14640667 13.902284,7.20528926 C14.06166,7.35329222 14.231964,7.4861763 14.571824,7.4861763 C14.657762,7.4861763 14.728074,7.55699593 14.728074,7.64531981 C14.727292,7.73205278 14.657762,7.80366685 14.571824,7.80366685 L14.5718,7.80368519 Z" id="Fill-5"></path>
                <path d="M10.6242,7.76864815 C10.544512,7.76864815 10.476544,7.70737815 10.468732,7.62462352 C10.46092,7.53709407 10.52342,7.45911426 10.609356,7.45115759 C11.428896,7.37158685 12.453116,7.15992241 13.099956,6.93713167 C13.181988,6.91007778 13.270268,6.95384148 13.297612,7.03659611 C13.324956,7.12014722 13.281206,7.21006204 13.199956,7.23791241 C12.522616,7.47184574 11.492916,7.6843087 10.638156,7.76786796 C10.633468,7.76866444 10.62878,7.76866444 10.624094,7.76866444 L10.6242,7.76864815 Z" id="Fill-6"></path>
                <path d="M15.2016,7.76864815 C15.122694,7.76864815 15.054726,7.70737815 15.046912,7.62462352 C15.038318,7.53709407 15.100818,7.45911426 15.186756,7.45115759 C16.011756,7.37079037 17.007076,7.16389463 17.664156,6.93713167 C18.049316,6.80504204 18.253216,6.99681074 18.432916,7.16629833 C18.475884,7.20688019 18.520416,7.24905296 18.570416,7.28883833 C18.637604,7.34374259 18.649322,7.44320704 18.595416,7.51244389 C18.54151,7.58087611 18.443854,7.59281111 18.375876,7.53790685 C18.319626,7.49255019 18.269626,7.44480815 18.221188,7.39945148 C18.045406,7.23314574 17.965728,7.16949037 17.764148,7.23792056 C17.086808,7.47105944 16.063368,7.68431685 15.217348,7.76708167 C15.212662,7.76787815 15.207192,7.76867259 15.201724,7.76867259 L15.2016,7.76864815 Z" id="Fill-7"></path>
                <path d="M5.7086,5.57883333 C5.24064,5.57883333 5.01016,5.36080926 4.8422,5.20245 C4.778918,5.14277093 4.775012,5.04171556 4.833606,4.97805 C4.8922,4.91359611 4.990638,4.90961778 5.053926,4.96929685 C5.205488,5.112525 5.362526,5.26053204 5.707826,5.26053204 C5.793764,5.26053204 5.86408253,5.33135167 5.86408253,5.41967556 C5.864858,5.507205 5.795326,5.57881907 5.708608,5.57881907 L5.7086,5.57883333 Z" id="Fill-8"></path>
                <path d="M2.0516,5.54135185 C1.972694,5.54135185 1.904726,5.48008185 1.896132,5.3981237 C1.8875382,5.31059426 1.950038,5.23261444 2.035976,5.2238613 C2.799256,5.14588148 3.716436,4.95332241 4.317976,4.74562611 C4.400008,4.71857222 4.488288,4.76233593 4.515632,4.84509056 C4.542976,4.92784519 4.499226,5.01855648 4.417976,5.04640685 C3.796096,5.2604587 2.851576,5.45858093 2.067176,5.53975685 C2.061708,5.54055333 2.056238,5.54135185 2.05155,5.54135185 L2.0516,5.54135185 Z" id="Fill-9"></path>
                <path d="M10,5.57883333 C9.57422,5.57883333 9.34844,5.40218352 9.16954,5.23587778 C9.105478,5.17699519 9.101572,5.07593778 9.159384,5.01147778 C9.217196,4.94622944 9.316416,4.94145463 9.379704,5.0011337 C9.526578,5.13799815 9.685164,5.26053 9.999244,5.26053 C10.085182,5.26053 10.1555005,5.33134963 10.1555005,5.41967352 C10.156276,5.50720296 10.085962,5.57881704 10.000026,5.57881704 L10,5.57883333 Z" id="Fill-10"></path>
                <path d="M6.3376,5.54135185 C6.258694,5.54135185 6.190724,5.48008185 6.182132,5.3981237 C6.173538,5.31059426 6.236038,5.23261444 6.321976,5.2238613 C7.085256,5.14588148 8.004016,4.95332241 8.607976,4.74562611 C8.689226,4.71857222 8.778288,4.76233593 8.805632,4.84509056 C8.832976,4.92784519 8.789226,5.01855648 8.707976,5.04640685 C8.084536,5.26125315 7.138436,5.46016981 6.353376,5.53975685 C6.347908,5.54135185 6.34322,5.54135185 6.337752,5.54135185 L6.3376,5.54135185 Z" id="Fill-11"></path>
                <path d="M14.2914,5.57883333 C13.89374,5.57883333 13.66484,5.4204863 13.49374,5.26610741 C13.429678,5.20801926 13.423428,5.10696389 13.480458,5.04170741 C13.53827,4.97645907 13.636708,4.97009333 13.700778,5.02817944 C13.824996,5.14037537 13.984378,5.26052389 14.291398,5.26052389 C14.377336,5.26052389 14.447648,5.33134352 14.447648,5.41966741 C14.446868,5.50719685 14.377336,5.57881093 14.291398,5.57881093 L14.2914,5.57883333 Z" id="Fill-12"></path>
                <path d="M10.6242,5.54216667 C10.545294,5.54216667 10.477324,5.48089667 10.468732,5.39893852 C10.460138,5.31140907 10.522638,5.23342926 10.608576,5.22467611 C11.374976,5.1466963 12.296076,4.95413722 12.899976,4.74564648 C12.982008,4.71859259 13.070288,4.7623563 13.097632,4.84511093 C13.125756,4.92786556 13.081226,5.01857685 12.999976,5.04642722 C12.375756,5.26206796 11.427316,5.46019019 10.639776,5.54057167 C10.634306,5.54216667 10.628838,5.54216667 10.62415,5.54216667 L10.6242,5.54216667 Z" id="Fill-13"></path>
                <path d="M14.9102,5.54298352 C14.831294,5.54298352 14.763324,5.48171148 14.755512,5.3997513 C14.746918,5.31222185 14.809418,5.23424204 14.895356,5.22628537 C15.662536,5.14830556 16.585196,4.95574648 17.191356,4.7464613 C17.558536,4.61994296 17.751516,4.80295648 17.922596,4.96369093 L17.989002,5.02575741 C18.053846,5.08384556 18.059314,5.18490093 18.002284,5.25015741 C17.944472,5.31540574 17.846034,5.32097704 17.781964,5.26368333 L17.71087,5.19684407 C17.55462,5.04884111 17.48275,4.98199778 17.29211,5.04724815 C16.66555,5.26368333 15.71555,5.46262037 14.92731,5.54218704 C14.92106,5.54218704 14.91559,5.54298352 14.910122,5.54298352 L14.9102,5.54298352 Z" id="Fill-14"></path>
                <path d="M5.971,3.67135185 C5.56554,3.67135185 5.3499,3.50106778 5.17882,3.34112778 C5.115538,3.28224519 5.110852,3.18118778 5.169444,3.11672778 C5.227256,3.05147944 5.326476,3.04750111 5.389764,3.10717815 C5.533514,3.24165519 5.677264,3.35304852 5.971004,3.35304852 C6.056942,3.35304852 6.127254,3.42386815 6.127254,3.51219204 C6.127254,3.59972148 6.056942,3.67133556 5.971004,3.67133556 L5.971,3.67135185 Z" id="Fill-15"></path>
                <path d="M2.5508,3.63488889 C2.471894,3.63488889 2.403924,3.57441333 2.395332,3.49245519 C2.386738,3.40492574 2.449238,3.32694593 2.534394,3.31819278 C3.232834,3.24498778 4.081274,3.06594648 4.645394,2.87259093 C4.727426,2.84474056 4.815706,2.88930074 4.84305,2.97205537 C4.870394,3.05560648 4.826644,3.1455213 4.745394,3.17337167 C4.152434,3.37707537 3.297734,3.55769944 2.567194,3.63408833 C2.560944,3.63488889 2.556256,3.63488889 2.550788,3.63488889 L2.5508,3.63488889 Z" id="Fill-16"></path>
                <path d="M10.0024,3.67135185 C9.62506,3.67135185 9.40864,3.52175593 9.24616,3.37455556 C9.181316,3.31646741 9.175848,3.21620852 9.232878,3.15015556 C9.28991,3.08411074 9.388346,3.07854148 9.453198,3.13662759 C9.568822,3.2416613 9.716478,3.35306278 10.002418,3.35306278 C10.088356,3.35306278 10.158668,3.42388241 10.158668,3.5122063 C10.158668,3.59973574 10.089136,3.67135185 10.002418,3.67135185 L10.0024,3.67135185 Z" id="Fill-17"></path>
                <path d="M6.5876,3.63407407 C6.508694,3.63407407 6.440724,3.57359852 6.432132,3.49164037 C6.423538,3.40411093 6.485256,3.32613111 6.571194,3.31737796 C7.277434,3.24337648 8.127434,3.06433722 8.686794,2.87257056 C8.768044,2.84472019 8.857106,2.88928037 8.88445,2.972035 C8.911794,3.05558611 8.868044,3.14550093 8.786794,3.1733513 C8.207114,3.37228019 7.329754,3.55688463 6.603194,3.63327352 C6.597726,3.63407407 6.593038,3.63407407 6.587568,3.63407407 L6.5876,3.63407407 Z" id="Fill-18"></path>
                <path d="M14.0336,3.67135185 C13.675,3.67135185 13.46798,3.53608037 13.32656,3.41831111 C13.260154,3.36261037 13.249998,3.26235148 13.304686,3.19470556 C13.359374,3.12706981 13.45781,3.11672574 13.524226,3.17242444 C13.636726,3.26631963 13.775786,3.35305259 14.032826,3.35305259 C14.118764,3.35305259 14.1890825,3.42387222 14.1890825,3.51219611 C14.189858,3.59972556 14.120326,3.67133963 14.033608,3.67133963 L14.0336,3.67135185 Z" id="Fill-19"></path>
                <path d="M10.6242,3.63407407 C10.545294,3.63407407 10.477324,3.57359852 10.468732,3.49164037 C10.460138,3.40411093 10.522638,3.32613111 10.607794,3.31737796 C11.322634,3.24178556 12.174974,3.06274833 12.730394,2.87257056 C12.812426,2.84472019 12.900706,2.88928037 12.92805,2.972035 C12.956174,3.05558611 12.911644,3.14550093 12.830394,3.1733513 C12.255394,3.37068926 11.374934,3.55529574 10.639794,3.63327352 C10.635106,3.63327352 10.629638,3.63407407 10.624168,3.63407407 L10.6242,3.63407407 Z" id="Fill-20"></path>
                <path d="M14.661,3.63325926 C14.582094,3.63325926 14.514124,3.5727837 14.505532,3.49082556 C14.496938,3.40329611 14.559438,3.3253163 14.644594,3.31656315 C15.351634,3.24176519 16.200054,3.06352241 16.756394,2.87255019 C17.105614,2.75001019 17.297794,2.93143278 17.452494,3.07704833 L17.490776,3.11285537 C17.554838,3.17173796 17.559526,3.27199889 17.501714,3.33725537 C17.443902,3.4025037 17.344682,3.40727852 17.281394,3.34759944 L17.24077,3.309405 C17.08452,3.16219648 17.02281,3.11525093 16.85639,3.17254056 C16.28061,3.36987852 15.40483,3.554485 14.67679,3.63166833 C14.67132,3.63246481 14.665852,3.63325926 14.661164,3.63325926 L14.661,3.63325926 Z" id="Fill-21"></path>
                <path d="M6.1774,2.08164815 C5.81568,2.08164815 5.60708,1.93682704 5.45084,1.79438519 C5.386778,1.73629704 5.380528,1.63524167 5.43834,1.56998519 C5.496152,1.50394037 5.59459,1.49837111 5.65866,1.5572537 C5.773504,1.66149296 5.90866,1.76334074 6.17742,1.76334074 C6.263358,1.76334074 6.33367,1.83416037 6.33367,1.92248426 C6.332888,2.01080815 6.263358,2.08162778 6.17742,2.08162778 L6.1774,2.08164815 Z" id="Fill-22"></path>
                <path d="M2.9656,2.04335185 C2.886694,2.04335185 2.819506,1.9828763 2.810912,1.90091815 C2.801536,1.8133887 2.864036,1.73540889 2.949974,1.72585926 C3.614034,1.6534487 4.387474,1.48952222 4.918734,1.30730926 C4.999984,1.27945889 5.089046,1.32401907 5.11639,1.40757019 C5.143734,1.4911213 5.099984,1.58103611 5.017952,1.60888648 C4.466392,1.7974713 3.667172,1.9677513 2.981952,2.04175685 C2.977264,2.04335185 2.971014,2.04335185 2.965546,2.04335185 L2.9656,2.04335185 Z" id="Fill-23"></path>
                <path d="M10,2.08164815 C9.6539,2.08164815 9.45312,1.94876407 9.3164,1.83257963 C9.249994,1.77608444 9.2414,1.67582352 9.296868,1.60897407 C9.352336,1.54133833 9.450774,1.53258519 9.516408,1.58908037 C9.62344,1.67979167 9.756248,1.76413926 10.000008,1.76413926 C10.085946,1.76413926 10.156258,1.83495889 10.156258,1.92328278 C10.156258,2.01081222 10.085946,2.08162981 10.000008,2.08162981 L10,2.08164815 Z" id="Fill-24"></path>
                <path d="M6.789,2.04335185 C6.710094,2.04335185 6.642906,1.9828763 6.634312,1.90171463 C6.624936,1.81418519 6.687436,1.73620537 6.772594,1.72665574 C7.435874,1.65504167 8.231194,1.48634648 8.752274,1.30810574 C8.833524,1.28025537 8.922586,1.32481556 8.94993,1.40836667 C8.977274,1.49191778 8.933524,1.58183259 8.851492,1.60968296 C8.311652,1.79428944 7.488992,1.96854778 6.805492,2.04255333 C6.800024,2.04335185 6.794554,2.04335185 6.789086,2.04335185 L6.789,2.04335185 Z" id="Fill-25"></path>
                <path d="M13.8226,2.08164815 C13.57572,2.08164815 13.37572,2.01639981 13.19214,1.87635556 C13.12339,1.8238387 13.109328,1.72357778 13.16089,1.65354444 C13.212452,1.58272481 13.31089,1.56919889 13.37965,1.62171574 C13.465588,1.68776056 13.59371,1.76335296 13.82183,1.76335296 C13.907768,1.76335296 13.9780865,1.83417259 13.9780865,1.92249648 C13.978862,2.01082037 13.90933,2.08164 13.822612,2.08164 L13.8226,2.08164815 Z" id="Fill-26"></path>
                <path d="M10.6242,2.04253704 C10.545294,2.04253704 10.477324,1.98206148 10.468732,1.90089981 C10.459356,1.81337037 10.521856,1.73539056 10.607794,1.72584093 C11.277334,1.65263389 12.073414,1.48473722 12.587474,1.30887981 C12.669506,1.28102944 12.757786,1.32558963 12.78513,1.40914074 C12.812474,1.49269185 12.768724,1.58260667 12.686692,1.61045704 C12.153092,1.79347259 11.330452,1.96693852 10.639892,2.04253704 C10.635204,2.04173648 10.629736,2.04253704 10.624266,2.04253704 L10.6242,2.04253704 Z" id="Fill-27"></path>
                <path d="M14.4524,2.0417263 C14.373494,2.0417263 14.306306,1.98124667 14.297712,1.900085 C14.288338,1.81255556 14.350056,1.73457574 14.435994,1.72502611 C15.097714,1.65181907 15.887554,1.48471685 16.402394,1.308065 C16.738334,1.19189074 16.921934,1.36456019 17.069574,1.50381204 C17.132856,1.56349111 17.136762,1.66454648 17.07895,1.72900648 C17.020356,1.79346037 16.921918,1.7974387 16.85863,1.73855407 C16.710192,1.59850778 16.65473,1.556335 16.50239,1.60964833 C15.96021,1.79584574 15.16177,1.96454093 14.46959,2.04092981 C14.46412,2.0417263 14.45787,2.0417263 14.452402,2.0417263 L14.4524,2.0417263 Z" id="Fill-28"></path>
                <path d="M5.0844,10.3459115 C4.55784,10.3459115 4.29378,10.0976333 4.10158,9.91542037 C3.921112,9.74593278 3.83126,9.66079074 3.59846,9.74036148 C2.62814,10.0745578 1.0898602,10.3459115 0.16946006,10.3459115 C0.08352206,10.3459115 0.013210058,10.2750919 0.013210058,10.186768 C0.013210058,10.0992385 0.08274206,10.0276244 0.16946006,10.0276244 C1.0468,10.0276244 2.57186,9.75788 3.49906,9.43879852 C3.90688,9.2971613 4.12328,9.50245593 4.31468,9.68228556 C4.495148,9.85177315 4.68108,10.0276244 5.08578,10.0276244 C5.171718,10.0276244 5.24203,10.0984441 5.24203,10.186768 C5.240468,10.2750919 5.170936,10.3459115 5.084218,10.3459115 L5.0844,10.3459115 Z" id="Fill-29"></path>
                <path d="M10,10.3459115 C9.47344,10.3459115 9.20938,10.0976333 9.01718,9.91542037 C8.836712,9.74593278 8.74608,9.66079074 8.51406,9.74036148 C7.54374,10.0745578 6.00546,10.3459115 5.08506,10.3459115 C4.999122,10.3459115 4.92881,10.2750919 4.92881,10.186768 C4.92881,10.0992385 4.998342,10.0276244 5.08506,10.0276244 C5.9624,10.0276244 7.48746,9.75788 8.41466,9.43879852 C8.82248,9.2971613 9.03966,9.50245593 9.23028,9.68228556 C9.410748,9.85177315 9.59668,10.0276244 10.00138,10.0276244 C10.087318,10.0276244 10.15763,10.0984441 10.15763,10.186768 C10.156068,10.2750919 10.085756,10.3459115 9.999818,10.3459115 L10,10.3459115 Z" id="Fill-30"></path>
                <path d="M14.9156,10.3459115 C14.38904,10.3459115 14.12498,10.0976333 13.93278,9.91542037 C13.752312,9.74593278 13.6609,9.66079074 13.42966,9.74036148 C12.45934,10.0745578 10.92106,10.3459115 10.00066,10.3459115 C9.914722,10.3459115 9.84441,10.2750919 9.84441,10.186768 C9.84441,10.0992385 9.913942,10.0276244 10.00066,10.0276244 C10.878,10.0276244 12.40306,9.75788 13.33026,9.43879852 C13.73808,9.2971613 13.95448,9.50245593 14.14588,9.68228556 C14.326348,9.85177315 14.5115,10.0276244 14.91698,10.0276244 C15.002918,10.0276244 15.07323,10.0984441 15.07323,10.186768 C15.070886,10.2750919 15.001354,10.3459115 14.915418,10.3459115 L14.9156,10.3459115 Z" id="Fill-31"></path>
                <path d="M19.8304,10.3459115 C19.30384,10.3459115 19.03978,10.0976333 18.84758,9.91542037 C18.667112,9.74593278 18.57648,9.66079074 18.34446,9.74036148 C17.37414,10.0745578 15.83586,10.3459115 14.91546,10.3459115 C14.829522,10.3459115 14.75921,10.2750919 14.75921,10.186768 C14.75921,10.0992385 14.828742,10.0276244 14.91546,10.0276244 C15.7928,10.0276244 17.31786,9.75788 18.24506,9.43879852 C18.65366,9.2971613 18.86928,9.50245593 19.06068,9.68228556 C19.241148,9.85177315 19.4263,10.0276244 19.83178,10.0276244 C19.917718,10.0276244 19.98803,10.0984441 19.98803,10.186768 C19.986468,10.2750919 19.916936,10.3459115 19.830218,10.3459115 L19.8304,10.3459115 Z" id="Fill-32"></path>
                <path d="M5.0844,10.9816707 C4.55784,10.9816707 4.29378,10.7333926 4.10158,10.5511796 C3.921112,10.381692 3.83126,10.29655 3.59846,10.3761207 C2.62814,10.710317 1.0898602,10.9816707 0.16946006,10.9816707 C0.08352206,10.9816707 0.013210058,10.9108511 0.013210058,10.8225272 C0.013210058,10.7349978 0.08274206,10.6633837 0.16946006,10.6633837 C1.0468,10.6633837 2.57186,10.3936393 3.49906,10.0745578 C3.90688,9.93292056 4.12328,10.1382152 4.31468,10.3180448 C4.495148,10.4875324 4.68108,10.6633837 5.08578,10.6633837 C5.171718,10.6633837 5.24203,10.7342033 5.24203,10.8225272 C5.240468,10.9108511 5.170936,10.9816707 5.084218,10.9816707 L5.0844,10.9816707 Z" id="Fill-33"></path>
                <path d="M10,10.9816707 C9.47344,10.9816707 9.20938,10.7333926 9.01718,10.5511796 C8.836712,10.381692 8.74608,10.29655 8.51406,10.3761207 C7.54374,10.710317 6.00546,10.9816707 5.08506,10.9816707 C4.999122,10.9816707 4.92881,10.9108511 4.92881,10.8225272 C4.92881,10.7349978 4.998342,10.6633837 5.08506,10.6633837 C5.9624,10.6633837 7.48746,10.3936393 8.41466,10.0745578 C8.82248,9.93292056 9.03966,10.1382152 9.23028,10.3180448 C9.410748,10.4875324 9.59668,10.6633837 10.00138,10.6633837 C10.087318,10.6633837 10.15763,10.7342033 10.15763,10.8225272 C10.156068,10.9108511 10.085756,10.9816707 9.999818,10.9816707 L10,10.9816707 Z" id="Fill-34"></path>
                <path d="M14.9156,10.9816707 C14.38904,10.9816707 14.12498,10.7333926 13.93278,10.5511796 C13.752312,10.381692 13.6609,10.29655 13.42966,10.3761207 C12.45934,10.710317 10.92106,10.9816707 10.00066,10.9816707 C9.914722,10.9816707 9.84441,10.9108511 9.84441,10.8225272 C9.84441,10.7349978 9.913942,10.6633837 10.00066,10.6633837 C10.878,10.6633837 12.40306,10.3936393 13.33026,10.0745578 C13.73808,9.93292056 13.95448,10.1382152 14.14588,10.3180448 C14.326348,10.4875324 14.5115,10.6633837 14.91698,10.6633837 C15.002918,10.6633837 15.07323,10.7342033 15.07323,10.8225272 C15.070886,10.9108511 15.001354,10.9816707 14.915418,10.9816707 L14.9156,10.9816707 Z" id="Fill-35"></path>
                <path d="M19.8304,10.9816707 C19.30384,10.9816707 19.03978,10.7333926 18.84758,10.5511796 C18.667112,10.381692 18.57648,10.29655 18.34446,10.3761207 C17.37414,10.710317 15.83586,10.9816707 14.91546,10.9816707 C14.829522,10.9816707 14.75921,10.9108511 14.75921,10.8225272 C14.75921,10.7349978 14.828742,10.6633837 14.91546,10.6633837 C15.7928,10.6633837 17.31786,10.3936393 18.24506,10.0745578 C18.65366,9.93292056 18.86928,10.1382152 19.06068,10.3180448 C19.241148,10.4875324 19.4263,10.6633837 19.83178,10.6633837 C19.917718,10.6633837 19.98803,10.7342033 19.98803,10.8225272 C19.986468,10.9108511 19.916936,10.9816707 19.830218,10.9816707 L19.8304,10.9816707 Z" id="Fill-36"></path>
                <path d="M6.3328,0.81012963 C5.9242,0.81012963 5.72108,0.618360926 5.57264,0.478316667 C5.432016,0.345432593 5.380452,0.306441667 5.2367,0.356571111 C4.50546,0.607228519 3.35232,0.810137778 2.6657,0.810137778 C2.579762,0.810137778 2.50945,0.739318148 2.50945,0.650994259 C2.50945,0.563464815 2.578982,0.491850741 2.6657,0.491850741 C3.31258,0.491850741 4.4446,0.291330926 5.1367,0.0550081481 C5.46326,-0.0571877778 5.64138,0.109912407 5.78436,0.245183889 C5.918736,0.372498704 6.04608,0.491848704 6.33202,0.491848704 C6.417958,0.491848704 6.48827653,0.562668333 6.48827653,0.650992222 C6.489052,0.739316111 6.41952,0.810137778 6.332802,0.810137778 L6.3328,0.81012963 Z" id="Fill-37"></path>
                <path d="M10,0.81012963 C9.5914,0.81012963 9.38828,0.618360926 9.24062,0.478316667 C9.099996,0.345432593 9.048432,0.306441667 8.90468,0.356571111 C8.17344,0.607228519 7.0203,0.810137778 6.33368,0.810137778 C6.247742,0.810137778 6.17743,0.739318148 6.17743,0.650994259 C6.17743,0.563464815 6.246962,0.491850741 6.33368,0.491850741 C6.98056,0.491850741 8.11258,0.291330926 8.80468,0.0550081481 C9.13124,-0.0571877778 9.30936,0.109912407 9.45234,0.245183889 C9.586716,0.372498704 9.71406,0.491848704 10,0.491848704 C10.085938,0.491848704 10.15625,0.562668333 10.15625,0.650992222 C10.15625,0.739316111 10.085938,0.810137778 10,0.810137778 L10,0.81012963 Z" id="Fill-38"></path>
                <path d="M13.6672,0.81012963 C13.2586,0.81012963 13.05548,0.618360926 12.90626,0.478316667 C12.766416,0.346227037 12.714854,0.306441667 12.57188,0.356571111 C11.83984,0.607228519 10.68672,0.810932222 10.00008,0.810932222 C9.914142,0.810932222 9.84383,0.740112593 9.84383,0.651788704 C9.84383,0.564259259 9.913362,0.492645185 10.00008,0.492645185 C10.64774,0.492645185 11.77898,0.292123333 12.47108,0.0558025926 C12.79686,-0.0571898148 12.97498,0.110706852 13.11796,0.245978333 C13.252336,0.373293148 13.38046,0.493437593 13.6664,0.493437593 C13.752338,0.493437593 13.82265,0.564257222 13.82265,0.652581111 C13.82265,0.739314074 13.753118,0.810133704 13.667182,0.810133704 L13.6672,0.81012963 Z" id="Fill-39"></path>
                <path d="M17.3344,0.81012963 C16.9258,0.81012963 16.72268,0.618360926 16.57346,0.478316667 C16.433616,0.346227037 16.382054,0.306441667 16.23908,0.356571111 C15.50704,0.607228519 14.35392,0.810932222 13.66728,0.810932222 C13.581342,0.810932222 13.51103,0.740112593 13.51103,0.651788704 C13.51103,0.564259259 13.580562,0.492645185 13.66728,0.492645185 C14.31494,0.492645185 15.44618,0.292123333 16.13828,0.0558025926 C16.46484,-0.0571898148 16.64218,0.110706852 16.78516,0.245978333 C16.919536,0.373293148 17.04766,0.493437593 17.3336,0.493437593 C17.419538,0.493437593 17.48985,0.564257222 17.48985,0.652581111 C17.48985,0.739314074 17.420318,0.810133704 17.334382,0.810133704 L17.3344,0.81012963 Z" id="Fill-40"></path>
                <path d="M0.169532,10.3459257 C0.1562508,10.3459257 0.14297,10.3443165 0.128908,10.3403381 C0.046096,10.318057 -0.003903996,10.2305296 0.018752002,10.1453876 L2.515552,0.609609815 C2.537428,0.525264259 2.624146,0.475132778 2.706176,0.497413889 C2.788988,0.519695 2.838988,0.607222407 2.816332,0.691567963 L0.3203322,10.2281606 C0.3015822,10.2989802 0.2383002,10.3459257 0.16955014,10.3459257 L0.169532,10.3459257 Z" id="Fill-41"></path>
                <path d="M19.8304,10.3459074 C19.76165,10.3459074 19.698368,10.2989598 19.679618,10.2281422 L17.182818,0.692364444 C17.160162,0.607222407 17.210162,0.520489444 17.292974,0.498208333 C17.376568,0.475929259 17.461724,0.526058704 17.483598,0.610404259 L19.980398,10.146182 C20.00306,10.2305276 19.953054,10.318057 19.870242,10.3411326 C19.857742,10.3443165 19.84368,10.3459074 19.830398,10.3459074 L19.8304,10.3459074 Z" id="Fill-42"></path>
                <path d="M18.2946,9.74905556 C18.223506,9.74905556 18.158662,9.69892611 18.142256,9.62571907 L16.036056,0.241904259 C16.016524,0.156762222 16.06965,0.0708257407 16.153244,0.0517285185 C16.236838,0.0318348148 16.321212,0.0851481481 16.339962,0.171086667 L18.446162,9.55490148 C18.465694,9.64084 18.41335,9.72598 18.328974,9.74507722 C18.318036,9.74746463 18.306318,9.74905556 18.294598,9.74905556 L18.2946,9.74905556 Z" id="Fill-43"></path>
                <path d="M13.3796,9.74905556 C13.299912,9.74905556 13.231944,9.68698907 13.224132,9.60503093 L12.365532,0.221216111 C12.35772,0.133686667 12.421,0.0565033333 12.506156,0.0485446296 C12.590532,0.038995 12.668656,0.10424537 12.676468,0.191772778 L13.535068,9.57558759 C13.542882,9.66311704 13.4796,9.74030037 13.394444,9.74825907 C13.388976,9.74825907 13.384288,9.74905556 13.3796,9.74905556 Z" id="Fill-44"></path>
                <path d="M8.464,9.74905556 L8.456968,9.74905556 C8.37103,9.74507722 8.303844,9.67107574 8.30775,9.5835463 L8.69759,0.199731481 C8.701496,0.112202037 8.780402,0.0413844444 8.86009,0.0477501852 C8.946028,0.0517285185 9.013214,0.12573 9.009308,0.213259444 L8.619468,9.59707426 C8.616344,9.6822163 8.546812,9.74905556 8.464,9.74905556 Z" id="Fill-45"></path>
                <path d="M3.5484,9.74905556 C3.539024,9.74905556 3.530432,9.74826111 3.521056,9.74666815 C3.4359,9.73154926 3.37965,9.64879463 3.394494,9.56206167 L5.032774,0.178246852 C5.047618,0.0915138889 5.128086,0.0334257407 5.214024,0.0493411111 C5.29918,0.06446 5.35543,0.14721463 5.340586,0.233947593 L3.702306,9.61776241 C3.689024,9.69494778 3.622618,9.74905556 3.5484,9.74905556 Z" id="Fill-46"></path>
                <path d="M5.0852,10.3459074 C5.078168,10.3459074 5.071138,10.3459074 5.064888,10.3443165 C4.979732,10.3323815 4.919576,10.2528087 4.930512,10.1652793 L6.178952,0.629501481 C6.19067,0.542768519 6.268014,0.482292963 6.353952,0.492637037 C6.439108,0.504572037 6.499264,0.584144815 6.488328,0.670877778 L5.239888,10.2066556 C5.22895,10.2878193 5.161764,10.3459074 5.0852,10.3459074 L5.0852,10.3459074 Z" id="Fill-47"></path>
                <path d="M10,10.3459074 C9.914062,10.3459074 9.84375,10.2750878 9.84375,10.1867639 L9.84375,0.651597222 C9.84375,0.564067778 9.913282,0.492453704 10,0.492453704 C10.085938,0.492453704 10.15625,0.563273333 10.15625,0.651597222 L10.15625,10.187375 C10.15625,10.2749044 10.085938,10.345722 10,10.345722 L10,10.3459074 Z" id="Fill-48"></path>
                <path d="M14.9156,10.3459094 C14.838256,10.3459094 14.77185,10.2878193 14.760912,10.2082485 L13.512472,0.672470741 C13.501536,0.585737778 13.56091,0.505370556 13.646848,0.49423 C13.733566,0.483885926 13.81091,0.543565 13.82263,0.631094444 L15.07107,10.1668722 C15.082008,10.2544017 15.022632,10.3339724 14.936694,10.3459094 L14.9156,10.3459094 L14.9156,10.3459094 Z" id="Fill-49"></path>
                <path d="M19.8304,10.9816667 C19.744462,10.9816667 19.67415,10.910847 19.67415,10.8225231 L19.67415,10.1867435 C19.67415,10.0992141 19.743682,10.0276 19.8304,10.0276 C19.916338,10.0276 19.98665,10.0984196 19.98665,10.1867435 L19.98665,10.8225231 C19.98665,10.910847 19.917118,10.9816667 19.8304,10.9816667 Z" id="Fill-50"></path>
                <path d="M0.169532,10.9816667 C0.083594,10.9816667 0.013282002,10.910847 0.013282002,10.8225231 L0.013282002,10.1867435 C0.013282002,10.0992141 0.082814,10.0276 0.169532,10.0276 C0.25547,10.0276 0.325782,10.0984196 0.325782,10.1867435 L0.325782,10.8225231 C0.325782,10.910847 0.25547,10.9816667 0.169532,10.9816667 Z" id="Fill-51"></path>
            </g>
        </g>
    </g>
</svg>