<?xml version="1.0" encoding="UTF-8"?>
<svg width="17px" height="20px" viewBox="0 0 17 20" version="1.1" xmlns="http://www.w3.org/2000/svg" xmlns:xlink="http://www.w3.org/1999/xlink">
    <!-- Generator: Sketch 55.2 (78181) - https://sketchapp.com -->
    <title>Safe</title>
    <desc>Created with Sketch.</desc>
    <g id="Listing-Page" stroke="none" stroke-width="1" fill="none" fill-rule="evenodd">
        <g id="7.2" transform="translate(-396.000000, -1017.000000)" fill="#000000">
            <g id="Safe" transform="translate(396.000000, 1017.000000)">
                <path d="M7.21277193,11.6760606 C7.42713596,11.4487879 7.41781579,11.0889394 7.19413158,10.8723333 C6.72695965,10.4189697 6.46948421,9.807 6.46948421,9.15121212 C6.46948421,7.83848485 7.52032281,6.77075758 8.81235263,6.77075758 C10.1043825,6.77075758 11.1552211,7.83845455 11.1552211,9.15121212 C11.1552211,10.4639697 10.1043825,11.5316667 8.81235263,11.5316667 C8.67371614,11.5316667 8.53507667,11.5198303 8.40110175,11.4949727 C8.09587719,11.4405212 7.80693684,11.6464879 7.75217895,11.9554273 C7.69742404,12.2643667 7.90013561,12.5591242 8.20536316,12.6147606 C8.40458228,12.6502727 8.60963509,12.6692121 8.81235263,12.6692121 C10.7206474,12.6692121 12.273493,11.0913333 12.273493,9.15254545 C12.273493,7.21375758 10.7216912,5.63587879 8.81235263,5.63587879 C6.90405789,5.63587879 5.35121228,7.21375758 5.35121228,9.15254545 C5.35121228,10.122 5.73099825,11.0263636 6.42185439,11.6963333 C6.6455386,11.9117697 6.99970526,11.9034818 7.21289123,11.6762091 L7.21277193,11.6760606 Z" id="Fill-1"></path>
                <path d="M8.81345614,9.93363636 C9.0604393,9.93363636 9.26082456,9.73003636 9.26082456,9.47909091 L9.26082456,9.30390303 C9.33305667,9.20683939 9.37499596,9.08846667 9.37499596,8.96653939 C9.37499596,8.81857576 9.31557947,8.67297879 9.20723281,8.56644848 C9.00218895,8.35456364 8.62589246,8.35456364 8.41735912,8.56644848 C8.31250789,8.67298182 8.2530914,8.81739394 8.2530914,8.96653939 C8.2530914,9.0908303 8.2950307,9.2092 8.36726281,9.30626667 L8.36726281,9.47908788 C8.36609667,9.73003333 8.56648193,9.93363636 8.81346807,9.93363636 L8.81345614,9.93363636 Z" id="Fill-2"></path>
                <path d="M15.3283333,0.242727273 L1.58457895,0.242727273 C0.735264912,0.242727273 0.0444087719,0.944666667 0.0444087719,1.80878788 L0.0444087719,16.7863636 C0.0444087719,17.4196364 0.418378947,17.9641515 0.951970175,18.2091818 C0.957794912,19.1786364 1.73370175,19.9646364 2.68901228,19.9646364 C3.59657368,19.9646364 4.34335088,19.2532121 4.41907544,18.3512424 L12.5149526,18.3512424 C12.5918433,19.2544242 13.3374544,19.9646364 14.2450158,19.9646364 C15.2038158,19.9646364 15.9832211,19.1727273 15.9832211,18.1997273 L15.9843842,18.1973606 C16.5051509,17.9464152 16.8698158,17.4101788 16.8698158,16.7863909 L16.8686526,1.80881515 C16.8686526,0.945875758 16.1777965,0.242727273 15.3284825,0.242727273 L15.3283333,0.242727273 Z M1.16285965,1.80878788 C1.16285965,1.57204545 1.3527586,1.37909091 1.58460877,1.37909091 L15.3271702,1.37909091 C15.5601746,1.37909091 15.7489193,1.57203636 15.7489193,1.80878788 L15.7489193,16.7863636 C15.7489193,17.0231061 15.5590204,17.2148788 15.3271702,17.2148788 L1.58460877,17.2148788 C1.35160439,17.2148788 1.16285965,17.0219333 1.16285965,16.7863636 L1.16285965,1.80878788 Z M2.69020526,18.8281818 C2.40011368,18.8281818 2.15897018,18.6245848 2.09022456,18.3511515 L3.28902281,18.3511515 C3.22145228,18.6245879 2.97911579,18.8281818 2.69020526,18.8281818 Z M14.2460298,18.8281818 C13.9559382,18.8281818 13.7147947,18.6245848 13.6472123,18.3511515 L14.8460105,18.3511515 C14.7772739,18.6245879 14.5349404,18.8281818 14.2460298,18.8281818 Z" id="Fill-3"></path>
                <path d="M2.69017544,11.1530303 C2.95579895,11.1530303 3.17133509,10.9340424 3.17133509,10.6641515 L3.17133509,7.90727273 C3.17133509,7.63738788 2.95580491,7.41839394 2.69017544,7.41839394 C2.42454596,7.41839394 2.2090111,7.63738182 2.2090111,7.90727273 L2.2090111,10.6641515 C2.20784965,10.9340364 2.42454596,11.1530303 2.69017544,11.1530303 Z" id="Fill-4"></path>
            </g>
        </g>
    </g>
</svg>