<?xml version="1.0" encoding="UTF-8"?>
<svg width="20px" height="14px" viewBox="0 0 20 14" version="1.1" xmlns="http://www.w3.org/2000/svg" xmlns:xlink="http://www.w3.org/1999/xlink">
    <!-- Generator: Sketch 55.2 (78181) - https://sketchapp.com -->
    <title>Sheets and Towels</title>
    <desc>Created with Sketch.</desc>
    <g id="Listing-Page" stroke="none" stroke-width="1" fill="none" fill-rule="evenodd">
        <g id="7.1" transform="translate(-24.000000, -3140.000000)" fill="#000000" fill-rule="nonzero">
            <path d="M43.6632646,3141.51241 C43.1594454,3140.56589 42.2111576,3140 41.1284714,3140 L32.8056069,3140 C31.7604547,3140 30.761335,3140.44161 30.0436502,3141.23603 L24.8904771,3147.90643 C24.3163492,3148.61902 24,3149.51303 24,3150.42398 L24,3151.16976 C24,3151.18057 24,3151.19138 24.0007811,3151.20219 C24.0468677,3152.75245 25.3365068,3154 26.9159133,3154 L35.2481762,3154 C35.3028554,3154 35.3559709,3153.98919 35.405183,3153.96989 C36.4346978,3153.83865 37.368148,3153.28123 37.9657721,3152.42351 L43.4898857,3144.43286 C44.1015075,3143.5512 44.1678969,3142.45799 43.6632958,3141.51232 L43.6632646,3141.51241 Z M42.8016829,3143.96672 L37.2775693,3151.95736 C36.7471944,3152.72091 35.8699752,3153.17642 34.9325456,3153.17642 L26.9158321,3153.17642 C25.7675764,3153.17642 24.8325664,3152.25228 24.8325664,3151.11739 C24.8325664,3149.98249 25.7675764,3149.05836 26.9158321,3149.05915 L34.4146287,3149.05915 C35.1035782,3149.05915 35.6644282,3149.61348 35.6644282,3150.29441 C35.6644282,3150.97534 35.1035782,3151.52967 34.4146287,3151.52967 L26.9158321,3151.52967 C26.6861889,3151.52967 26.4994989,3151.34515 26.4994989,3151.11818 C26.4994989,3150.89121 26.6861869,3150.70669 26.9158321,3150.70669 L34.4146287,3150.70669 C34.6442719,3150.70669 34.8309619,3150.52217 34.8309619,3150.2952 C34.8309619,3150.06823 34.6442739,3149.88371 34.4146287,3149.88371 L26.9158321,3149.88371 C26.2268826,3149.88371 25.6660326,3150.43804 25.6660326,3151.11897 C25.6660326,3151.7999 26.2268826,3152.35423 26.9158321,3152.35423 L34.4146287,3152.35423 C35.5628845,3152.35423 36.4978944,3151.4301 36.4978944,3150.2952 C36.4978944,3149.1603 35.5628845,3148.23617 34.4146287,3148.23617 L26.9158321,3148.23617 C26.3393646,3148.23617 25.801171,3148.40139 25.3489035,3148.68859 C25.4098318,3148.59363 25.4762271,3148.50253 25.5480896,3148.41375 L30.686265,3141.76114 C31.2260184,3141.16591 31.9985545,3140.82389 32.8069247,3140.82389 L41.1297891,3140.82389 C41.8968461,3140.82389 42.5686183,3141.22457 42.9263808,3141.89625 C43.2833636,3142.56714 43.2364911,3143.3415 42.8014009,3143.96694 L42.8016829,3143.96672 Z" id="Sheets-and-Towels"></path>
        </g>
    </g>
</svg>