<?xml version="1.0" encoding="UTF-8"?>
<svg width="25px" height="19px" viewBox="0 0 25 19" version="1.1" xmlns="http://www.w3.org/2000/svg" xmlns:xlink="http://www.w3.org/1999/xlink">
    <!-- Generator: Sketch 55.2 (78181) - https://sketchapp.com -->
    <title>Stocked Kitchen</title>
    <desc>Created with Sketch.</desc>
    <g id="Listing-Page" stroke="none" stroke-width="1" fill="none" fill-rule="evenodd">
        <g id="7.2" transform="translate(-392.000000, -896.000000)" fill="#000000">
            <path d="M407.54882,899.317455 L406.024436,899.317455 L406.024436,896.301587 C406.024436,896.221479 405.992281,896.144903 405.935117,896.088356 C405.877952,896.031808 405.800541,896 405.71956,896 L403.280546,896 C403.112626,896 402.975669,896.135479 402.975669,896.301587 L402.975669,899.317455 L401.451285,899.317455 L401.451285,896.301587 C401.451285,896.221479 401.41913,896.144903 401.361965,896.088356 C401.304801,896.031808 401.22739,896 401.146408,896 L398.707394,896 C398.539474,896 398.402517,896.135479 398.402517,896.301587 L398.402517,899.317455 L396.878133,899.317455 L396.878133,896.301587 C396.878133,896.221479 396.845978,896.144903 396.788814,896.088356 C396.731649,896.031808 396.654238,896 396.573257,896 L394.134243,896 C393.966323,896 393.829366,896.135479 393.829366,896.301587 L393.829366,899.317455 L392.304982,899.317455 C392.137062,899.317455 392.000105,899.452934 392.000105,899.619042 C392.000105,899.78515 392.137062,899.920629 392.304982,899.920629 L407.54882,899.920629 C407.71674,899.920629 407.853697,899.78515 407.853697,899.619042 C407.853697,899.452934 407.71674,899.317455 407.54882,899.317455 Z M396.26838,899.317455 L394.439119,899.317455 L394.439119,897.507934 L396.26838,897.507934 L396.26838,899.317455 Z M396.26838,896.90476 L394.439119,896.90476 L394.439119,896.603174 L396.26838,896.603174 L396.26838,896.90476 Z M400.841531,899.317455 L399.012271,899.317455 L399.012271,897.507934 L400.841531,897.507934 L400.841531,899.317455 Z M400.841531,896.90476 L399.012271,896.90476 L399.012271,896.603174 L400.841531,896.603174 L400.841531,896.90476 Z M405.414683,899.317455 L403.585422,899.317455 L403.585422,897.507934 L405.414683,897.507934 L405.414683,899.317455 Z M405.414683,896.90476 L403.585422,896.90476 L403.585422,896.603174 L405.414683,896.603174 L405.414683,896.90476 Z M415.780493,896 L409.682958,896 C409.008906,896 408.463451,896.539569 408.463451,897.206347 L408.463451,913.793623 C408.463451,914.114059 408.592072,914.42035 408.820736,914.64654 C409.049399,914.87273 409.359026,914.99997 409.682958,914.99997 L415.780493,914.99997 C416.104424,914.99997 416.414057,914.872736 416.642715,914.64654 C416.871372,914.420344 417,914.114059 417,913.793623 L417,897.206347 C417,896.885911 416.871379,896.57962 416.642715,896.35343 C416.414051,896.127239 416.104424,896 415.780493,896 Z M416.390246,913.793623 C416.390246,913.953841 416.325936,914.107001 416.211607,914.220096 C416.097278,914.333192 415.942459,914.396808 415.780481,914.396808 L409.682945,914.396808 C409.345904,914.396808 409.073192,914.12703 409.073192,913.793635 L409.073192,903.539683 L416.390246,903.539683 L416.390246,913.793623 Z M416.390259,902.936497 L409.073204,902.936497 L409.073204,897.206347 C409.073204,896.872943 409.345925,896.603174 409.682958,896.603174 L415.780493,896.603174 C415.942459,896.603174 416.09729,896.66679 416.211619,896.779885 C416.325948,896.89298 416.390259,897.046129 416.390259,897.206359 L416.390259,902.936497 Z M409.987834,906.253952 L409.987834,904.746018 C409.987834,904.57991 410.124791,904.444431 410.292711,904.444431 C410.460631,904.444431 410.597588,904.57991 410.597588,904.746018 L410.597588,906.253952 C410.597588,906.42006 410.460631,906.555539 410.292711,906.555539 C410.124791,906.555539 409.987834,906.42006 409.987834,906.253952 Z M410.597588,900.222216 L410.597588,901.73015 C410.597588,901.896258 410.460631,902.031736 410.292711,902.031736 C410.124791,902.031736 409.987834,901.896258 409.987834,901.73015 L409.987834,900.222216 C409.987834,900.056108 410.124791,899.920629 410.292711,899.920629 C410.460631,899.920629 410.597588,900.056108 410.597588,900.222216 Z M407.54882,906.857126 L403.585422,906.857126 L403.585422,906.389425 C404.110633,906.317563 404.501242,905.87344 404.501242,905.349192 C404.501242,904.824943 404.110633,904.380826 403.585422,904.308958 L403.585422,903.841257 C403.585422,903.76115 403.553267,903.684574 403.496103,903.628026 C403.438938,903.571479 403.361527,903.539671 403.280546,903.539671 L400.841531,903.539671 C400.673611,903.539671 400.536655,903.675149 400.536655,903.841257 L400.536655,906.857126 L397.751087,906.857126 C398.466846,906.464821 398.936052,905.743848 399.00157,904.936862 L399.148054,904.865 L399.146862,904.865 C399.251663,904.814342 399.317163,904.709496 399.317163,904.595221 C399.315974,903.679845 398.565703,902.93767 397.640341,902.936494 C397.390247,902.937673 397.144916,902.996576 396.921014,903.106136 C396.682829,902.727977 396.300529,902.462912 395.859891,902.369842 C395.364466,902.263817 394.847608,902.385157 394.452214,902.700894 C394.058008,903.015449 393.829351,903.490207 393.829351,903.992048 C393.831735,904.332509 393.941298,904.664737 394.143739,904.940388 C394.210431,905.746197 394.679652,906.465995 395.395411,906.857123 L392.304877,906.857123 C392.136957,906.857123 392,906.992601 392,907.158709 C392,907.324817 392.136957,907.460296 392.304877,907.460296 L407.548714,907.460296 C407.716634,907.460296 407.85359,907.324817 407.85359,907.158709 C407.85359,906.992601 407.716634,906.857123 407.548714,906.857123 L407.54882,906.857126 Z M403.585422,904.9251 C403.767635,904.987538 403.890299,905.158359 403.890299,905.349192 C403.890299,905.540024 403.767635,905.710854 403.585422,905.773283 L403.585422,904.9251 Z M397.13423,904.376122 C397.140184,904.351382 397.144949,904.326643 397.149712,904.301904 L397.149712,904.300725 C397.165193,904.224149 397.173532,904.147576 397.177105,904.069821 C397.177105,904.052151 397.180675,904.034478 397.180675,904.016808 C397.180675,904.008563 397.183059,904.000317 397.183059,903.992069 C397.181867,903.915493 397.175913,903.83892 397.162812,903.762344 C397.160431,903.745853 397.162812,903.730536 397.159239,903.714042 C397.155666,903.697548 397.149712,903.681054 397.14733,903.663385 C397.298577,903.582098 397.467695,903.539686 397.640377,903.539686 C398.159613,903.540865 398.603849,903.910788 398.691958,904.416157 L398.635986,904.444431 L397.119925,904.444431 C397.125879,904.422047 397.12826,904.398487 397.134215,904.376104 L397.13423,904.376122 Z M394.43918,903.992081 C394.441561,903.484329 394.808356,903.050798 395.312134,902.957729 C395.817071,902.865838 396.316093,903.14151 396.501855,903.615097 C396.504236,903.622167 396.504236,903.630412 396.50662,903.637481 L396.505428,903.637481 C396.548299,903.748221 396.570927,903.864851 396.573312,903.983824 C396.573312,904.029767 396.57093,904.075714 396.564976,904.121658 L396.564976,904.138152 C396.549492,904.244177 396.518531,904.347848 396.473275,904.444443 L394.546363,904.444443 C394.476098,904.304253 394.43918,904.148746 394.43918,903.992063 L394.43918,903.992081 Z M394.769057,905.047635 L398.377578,905.047635 C398.228713,905.919402 397.466515,906.556745 396.573318,906.556745 C395.68012,906.556745 394.917928,905.919402 394.769057,905.047635 Z M402.97573,906.857156 L401.146469,906.857156 L401.146469,904.142874 L402.97573,904.142874 L402.97573,906.857156 Z M405.719621,907.761916 L394.134304,907.761916 C393.966383,907.761916 393.829427,907.897395 393.829427,908.063503 L393.829427,914.698413 C393.829427,914.778521 393.861582,914.855097 393.918747,914.911644 C393.975911,914.968192 394.053322,915 394.134304,915 L405.719621,915 C405.800602,915 405.878013,914.968192 405.935178,914.911644 C405.992342,914.855097 406.024497,914.778521 406.024497,914.698413 L406.024497,908.063503 C406.024497,907.983396 405.992342,907.90682 405.935178,907.850272 C405.878013,907.793725 405.800602,907.761916 405.719621,907.761916 Z M399.622085,914.396826 L394.43918,914.396826 L394.43918,911.682545 L399.622085,911.682545 L399.622085,914.396826 Z M399.622085,911.079371 L394.43918,911.079371 L394.43918,908.36509 L399.622085,908.36509 L399.622085,911.079371 Z M402.670853,914.396826 L400.231839,914.396826 L400.231839,908.36509 L402.670853,908.36509 L402.670853,914.396826 Z M405.414744,914.396826 L403.280607,914.396826 L403.280607,908.36509 L405.414744,908.36509 L405.414744,914.396826 Z" id="Stocked-Kitchen"></path>
        </g>
    </g>
</svg>