<?xml version="1.0" encoding="UTF-8"?>
<svg width="15px" height="20px" viewBox="0 0 15 20" version="1.1" xmlns="http://www.w3.org/2000/svg" xmlns:xlink="http://www.w3.org/1999/xlink">
    <!-- Generator: Sketch 55.2 (78181) - https://sketchapp.com -->
    <title>Stove</title>
    <desc>Created with Sketch.</desc>
    <g id="Listing-Page" stroke="none" stroke-width="1" fill="none" fill-rule="evenodd">
        <g id="7.2" transform="translate(-398.000000, -783.000000)" fill="#000000">
            <g id="Stove" transform="translate(398.000000, 783.000000)">
                <path d="M14.53125,0.2344925 L0.46875,0.2344925 C0.25293,0.2344925 0.078125,0.409305 0.078125,0.625125 L0.078125,19.375125 C0.078125,19.47864 0.11914,19.57825 0.1923825,19.6515 C0.265625,19.72475 0.365235,19.7657575 0.4687575,19.7657575 L14.5312575,19.7657575 C14.6347725,19.7657575 14.7343825,19.7247425 14.8076325,19.6515 C14.8808825,19.5782575 14.92189,19.4786475 14.92189,19.375125 L14.92189,0.625125 C14.92189,0.52161 14.880875,0.422 14.8076325,0.34875 C14.73439,0.2755 14.63478,0.2344925 14.5312575,0.2344925 L14.53125,0.2344925 Z M10.625,10.39075 L4.375,10.39075 L4.375,9.6095 L10.625,9.6095 L10.625,10.39075 Z M4.375,11.172 L10.625,11.172 L10.625,17.422 L4.375,17.422 L4.375,11.172 Z M11.40625,10.781375 L11.40625,9.218875 C11.40625,9.11536 11.365235,9.01575 11.2919925,8.9425 C11.21875,8.86925 11.11914,8.8282425 11.0156175,8.8282425 L3.9843675,8.8282425 C3.7685475,8.8282425 3.5937425,9.0030475 3.5937425,9.2188675 L3.5937425,17.4218675 L0.8592425,17.4218675 L0.8592425,4.1406175 L14.1404925,4.1406175 L14.1404925,17.4218675 L11.4059925,17.4218675 L11.40625,10.781375 Z M0.85925,1.015875 L14.1405,1.015875 L14.1405,3.359625 L0.85925,3.359625 L0.85925,1.015875 Z M14.1405,18.984625 L0.85925,18.984625 L0.85925,18.203375 L14.1405,18.203375 L14.1405,18.984625 Z" id="Fill-1"></path>
                <path d="M8.03125,12.61325 L5.97265,11.68355 C5.8173775,11.614215 5.635725,11.6532775 5.52245,11.78023 C5.40917,11.9062075 5.390615,12.091755 5.4765525,12.23823 L6.3281025,13.67183 L6.0038775,13.4296425 C5.8886425,13.3427275 5.7343525,13.3271025 5.6034775,13.38765 C5.4726175,13.4491725 5.385705,13.57808 5.3788675,13.7226 L5.3124625,14.9804 C5.2743775,15.6259 5.5692875,16.246025 6.0937125,16.624925 C6.3798375,16.8290275 6.7226125,16.9384 7.0741875,16.9374409 L8.6366875,16.9374409 C8.74411,16.9384 8.847625,16.894455 8.9218375,16.81633 L9.0507425,16.67961 C9.6942925,15.996985 9.8769175,14.998935 9.5155925,14.13261 C9.2323925,13.45586 8.7011425,12.91191 8.0312175,12.613085 L8.03125,12.61325 Z M8.47655,16.12875 L7.082025,16.12875 C6.8925725,16.1297275 6.708975,16.070155 6.554675,15.96078 C6.242175,15.7400775 6.065425,15.373855 6.085925,14.99203 L6.11327,14.46078 L6.718745,14.949055 C6.93359,15.1101875 7.23242,15.096515 7.43262,14.9168275 C7.63184,14.73714 7.67676,14.4412525 7.539065,14.2107775 L6.757815,12.9100025 L7.691415,13.3318775 C8.17969,13.551605 8.56544,13.9500525 8.76954,14.4451525 C9.01368,15.0213275 8.8994225,15.6873525 8.476565,16.1482775 L8.47655,16.12875 Z" id="Fill-2"></path>
            </g>
        </g>
    </g>
</svg>