<?xml version="1.0" encoding="UTF-8"?>
<svg width="100px" height="76px" viewBox="0 0 100 76" version="1.1" xmlns="http://www.w3.org/2000/svg" xmlns:xlink="http://www.w3.org/1999/xlink">
    <!-- Generator: Sketch 55.2 (78181) - https://sketchapp.com -->
    <title>Video</title>
    <desc>Created with Sketch.</desc>
    <g id="Video" stroke="none" stroke-width="1" fill="none" fill-rule="evenodd">
        <path d="M10,7 L10,55 L90,55 L90,7 L10,7 Z M14,11 L86,11 L86,51 L14,51 L14,11 Z M41.844,16.9375 C40.85962,17.01562 40.0159,17.9727 40.0312871,19 L40.0312871,43 C40.04322,44.4141 41.7893,45.4531 42.969,44.75 L62.969,32.75 C64.1565,32.03906 64.1565,29.9297 62.969,29.2188 L42.969,17.2188 C42.63306,17.01177 42.23462,16.91021 41.844,16.93755 L41.844,16.9375 Z M43.969,22.5313 L58.063,31.0001 L43.969,39.4376 L43.969,22.5313 Z M25,59.0003 C22.9531,59.0003 21.2109,60.2425 20.4375,62.0003 L16,62.0003 C14.8945,62.0003 14,62.89483 14,64.0003 C14,65.10577 14.89453,66.0003 16,66.0003 L20.4375,66.0003 C21.21094,67.7581 22.9531,69.0003 25,69.0003 C27.0469,69.0003 28.7891,67.7581 29.5625,66.0003 L84.0005,66.0003 C85.106,66.0003 86.0005,65.10577 86.0005,64.0003 C86.0005,62.89483 85.10597,62.0003 84.0005,62.0003 L29.5625,62.0003 C28.78906,60.2425 27.0469,59.0003 25,59.0003 Z" id="Fill-1" fill="#000000"></path>
    </g>
</svg>