<?xml version="1.0" encoding="UTF-8"?>
<svg width="24px" height="24px" viewBox="0 0 24 24" version="1.1" xmlns="http://www.w3.org/2000/svg" xmlns:xlink="http://www.w3.org/1999/xlink">
    <!-- Generator: Sketch 55.2 (78181) - https://sketchapp.com -->
    <title>TV Room</title>
    <desc>Created with Sketch.</desc>
    <g id="Listing-Page" stroke="none" stroke-width="1" fill="none" fill-rule="evenodd">
        <g id="7.2" transform="translate(-396.000000, -197.000000)" fill="#000000">
            <g id="TV-Room" transform="translate(396.000000, 197.000000)">
                <path d="M11.4468,20.1996 L12.46164,20.1996 C12.628047,20.1996 12.76164,20.064834 12.76164,19.8996 C12.76164,19.734366 12.628047,19.5996 12.46164,19.5996 L11.4468,19.5996 C11.280393,19.5996 11.1468,19.734366 11.1468,19.8996 C11.1468,20.066007 11.280393,20.1996 11.4468,20.1996 Z" id="Fill-1"></path>
                <path d="M19.7391,19.5996 L18.72426,19.5996 C18.557853,19.5996 18.42426,19.734366 18.42426,19.8996 C18.42426,20.064834 18.557853,20.1996 18.72426,20.1996 L19.7391,20.1996 C19.905507,20.1996 20.0391,20.064834 20.0391,19.8996 C20.0391,19.734366 19.905507,19.5996 19.7391,19.5996 Z" id="Fill-2"></path>
                <path d="M5.1819,19.5996 L4.16706,19.5996 C4.000653,19.5996 3.86706,19.734366 3.86706,19.8996 C3.86706,20.064834 4.000653,20.1996 4.16706,20.1996 L5.1819,20.1996 C5.348307,20.1996 5.4819,20.064834 5.4819,19.8996 C5.4819,19.734366 5.348307,19.5996 5.1819,19.5996 Z" id="Fill-3"></path>
                <path d="M23.7,10.9887 L13.2681,10.9887 L13.2681,9.66096 L20.1435,9.66096 C20.309907,9.66096 20.4435,9.526194 20.4435,9.36096 L20.442327,0.30006 C20.442327,0.134826 20.308734,6.00000024e-05 20.142327,6.00000024e-05 L3.93993,6.00000024e-05 C3.773523,6.00000024e-05 3.63993,0.134826 3.63993,0.30006 L3.63993,9.36096 C3.63993,9.526194 3.773523,9.66096 3.93993,9.66096 L10.598427,9.66096 L10.598427,10.9887 L0.30003,10.9887 C0.133623,10.9887 3.00000012e-05,11.123466 3.00000012e-05,11.2887 L3.00000012e-05,13.36293 C3.00000012e-05,13.528164 0.133623,13.66293 0.30003,13.66293 L0.81567,13.66293 L0.81567,21.54723 C0.81567,21.712464 0.949263,21.84723 1.11567,21.84723 L1.58208,21.84723 L1.58208,23.69997 C1.58208,23.865204 1.715673,23.99997 1.88208,23.99997 L5.25588,23.99997 C5.422287,23.99997 5.55588,23.865204 5.55588,23.69997 L5.55588,21.84723 L18.45108,21.84723 L18.45108,23.69997 C18.45108,23.865204 18.584673,23.99997 18.75108,23.99997 L22.12488,23.99997 C22.291287,23.99997 22.42488,23.865204 22.42488,23.69997 L22.42488,21.84723 L22.80456,21.84723 C22.970967,21.84723 23.10456,21.712464 23.10456,21.54723 L23.10456,13.66173 L23.69988,13.66173 C23.866287,13.66173 23.99988,13.526964 23.99988,13.36173 L23.99988,11.28867 C23.99988,11.123436 23.866287,10.98867 23.69988,10.98867 L23.7,10.9887 Z M4.2399,0.6 L19.8423,0.6 L19.8423,9.0609 L4.2399,9.0609 L4.2399,0.6 Z M11.1984,9.6609 L12.66792,9.6609 L12.66792,10.98864 L11.1984,10.98864 L11.1984,9.6609 Z M1.4157,18.5073 L7.9887,18.5073 L7.9887,21.24714 L1.4157,21.24714 L1.4157,18.5073 Z M15.4113,18.5073 L15.4113,21.24714 L8.5887,21.24714 L8.5887,18.5073 L15.4113,18.5073 Z M4.9557,23.4 L2.18187,23.4 L2.18187,21.84726 L4.9557,21.84726 L4.9557,23.4 Z M21.8247,23.4 L19.05087,23.4 L19.05087,21.84726 L21.8247,21.84726 L21.8247,23.4 Z M16.011,21.24726 L16.011,18.50742 L22.5045,18.50742 L22.5045,21.24726 L16.011,21.24726 Z M22.5045,17.90736 L1.4154,17.90736 L1.4154,13.66176 L22.5045,13.66176 L22.5045,17.90736 Z M23.39982,13.06176 L0.59982,13.06176 L0.59982,11.5887 L23.39982,11.5887 L23.39982,13.06176 Z" id="Fill-4"></path>
            </g>
        </g>
    </g>
</svg>