<?xml version="1.0" encoding="UTF-8"?>
<svg width="101px" height="91px" viewBox="0 0 101 91" version="1.1" xmlns="http://www.w3.org/2000/svg" xmlns:xlink="http://www.w3.org/1999/xlink">
    <!-- Generator: Sketch 55.2 (78181) - https://sketchapp.com -->
    <title>Wifi</title>
    <desc>Created with Sketch.</desc>
    <g id="Wifi" stroke="none" stroke-width="1" fill="none" fill-rule="evenodd">
        <g id="Group-8" transform="translate(2.000000, 9.000000)" fill="#000000">
            <path d="M6.63032442,24.8565848 C5.09742462,26.3811384 2.6825745,26.3811384 1.1496747,24.8565848 C-0.383224901,23.3320311 -0.383224901,20.9303291 1.1496747,19.4057755 C14.3023813,6.54247453 31.403613,0 48.5,0 C65.6002627,0 82.6976185,6.5425709 95.8503252,19.4057755 C97.3832249,20.9303291 97.3832249,23.3320311 95.8503252,24.8565848 C94.3174254,26.3811384 91.9025752,26.3811384 90.3696754,24.8565848 C78.7498686,13.3000441 63.6243529,7.63067047 48.4998061,7.63067047 C33.3752594,7.63067047 18.0268821,13.2998514 6.62994071,24.8565848 L6.63032442,24.8565848 Z" id="Fill-1"></path>
            <path d="M6.63032442,24.8565848 C5.09742462,26.3811384 2.6825745,26.3811384 1.1496747,24.8565848 C-0.383224901,23.3320311 -0.383224901,20.9303291 1.1496747,19.4057755 C14.3023813,6.54247453 31.403613,0 48.5,0 C65.6002627,0 82.6976185,6.5425709 95.8503252,19.4057755 C97.3832249,20.9303291 97.3832249,23.3320311 95.8503252,24.8565848 C94.3174254,26.3811384 91.9025752,26.3811384 90.3696754,24.8565848 C78.7498686,13.3000441 63.6243529,7.63067047 48.4998061,7.63067047 C33.3752594,7.63067047 18.0268821,13.2998514 6.62994071,24.8565848 L6.63032442,24.8565848 Z" id="Fill-2"></path>
            <path d="M19.4749256,37.831484 C17.9405164,39.3895053 15.5232884,39.3895053 13.9888792,37.831484 C12.6703736,36.2734627 12.6703736,33.8190375 13.9888792,32.4840831 C23.422877,22.9049111 35.7130874,18 48,18 C60.2869126,18 72.5777049,22.9011687 82.0111208,32.4840831 C83.3296264,33.8228784 83.3296264,36.2734627 82.0111208,37.831484 C80.4767116,39.3895053 78.0594836,39.3895053 76.5250744,37.831484 C68.6255828,29.8104318 58.3129369,25.7976898 47.999806,25.7976898 C37.6866751,25.7976898 27.3735443,29.8101364 19.4745376,37.831484 L19.4749256,37.831484 Z" id="Fill-3"></path>
            <path d="M19.4749256,37.831484 C17.9405164,39.3895053 15.5232884,39.3895053 13.9888792,37.831484 C12.6703736,36.2734627 12.6703736,33.8190375 13.9888792,32.4840831 C23.422877,22.9049111 35.7130874,18 48,18 C60.2869126,18 72.5777049,22.9011687 82.0111208,32.4840831 C83.3296264,33.8228784 83.3296264,36.2734627 82.0111208,37.831484 C80.4767116,39.3895053 78.0594836,39.3895053 76.5250744,37.831484 C68.6255828,29.8104318 58.3129369,25.7976898 47.999806,25.7976898 C37.6866751,25.7976898 27.3735443,29.8101364 19.4745376,37.831484 L19.4749256,37.831484 Z" id="Fill-4"></path>
            <path d="M33.4491233,51.847342 C31.9208286,53.3842193 29.5132332,53.3842193 27.9849386,51.847342 C26.6716871,50.3104648 26.6716871,47.8893487 27.9849386,46.5725111 C33.6680307,40.8575037 41.0981318,38 48.5290057,38 C55.9598796,38 63.3897875,40.8575037 68.853779,46.5725111 C70.3820737,47.8931375 70.3820737,50.3104648 68.853779,51.847342 C67.5405276,53.3842193 65.1366998,53.3842193 63.6084051,51.847342 C59.4573752,47.6730007 53.9931905,45.6921582 48.5292955,45.6921582 C43.0654006,45.6921582 37.6013125,47.6693091 33.450186,51.847342 L33.4491233,51.847342 Z" id="Fill-5"></path>
            <path d="M33.4491233,51.847342 C31.9208286,53.3842193 29.5132332,53.3842193 27.9849386,51.847342 C26.6716871,50.3104648 26.6716871,47.8893487 27.9849386,46.5725111 C33.6680307,40.8575037 41.0981318,38 48.5290057,38 C55.9598796,38 63.3897875,40.8575037 68.853779,46.5725111 C70.3820737,47.8931375 70.3820737,50.3104648 68.853779,51.847342 C67.5405276,53.3842193 65.1366998,53.3842193 63.6084051,51.847342 C59.4573752,47.6730007 53.9931905,45.6921582 48.5292955,45.6921582 C43.0654006,45.6921582 37.6013125,47.6693091 33.450186,51.847342 L33.4491233,51.847342 Z" id="Fill-6"></path>
            <path d="M54.5630358,59.467953 C57.8123214,62.758557 57.8123214,68.2417338 54.5630358,71.532047 C51.096844,74.822651 45.8994229,74.822651 42.4369642,71.532047 C39.1876786,68.241443 39.1876786,62.7582662 42.4369642,59.467953 C45.903156,56.177349 51.1005771,56.177349 54.5630358,59.467953 Z" id="Fill-7"></path>
        </g>
    </g>
</svg>