<svg xmlns="http://www.w3.org/2000/svg" width="136" height="27" viewBox="0 0 136 27">
    <g fill="#F5F5F7" fill-rule="evenodd">
        <g>
            <path fill-rule="nonzero" d="M12.328 14.494l1.797 4.981h1.798L8.989 1.083H7.19L.128 19.603h1.798l1.798-4.981h8.604v-.128zM8.09 2.872l3.595 9.834h-7.19L8.09 2.872zM33.002 2.616c-1.156-1.022-2.697-1.533-4.751-1.533h-6.806v18.52h1.798v-7.536h5.008c2.054 0 3.723-.51 4.75-1.404 1.156-.895 1.67-2.3 1.67-4.088 0-1.66-.514-2.937-1.67-3.959zm-1.284 6.77c-.77.638-1.927 1.021-3.339 1.021h-4.88v-7.79h5.008c1.413 0 2.44.382 3.21 1.149.771.766 1.156 1.532 1.156 2.81 0 1.277-.385 2.043-1.155 2.81z" transform="translate(35.308 4.154)"/>
            <path d="M52.392 1.083L38.138 1.083 38.138 2.744 44.43 2.744 44.43 19.603 46.228 19.603 46.228 2.744 52.392 2.744zM64.077 16.027l2.055-2.427c.77-.894 1.413-1.66 1.926-2.427.514-.638.899-1.277 1.156-1.788.514-1.021.899-2.043.899-3.065 0-1.66-.642-3.065-1.798-4.215-1.156-1.15-2.697-1.66-4.494-1.66-3.724 0-5.779 2.043-6.293 6.13l-.128.64h3.724v-.512c.257-2.427 1.67-2.682 2.568-2.682.77 0 1.284.255 1.798.639.514.51.77 1.021.77 1.66 0 .51-.256 1.022-.642 1.66-.256.384-.513.767-.899 1.278-.385.51-.898 1.15-1.54 1.915L56.5 19.475h13.612V15.9h-6.036v.128zM77.946.7L75.121 4.276 77.689 4.276 77.689 19.475 81.413 19.475 81.413.7zM94.51 16.027l2.056-2.427c.77-.894 1.412-1.66 1.926-2.427.513-.638.899-1.277 1.155-1.788.514-1.021.9-2.043.9-3.065 0-1.66-.643-3.065-1.798-4.215-1.156-1.15-2.697-1.66-4.495-1.66-3.724 0-5.778 2.043-6.292 6.13l-.128.64h3.723v-.512c.257-2.427 1.67-2.682 2.569-2.682.77 0 1.284.255 1.797.639.514.51.77 1.021.77 1.66 0 .51-.256 1.022-.641 1.66-.257.384-.514.767-.899 1.278-.385.51-.899 1.15-1.54 1.915l-6.935 8.302h13.611V15.9h-5.778v.128z" transform="translate(35.308 4.154)"/>
        </g>
        <path d="M19.543 10.929l5.014-5.143C22.114 2.314 18.13 0 13.5 0c-1.543 0-2.957.257-4.243.643l10.286 10.286zM16.843 13.629L5.657 2.57c-.771.515-1.414 1.158-2.057 1.8l7.329 15.172 5.914-5.914zM0 13.5c0 4.629 2.314 8.743 5.914 11.186L8.1 22.5 1.157 8.229C.386 9.77 0 11.57 0 13.5zM26.357 17.614c.386-1.285.643-2.7.643-4.114 0-1.414-.257-2.829-.643-4.114L22.243 13.5l4.114 4.114zM19.543 16.329L9.514 26.357c1.286.386 2.572.643 3.986.643 4.5 0 8.614-2.314 11.057-5.657l-5.014-5.014z"/>
    </g>
</svg>
