<svg version="1.1" id="Layer_1_copy_8" xmlns="http://www.w3.org/2000/svg" xmlns:xlink="http://www.w3.org/1999/xlink" x="0px"
     y="0px" viewBox="-247 314 110 21" style="enable-background:new -247 314 152 21;" xml:space="preserve">
<style type="text/css">
	.st0{fill:#1E1D1D;}
	.st1{fill:#22877E;}
</style>
    <g>
	<g>
		<path class="st0" d="M-207.4,327.9l1.4,3.9h1.4l-5.4-14.4h-1.4l-5.5,14.5h1.4l1.4-3.9h6.7V327.9z M-210.7,318.8l2.8,7.7h-5.6
			L-210.7,318.8z"/>
        <path class="st0" d="M-191.3,318.6c-0.9-0.8-2.1-1.2-3.7-1.2h-5.3v14.5h1.4V326h3.9c1.6,0,2.9-0.4,3.7-1.1
			c0.9-0.7,1.3-1.8,1.3-3.2C-190,320.4-190.4,319.4-191.3,318.6z M-192.3,323.9c-0.6,0.5-1.5,0.8-2.6,0.8h-3.8v-6.1h3.9
			c1.1,0,1.9,0.3,2.5,0.9c0.6,0.6,0.9,1.2,0.9,2.2S-191.7,323.3-192.3,323.9z"/>
        <polygon class="st0" points="-176.2,317.4 -187.3,317.4 -187.3,318.7 -182.4,318.7 -182.4,331.9 -181,331.9 -181,318.7
			-176.2,318.7 		"/>
        <path class="st0" d="M-167.1,329.1l1.6-1.9c0.6-0.7,1.1-1.3,1.5-1.9c0.4-0.5,0.7-1,0.9-1.4c0.4-0.8,0.7-1.6,0.7-2.4
			c0-1.3-0.5-2.4-1.4-3.3c-0.9-0.9-2.1-1.3-3.5-1.3c-2.9,0-4.5,1.6-4.9,4.8l-0.1,0.5h2.9v-0.4c0.2-1.9,1.3-2.1,2-2.1
			c0.6,0,1,0.2,1.4,0.5c0.4,0.4,0.6,0.8,0.6,1.3c0,0.4-0.2,0.8-0.5,1.3c-0.2,0.3-0.4,0.6-0.7,1c-0.3,0.4-0.7,0.9-1.2,1.5l-5.2,6.5
			h10.6V329h-4.7V329.1z"/>
        <polygon class="st0" points="-156.3,317.1 -158.5,319.9 -156.5,319.9 -156.5,331.8 -153.6,331.8 -153.6,317.1 		"/>
        <path class="st0" d="M-143.4,329.1l1.6-1.9c0.6-0.7,1.1-1.3,1.5-1.9c0.4-0.5,0.7-1,0.9-1.4c0.4-0.8,0.7-1.6,0.7-2.4
			c0-1.3-0.5-2.4-1.4-3.3c-0.9-0.9-2.1-1.3-3.5-1.3c-2.9,0-4.5,1.6-4.9,4.8l-0.1,0.5h2.9v-0.4c0.2-1.9,1.3-2.1,2-2.1
			c0.6,0,1,0.2,1.4,0.5c0.4,0.4,0.6,0.8,0.6,1.3c0,0.4-0.2,0.8-0.5,1.3c-0.2,0.3-0.4,0.6-0.7,1c-0.3,0.4-0.7,0.9-1.2,1.5l-5.4,6.5
			h10.6V329h-4.5V329.1z"/>
	</g>
        <g>
		<path class="st0" d="M-229.8,322.5l3.9-4c-1.9-2.7-5-4.5-8.6-4.5c-1.2,0-2.3,0.2-3.3,0.5L-229.8,322.5z"/>
            <path class="st0" d="M-231.9,324.6l-8.7-8.6c-0.6,0.4-1.1,0.9-1.6,1.4l5.7,11.8L-231.9,324.6z"/>
            <path class="st0" d="M-245,324.5c0,3.6,1.8,6.8,4.6,8.7l1.7-1.7l-5.4-11.1C-244.7,321.6-245,323-245,324.5z"/>
            <path class="st0" d="M-224.5,327.7c0.3-1,0.5-2.1,0.5-3.2s-0.2-2.2-0.5-3.2l-3.2,3.2L-224.5,327.7z"/>
            <path class="st0" d="M-229.8,326.7l-7.8,7.8c1,0.3,2,0.5,3.1,0.5c3.5,0,6.7-1.8,8.6-4.4L-229.8,326.7z"/>
	</g>
</g>
</svg>
