<svg version="1.1" id="Layer_1_copy_8" xmlns="http://www.w3.org/2000/svg" xmlns:xlink="http://www.w3.org/1999/xlink" x="0px"
     y="0px" viewBox="-245 314 21 21" xml:space="preserve">
<style type="text/css">
	.st0{fill:#1E1D1D;}
	.st1{fill:#22877E;}
</style>
    <g>
        <g>
		<path class="st0" d="M-229.8,322.5l3.9-4c-1.9-2.7-5-4.5-8.6-4.5c-1.2,0-2.3,0.2-3.3,0.5L-229.8,322.5z"/>
            <path class="st0" d="M-231.9,324.6l-8.7-8.6c-0.6,0.4-1.1,0.9-1.6,1.4l5.7,11.8L-231.9,324.6z"/>
            <path class="st0" d="M-245,324.5c0,3.6,1.8,6.8,4.6,8.7l1.7-1.7l-5.4-11.1C-244.7,321.6-245,323-245,324.5z"/>
            <path class="st0" d="M-224.5,327.7c0.3-1,0.5-2.1,0.5-3.2s-0.2-2.2-0.5-3.2l-3.2,3.2L-224.5,327.7z"/>
            <path class="st0" d="M-229.8,326.7l-7.8,7.8c1,0.3,2,0.5,3.1,0.5c3.5,0,6.7-1.8,8.6-4.4L-229.8,326.7z"/>
	</g>
</g>
</svg>
