
<svg id="Layer_1_copy_8" data-name="Layer 1 copy 8" xmlns="http://www.w3.org/2000/svg" viewBox="0 0 145.83 22.17"><defs><style>.cls-1{fill:#1e1d1d;}.cls-2{fill:#2779c2;}.cls-3{font-size:7.57px;fill:#fff;font-family:Roboto-Regular, Roboto;letter-spacing:0.05em;}.cls-4{letter-spacing:0.05em;}.cls-5{letter-spacing:0.01em;}.cls-6{letter-spacing:0.05em;}</style></defs><title>logo2</title><path class="cls-1" d="M39.6,13.9,41,17.8h1.4L37,3.4H35.6L30.1,17.9h1.4L32.9,14h6.7v-.1ZM36.3,4.8l2.8,7.7H33.5Z"/><path class="cls-1" d="M55.7,4.6A5.31,5.31,0,0,0,52,3.4H46.7V17.9h1.4V12H52a5.63,5.63,0,0,0,3.7-1.1A3.82,3.82,0,0,0,57,7.7,3.87,3.87,0,0,0,55.7,4.6Zm-1,5.3a4,4,0,0,1-2.6.8H48.3V4.6h3.9a3.33,3.33,0,0,1,2.5.9,2.79,2.79,0,0,1,.9,2.2A2.79,2.79,0,0,1,54.7,9.9Z"/><polygon class="cls-1" points="70.8 3.4 59.7 3.4 59.7 4.7 64.6 4.7 64.6 17.9 66 17.9 66 4.7 70.8 4.7 70.8 3.4"/><path class="cls-1" d="M79.9,15.1l1.6-1.9A20.5,20.5,0,0,0,83,11.3a8,8,0,0,0,.9-1.4,5.49,5.49,0,0,0,.7-2.4,4.53,4.53,0,0,0-1.4-3.3,4.75,4.75,0,0,0-3.5-1.3c-2.9,0-4.5,1.6-4.9,4.8l-.1.5h2.9V7.8c.2-1.9,1.3-2.1,2-2.1a2.17,2.17,0,0,1,1.4.5,1.76,1.76,0,0,1,.6,1.3,2.66,2.66,0,0,1-.5,1.3c-.2.3-.4.6-.7,1s-.7.9-1.2,1.5L74,17.8H84.6V15H79.9v.1Z"/><polygon class="cls-1" points="90.7 3.1 88.5 5.9 90.5 5.9 90.5 17.8 93.4 17.8 93.4 3.1 90.7 3.1"/><path class="cls-1" d="M103.6,15.1l1.6-1.9a20.5,20.5,0,0,0,1.5-1.9,8,8,0,0,0,.9-1.4,5.49,5.49,0,0,0,.7-2.4,4.53,4.53,0,0,0-1.4-3.3,4.75,4.75,0,0,0-3.5-1.3c-2.9,0-4.5,1.6-4.9,4.8l-.1.5h2.9V7.8c.2-1.9,1.3-2.1,2-2.1a2.17,2.17,0,0,1,1.4.5,1.76,1.76,0,0,1,.6,1.3,2.66,2.66,0,0,1-.5,1.3c-.2.3-.4.6-.7,1s-.7.9-1.2,1.5l-5.4,6.5h10.6V15h-4.5v.1Z"/><path class="cls-1" d="M17.2,8.5l3.9-4A10.47,10.47,0,0,0,12.5,0,11.42,11.42,0,0,0,9.2.5Z"/><path class="cls-1" d="M15.1,10.6,6.4,2A10.7,10.7,0,0,0,4.8,3.4l5.7,11.8Z"/><path class="cls-1" d="M2,10.5a10.48,10.48,0,0,0,4.6,8.7l1.7-1.7L2.9,6.4A9.15,9.15,0,0,0,2,10.5Z"/><path class="cls-1" d="M22.5,13.7a11.27,11.27,0,0,0,.5-3.2,11.27,11.27,0,0,0-.5-3.2l-3.2,3.2Z"/><path class="cls-1" d="M17.2,12.7,9.4,20.5a10.59,10.59,0,0,0,3.1.5,10.79,10.79,0,0,0,8.6-4.4Z"/><rect class="cls-2" x="114.73" y="2.98" width="29.51" height="14.74"/><text class="cls-3" transform="translate(119.68 12.56)">B<tspan class="cls-4" x="5.05" y="0">E</tspan><tspan class="cls-5" x="9.77" y="0">T</tspan><tspan class="cls-6" x="14.34" y="0">A</tspan></text></svg>
