<svg xmlns="http://www.w3.org/2000/svg" width="21" height="21" viewBox="0 0 21 21">
    <g fill="none" fill-rule="evenodd">
        <g fill="#F5F5F7">
            <g>
                <g>
                    <path d="M21 19.27l-5.078-5.03c1.211-1.535 1.889-3.437 1.889-5.422C17.81 3.956 13.815 0 8.906 0 3.996 0 0 3.956 0 8.818c0 4.861 3.996 8.819 8.906 8.819 1.887 0 3.724-.602 5.24-1.695L19.254 21 21 19.27zM8.906 15.19c-3.548 0-6.434-2.859-6.434-6.372 0-3.512 2.886-6.372 6.434-6.372 3.547 0 6.433 2.86 6.433 6.372 0 1.879-.832 3.652-2.281 4.868-1.158.97-2.633 1.505-4.152 1.505z" transform="translate(-269 -40) translate(257 32) translate(12 8)"/>
                </g>
            </g>
        </g>
    </g>
</svg>
