<?xml version="1.0" encoding="UTF-8"?>
<svg width="36px" height="36px" viewBox="0 0 36 36" version="1.1" xmlns="http://www.w3.org/2000/svg" xmlns:xlink="http://www.w3.org/1999/xlink">
    <!-- Generator: Sketch 53 (72520) - https://sketchapp.com -->
    <title>Fill 10</title>
    <desc>Created with Sketch.</desc>
    <g id="Page-1" stroke="none" stroke-width="1" fill="none" fill-rule="evenodd">
        <g id="Finalized-Homepage" transform="translate(-1239.000000, -5239.000000)" fill="#000000">
            <g id="Fill-10" transform="translate(1239.000000, 5239.000000)">
                <path d="M17.9245719,0.00486834459 C17.5033049,0.0511733151 17.1873137,0.412035701 17.196914,0.835153092 L17.196914,3.58156761 C9.88642747,3.99192742 4.01107587,9.87124435 3.6009206,17.1856965 L0.856148505,17.1856965 C0.830615931,17.1840983 0.805083358,17.1840983 0.779550784,17.1856965 C0.562523907,17.195278 0.358283744,17.2910804 0.213054464,17.4523507 C0.066240123,17.6120227 -0.00876028032,17.8243928 0.000815456128,18.0415455 C0.0103911926,18.2586981 0.106136301,18.4630646 0.267310162,18.6083808 C0.426886705,18.755283 0.639129799,18.8303283 0.85615259,18.8207468 L3.60092469,18.8207468 C4.0110391,26.1356077 9.88684008,32.014475 17.1969181,32.4248757 L17.1969181,35.171289 C17.1937275,35.390044 17.2783036,35.6008199 17.4314991,35.7572954 C17.5862919,35.9121808 17.7953362,36 18.0139686,36 C18.232601,36 18.4416494,35.9121808 18.5964381,35.7572954 C18.7496335,35.6008158 18.8342097,35.390044 18.8310191,35.171289 L18.8310191,32.4248757 C26.1415056,32.0145159 32.0168572,26.135199 32.4270125,18.8207468 L35.1717846,18.8207468 C35.3904088,18.8239392 35.6010586,18.7393125 35.7574405,18.5860254 C35.9122333,18.43114 36,18.2219705 36,18.0032074 C36,17.7844442 35.9122333,17.5752706 35.7574405,17.4203893 C35.6010546,17.2671022 35.3904088,17.1824755 35.1717846,17.1856679 L32.4270125,17.1856679 C32.0168981,9.87080697 26.1410971,3.99193968 18.8310191,3.58153899 L18.8310191,0.835124478 C18.835807,0.600403078 18.7400578,0.373668959 18.5661176,0.214005104 C18.3921775,0.0559272594 18.1591938,-0.0207162962 17.9246168,0.00483155568 L17.9245719,0.00486834459 Z M18.0139359,5.19128666 C25.0927909,5.19128666 30.8186238,10.9205457 30.8186238,18.0036366 C30.8186238,25.0867274 25.0927909,30.8159865 18.0139359,30.8159865 C10.9350809,30.8159865 5.20924806,25.0867274 5.20924806,18.0036366 C5.20924806,10.9205457 10.9350809,5.19128666 18.0139359,5.19128666 Z M17.9245719,13.0853685 C17.5033049,13.1316735 17.1873137,13.4925359 17.196914,13.9156532 L17.196914,17.1857783 L13.9287445,17.1857783 C13.903212,17.18418 13.8776794,17.18418 13.8521468,17.1857783 C13.6351199,17.1953598 13.4308798,17.2911622 13.2856505,17.4524325 C13.1388362,17.6121045 13.0638358,17.8244746 13.0734115,18.0416272 C13.0829872,18.2587799 13.1787323,18.4631464 13.3399062,18.6084625 C13.4994827,18.7553647 13.7117258,18.83041 13.9287486,18.8208285 L17.1969181,18.8208285 L17.1969181,22.0909536 C17.1937275,22.3097086 17.2783036,22.5204845 17.4314991,22.67696 C17.5862919,22.8318454 17.7953362,22.9196646 18.0139686,22.9196646 C18.232601,22.9196646 18.4416494,22.8318454 18.5964381,22.67696 C18.7496335,22.5204804 18.8342097,22.3097086 18.8310191,22.0909536 L18.8310191,18.8208285 L22.0991886,18.8208285 C22.3178127,18.824021 22.5284626,18.7393943 22.6848445,18.5861071 C22.8396373,18.4312218 22.927404,18.2220523 22.927404,18.0032891 C22.927404,17.7845259 22.8396373,17.5753524 22.6848445,17.4204711 C22.5284585,17.267184 22.3178127,17.1825572 22.0991886,17.1857497 L18.8310191,17.1857497 L18.8310191,13.9156246 C18.835807,13.6809032 18.7400578,13.4541691 18.5661176,13.2945053 C18.3921775,13.1364274 18.1591938,13.0597839 17.9246168,13.0853317 L17.9245719,13.0853685 Z" id="Fill-1"></path>
            </g>
        </g>
    </g>
</svg>