<?xml version="1.0" encoding="UTF-8"?>
<svg width="26px" height="26px" viewBox="0 0 26 26" version="1.1" xmlns="http://www.w3.org/2000/svg" xmlns:xlink="http://www.w3.org/1999/xlink">
    <!-- Generator: Sketch 55.2 (78181) - https://sketchapp.com -->
    <title>Add</title>
    <desc>Created with Sketch.</desc>
    <g id="Listing-Page" stroke="none" stroke-width="1" fill="none" fill-rule="evenodd">
        <g id="7.1" transform="translate(-19.000000, -4566.000000)" fill="#000000" fill-rule="nonzero">
            <g id="Group-8" transform="translate(16.000000, 4486.000000)">
                <g id="Add" transform="translate(3.000000, 80.000000)">
                    <path d="M18.2316136,12.3848636 C18.5709166,12.3848636 18.8479043,12.6618523 18.8467536,13 C18.8467536,13.3381477 18.5697614,13.6151364 18.2316136,13.6151364 L13.6151364,13.6151364 L13.6151364,18.2316136 C13.6151364,18.5697614 13.3381477,18.84675 13,18.84675 C12.6618523,18.84675 12.3848636,18.5697614 12.3848636,18.2316136 L12.3848636,13.6151364 L7.76838636,13.6151364 C7.43023864,13.6151364 7.15325,13.3381477 7.15325,13 C7.15325,12.6618523 7.43023864,12.3848636 7.76838636,12.3848636 L12.3848636,12.3848636 L12.3848636,7.76838636 C12.3848636,7.43023864 12.6618523,7.15325 13,7.15325 C13.3381477,7.15325 13.6151364,7.43023864 13.6151364,7.76838636 L13.6151364,12.3848636 L18.2316136,12.3848636 Z M13,0.0738636364 C20.1405455,0.0738636364 25.9261364,5.85945455 25.9261364,13 C25.9261364,20.1405455 20.1405455,25.9261364 13,25.9261364 C5.85945455,25.9261364 0.0738636364,20.1405455 0.0738636364,13 C0.0738636364,5.85945455 5.85945455,0.0738636364 13,0.0738636364 Z M13,24.6946818 C19.4630682,24.6946818 24.6946818,19.4630682 24.6946818,13 C24.6946818,6.53693182 19.4630682,1.30531818 13,1.30531818 C6.53693182,1.30531818 1.30531818,6.53693182 1.30531818,13 C1.30531818,19.4630682 6.53693182,24.6946818 13,24.6946818 Z" id="Shape-2"></path>
                </g>
            </g>
        </g>
    </g>
</svg>