<svg height="512pt" viewBox="0 -36 512 512" width="512pt" xmlns="http://www.w3.org/2000/svg"><path d="m382.019531 251c-5.523437 0-10.003906-4.476562-10.003906-10s4.472656-10 9.996094-10h.007812c5.523438 0 10 4.476562 10 10s-4.476562 10-10 10zm0 0"/><path d="m276.019531 20c-5.523437 0-10.003906-4.476562-10.003906-10s4.472656-10 9.996094-10h.007812c5.523438 0 10 4.476562 10 10s-4.476562 10-10 10zm0 0"/><path d="m442 160h-41.03125c6.300781-8.371094 10.03125-18.761719 10.03125-30 0-5.519531-4.480469-10-10-10h-15.460938c-5.058593-55.980469-52.257812-100-109.539062-100s-104.480469 44.019531-109.539062 100h-15.460938c-5.519531 0-10 4.480469-10 10 0 11.238281 3.730469 21.628906 10.03125 30h-41.03125c-19.570312 0-37.28125 8.070312-50 21.050781v-11.050781c0-7.679688-2.898438-14.691406-7.660156-20 4.761718-5.308594 7.660156-12.320312 7.660156-20 0-16.539062-13.460938-30-30-30s-30 13.460938-30 30c0 7.679688 2.898438 14.691406 7.660156 20-4.761718 5.308594-7.660156 12.320312-7.660156 20v190c0 11.03125 8.96875 20 20 20h39.359375c-3.410156 5.890625-5.359375 12.71875-5.359375 20 0 22.058594 17.941406 40 40 40s40-17.941406 40-40c0-7.28125-1.949219-14.109375-5.359375-20h254.71875c-3.410156 5.890625-5.359375 12.71875-5.359375 20 0 22.058594 17.941406 40 40 40s40-17.941406 40-40c0-7.28125-1.949219-14.109375-5.359375-20h39.359375c11.03125 0 20-8.96875 20-20v-130c0-38.601562-31.398438-70-70-70zm-402 200h-20v-190c0-5.511719 4.488281-10 10-10s10 4.488281 10 10zm-10-220c-5.511719 0-10-4.488281-10-10s4.488281-10 10-10 10 4.488281 10 10-4.488281 10-10 10zm246-100c46.25 0 84.460938 35.058594 89.441406 80h-178.882812c4.980468-44.941406 43.191406-80 89.441406-80zm113.289062 100c-4.128906 11.640625-15.25 20-28.289062 20h-170c-13.039062 0-24.160156-8.359375-28.289062-20zm-295.289062 280c-11.03125 0-20-8.96875-20-20s8.96875-20 20-20 20 8.96875 20 20-8.96875 20-20 20zm324 0c-11.03125 0-20-8.96875-20-20s8.96875-20 20-20 20 8.96875 20 20-8.96875 20-20 20zm74-60h-432v-61.25c8.246094 1.375 15.335938 5.203125 22.300781 9.679688 9.980469 6.359374 21.289063 13.570312 43.027344 13.570312 21.75 0 33.0625-7.210938 43.042969-13.570312 8.789062-5.601563 16.378906-10.429688 32.289062-10.429688 15.917969 0 23.511719 4.839844 32.300782 10.429688 9.980468 6.359374 21.289062 13.570312 43.027343 13.570312 21.75 0 33.0625-7.210938 43.042969-13.570312 8.789062-5.601563 16.378906-10.429688 32.296875-10.429688 15.910156 0 23.5 4.828125 32.292969 10.429688 9.980468 6.359374 21.289062 13.570312 43.039062 13.570312s33.058594-7.210938 43.039063-13.570312c7.011719-4.421876 14.039062-8.300782 22.300781-9.679688zm0-129h-70c-5.519531 0-10 4.480469-10 10s4.480469 10 10 10h70v27.558594c-10.59375 1.242187-20.128906 5.097656-29.210938 10.601562-.007812 0-.019531 0-.019531 0-1.273437.800782-2.542969 1.601563-3.808593 2.410156-8.789063 5.601563-16.382813 10.429688-32.300782 10.429688-15.921875 0-23.511718-4.839844-32.300781-10.429688-9.980469-6.359374-21.289063-13.570312-43.03125-13.570312-21.75 0-33.058594 7.210938-43.039063 13.570312-8.789062 5.601563-16.378906 10.429688-32.300781 10.429688-15.910156 0-23.5-4.828125-32.289062-10.429688-9.980469-6.359374-21.289063-13.570312-43.039063-13.570312-21.738281 0-33.050781 7.210938-43.03125 13.570312-8.789062 5.589844-16.378906 10.429688-32.300781 10.429688-15.90625 0-23.5-4.828125-32.289063-10.429688-10.28125-6.5625-20.816406-11.578124-33.039062-13.011718v-48.558594c0-27.570312 22.429688-50 50-50h332c27.570312 0 50 22.429688 50 50zm0 0"/></svg>