<?xml version="1.0" encoding="UTF-8"?>
<svg width="22px" height="28px" viewBox="0 0 22 28" version="1.1" xmlns="http://www.w3.org/2000/svg" xmlns:xlink="http://www.w3.org/1999/xlink">
    <!-- Generator: Sketch 55.2 (78181) - https://sketchapp.com -->
    <title>application </title>
    <desc>Created with Sketch.</desc>
    <g id="Listing-Page" stroke="none" stroke-width="1" fill="none" fill-rule="evenodd">
        <g id="7.1" transform="translate(-21.000000, -4636.000000)" fill="#000000">
            <g id="Group-8" transform="translate(16.000000, 4486.000000)">
                <g id="application-" transform="translate(5.000000, 150.000000)">
                    <path d="M21.1891842,27.771142 L0.868421053,27.771142 C0.521284211,27.771142 0.231810526,27.4854277 0.231810526,27.1427994 L0.231810526,0.857085714 C0.231810526,0.514457143 0.521284211,0.228742857 0.868421053,0.228742857 L21.1891842,0.228742857 C21.5363211,0.228742857 21.8257947,0.514457143 21.8257947,0.857085714 L21.8257947,27.1427994 C21.8257947,27.485428 21.5363211,27.771142 21.1891842,27.771142 Z M1.50497368,26.4854277 L20.5526316,26.4854277 L20.5526316,1.45742857 L1.50497368,1.45742857 L1.50497368,26.4854277 Z" id="Fill-1"></path>
                    <polygon id="Fill-2" points="4.05263158 17.4564 17.9768947 17.4564 17.9768947 16.1997143 4.05263158 16.1997143"></polygon>
                    <polygon id="Fill-3" points="4.05263158 20.6284 17.9768947 20.6284 17.9768947 19.3717143 4.05263158 19.3717143"></polygon>
                    <polygon id="Fill-4" points="4.05263158 23.8281143 17.9768947 23.8281143 17.9768947 22.5714286 4.05263158 22.5714286"></polygon>
                    <path d="M11.0295263,6.914 C10.1034421,6.914 9.35034737,7.65731429 9.35034737,8.57137143 C9.35034737,9.48542857 10.1034421,10.2287429 11.0295263,10.2287429 C11.9556105,10.2287429 12.7087053,9.48542857 12.7087053,8.57137143 C12.7075763,7.65731429 11.9556105,6.914 11.0295263,6.914 Z" id="Fill-5"></path>
                    <path d="M11.0295263,14.6005714 C13.8948526,14.6005714 16.2105263,12.3148571 16.2105263,9.48685714 C16.2105263,6.65885714 13.8947368,4.37314286 11.0295263,4.37314286 C8.1642,4.37314286 5.8485259,6.65885714 5.8485259,9.48685714 C5.84739447,12.3149714 8.16318684,14.6005714 11.0295263,14.6005714 Z M11.0295263,5.77142857 C13.1135053,5.77142857 14.8222105,7.45668571 14.8222105,9.51485714 C14.8222105,10.3429714 14.5621358,11.0862857 14.0985263,11.7146286 C13.8090526,11.1722286 13.3171789,10.8005714 12.7382316,10.8005714 L9.32099474,10.8005714 C8.74204737,10.8005714 8.22076316,11.1722286 7.9607,11.7146286 C7.49707895,11.0862857 7.23701579,10.3429714 7.23701579,9.51485714 C7.23701579,7.42891429 8.94444737,5.77142857 11.0297,5.77142857 L11.0295263,5.77142857 Z" id="Fill-6"></path>
                </g>
            </g>
        </g>
    </g>
</svg>