<?xml version="1.0" encoding="UTF-8"?>
<svg width="19px" height="28px" viewBox="0 0 19 28" version="1.1" xmlns="http://www.w3.org/2000/svg" xmlns:xlink="http://www.w3.org/1999/xlink">
    <!-- Generator: Sketch 55.2 (78181) - https://sketchapp.com -->
    <title>approved</title>
    <desc>Created with Sketch.</desc>
    <g id="Listing-Page" stroke="none" stroke-width="1" fill="none" fill-rule="evenodd">
        <g id="7.1" transform="translate(-22.000000, -4708.000000)" fill="#000000" fill-rule="nonzero">
            <g id="Group-8" transform="translate(16.000000, 4486.000000)">
                <g id="approved" transform="translate(6.000000, 222.000000)">
                    <path d="M9.5,0.184210526 C4.63562,0.184210526 0.30438,4.42105263 0.30438,9.13721053 C0.30438,10.6108947 0.722988,12.0845789 1.44438,13.3007368 C1.63438,13.6691579 1.7857872,14.0001474 1.975772,14.2217895 C2.96438,15.5112632 4.217164,18.7161579 4.331468,19.2330526 L4.711468,20.6333474 L14.362708,20.6333474 L14.6670044,19.2330526 C14.7813008,18.7178526 16.0727004,15.5112632 17.0227004,14.2217895 C17.2127004,13.9641821 17.4027004,13.6691579 17.5170044,13.3381684 C18.2770044,12.0486947 18.6956124,10.5750105 18.6956124,9.10132632 C18.6956124,4.42127368 14.3256124,0.184431579 9.4999924,0.184431579 L9.5,0.184210526 Z M16.11124,12.6372105 C15.9969436,12.9322347 15.8455364,13.1524105 15.73124,13.3006632 C14.59124,14.8117789 13.07124,18.3119263 13.07124,19.2329789 C13.07124,19.2703958 13.07124,19.3063758 13.0326472,19.3437926 L5.9638872,19.3437926 C5.9252944,19.3063758 5.9252944,19.2703958 5.9252944,19.2329789 C5.9252944,18.3119263 4.3666864,14.8119263 3.2652944,13.3006632 C3.150998,13.1538695 3.0367016,12.9322421 2.8466864,12.5638211 C2.2039544,11.5319474 1.8996504,10.3158632 1.8996504,9.13721053 C1.8996504,5.30636842 5.5482584,1.76878947 9.4996504,1.76878947 C13.4510424,1.76878947 17.0996504,5.30622105 17.0996504,9.13721053 C17.0996504,10.3158632 16.7582432,11.5319474 16.1110424,12.6372105 L16.11124,12.6372105 Z" id="Shape"></path>
                    <polygon id="Shape" points="4.86438 21.5150526 14.09876 21.5150526 14.09876 23.0261684 4.86438 23.0261684"></polygon>
                    <polygon id="Shape" points="4.86438 23.8364737 14.09876 23.8364737 14.09876 25.3475895 4.86438 25.3475895"></polygon>
                    <polygon id="Shape" points="6.49876 26.1578947 12.46438 26.1578947 12.46438 27.6690105 6.49876 27.6690105"></polygon>
                </g>
            </g>
        </g>
    </g>
</svg>