<?xml version="1.0" encoding="UTF-8"?>
<svg width="20px" height="19px" viewBox="0 0 20 19" version="1.1" xmlns="http://www.w3.org/2000/svg" xmlns:xlink="http://www.w3.org/1999/xlink">
    <!-- Generator: Sketch 55.2 (78181) - https://sketchapp.com -->
    <title>Bank Transfer Icon</title>
    <desc>Created with Sketch.</desc>
    <g id="Booking-Page" stroke="none" stroke-width="1" fill="none" fill-rule="evenodd">
        <g id="10.1-WIRE" transform="translate(-980.000000, -196.000000)" fill="#FFFFFF">
            <g id="Group-26" transform="translate(884.000000, 132.000000)">
                <g id="Group-30" transform="translate(75.000000, 52.000000)">
                    <g id="Group-27" transform="translate(21.000000, 11.916667)">
                        <g id="Bank-Icon">
                            <path d="M16.8188091,8.41916391 C16.7801366,8.34136932 16.6952269,8.29264914 16.6035917,8.29579335 L15.9369127,8.29579335 L15.9369127,7.30646313 C15.9352319,6.50650979 15.2408136,5.85823498 14.3850016,5.85823498 L12.4976527,5.85823498 C12.3404428,5.85823498 12.2135011,5.97689023 12.2135011,6.12383333 L12.2135011,6.50180253 C12.2135011,6.64874764 12.340445,6.76740088 12.4976527,6.76740088 L14.3875197,6.76740088 C14.7053097,6.76818743 14.962559,7.00942267 14.9642377,7.30646313 L14.9642377,8.29657789 L14.2412364,8.29579134 C14.1496011,8.29264914 14.0646914,8.34136731 14.026019,8.4191619 C13.9881881,8.49616993 14.0024785,8.58653734 14.0621691,8.65017996 L15.2483828,10.0143211 C15.2920999,10.0638258 15.356833,10.0921157 15.4257693,10.0921157 C15.4947056,10.0921157 15.5594386,10.0638278 15.6031558,10.0143211 L16.7868514,8.65017996 C16.844859,8.58574475 16.8574686,8.49537734 16.8187983,8.4191619 L16.8188091,8.41916391 Z" id="Fill-1"></path>
                            <path d="M7.82100017,13.7938944 L5.90590969,13.7938944 C5.58728034,13.7931079 5.33003099,13.5518726 5.32919164,13.2548322 L5.32919164,12.2710139 L6.02613013,12.2710139 C6.11524305,12.2710139 6.19679107,12.2230802 6.23462198,12.1476433 C6.2732944,12.0729929 6.26152416,11.9834101 6.20435811,11.9189789 L5.02066243,10.5571914 C4.97694748,10.5069001 4.91137289,10.4778257 4.8424366,10.4762546 C4.77265882,10.4762546 4.70708423,10.5061156 4.66421078,10.5571914 L3.47799705,11.9189789 C3.42251186,11.9842007 3.41242247,12.0729949 3.45109488,12.1476433 C3.48892579,12.2222937 3.56963232,12.2702293 3.65874523,12.2710139 L4.35148699,12.2710139 L4.35148699,13.2611286 C4.35316783,14.0602974 5.04590744,14.7077877 5.90171941,14.7093568 L7.81680989,14.7093568 C7.95972715,14.7093568 8.07489859,14.6009167 8.07489859,14.4681195 L8.07489859,14.0335626 C8.07489859,13.901548 7.96140585,13.794679 7.82100663,13.7938944 L7.82100017,13.7938944 Z" id="Fill-2"></path>
                            <path d="M11.9613524,4.03899391 L6.22774579,0.216856033 L6.22858514,0.216856033 C6.09743596,0.137490346 5.92846448,0.137490346 5.79815034,0.216856033 L0.0839141236,4.02330303 C0.0553311012,4.04294881 0.0376768182,4.07438087 0.0384083746,4.10817058 L0.0384083746,4.89476655 L0.0384083746,4.89398 C0.0359940334,4.94584239 0.0780279278,4.98984726 0.133515277,4.99299147 L2.11166359,4.99299147 L2.11082424,7.92014559 L1.33823683,7.92014559 C1.21969875,7.92014559 1.12301879,8.00972644 1.12301879,8.12131074 L1.12301879,8.30047245 L0.860712045,8.30047245 C0.703502194,8.30361666 0.578239213,8.42462957 0.580757256,8.57158272 L0.580757256,9.05248813 C0.578235123,9.12399631 0.606817931,9.19236027 0.659782932,9.24422266 C0.711906433,9.29530051 0.784204413,9.32515945 0.86070774,9.32594601 L11.1911432,9.32594601 C11.3458307,9.31887505 11.465201,9.19707559 11.4601649,9.0524821 L11.4601649,8.5700076 C11.4601649,8.4277778 11.3424668,8.3106856 11.1911432,8.30205562 L10.9179247,8.30205562 L10.9179247,8.12289391 C10.9179247,8.01602492 10.8279703,7.92722862 10.713636,7.92172876 L10.0183762,7.92172876 L10.0183762,4.99698863 L11.9057252,4.99698863 C11.9326274,4.99620408 11.958688,4.98598892 11.9763445,4.96712767 C11.9948381,4.94826844 12.0040882,4.92390935 12.0024052,4.89876371 L12.0024052,4.12395601 C12.0024052,4.0917374 11.9872732,4.0610919 11.9612104,4.03908845 L11.9613524,4.03899391 Z M7.24421755,6.93617442 C7.15678548,7.07604656 7.03404485,7.19390721 6.88691363,7.28034787 C6.72297823,7.37228638 6.54306079,7.43593705 6.35558492,7.4689402 C6.32784125,7.4689402 6.21602935,7.4689402 6.21602935,7.48308412 L6.21518785,7.64417315 C6.21518785,7.74868449 6.24124853,7.85712658 6.13111963,7.85712658 L5.7956818,7.85712658 C5.71581678,7.85712658 5.62754321,7.87520127 5.62754321,7.75261525 L5.62754321,7.52316628 C5.46528866,7.51687987 5.30387777,7.50037829 5.14330407,7.47523265 C5.0087932,7.44930045 4.87847906,7.40765323 4.75406189,7.35264663 C4.71202778,7.32985864 4.68764795,7.28664032 4.69185115,7.24184889 L4.69185115,6.73501329 C4.68848945,6.69100841 4.71118843,6.64857463 4.75153954,6.62500009 C4.7918928,6.6022121 4.84233545,6.60142555 4.88352806,6.62421555 C4.97852717,6.68393544 5.08109118,6.73265563 5.18870633,6.768803 C5.37197686,6.83245366 5.56617612,6.86545682 5.76122765,6.86545682 C5.8612693,6.86859902 5.96047161,6.85995495 6.05799091,6.83952462 C6.13449424,6.82537869 6.20679437,6.79866395 6.27320831,6.76094549 C6.32533181,6.73108453 6.36820742,6.69022387 6.40015214,6.64229023 C6.42789581,6.59671426 6.44218625,6.54406531 6.4413469,6.49141637 C6.44386925,6.41912164 6.42033092,6.34840002 6.37493296,6.29025122 C6.32365096,6.22817367 6.26144022,6.17473817 6.19166244,6.13151985 C6.10507187,6.07808636 6.01343661,6.03093727 5.91844395,5.99243225 C5.81083526,5.94606972 5.70322656,5.89970718 5.57375177,5.85334465 L5.57375177,5.8541292 C5.30640872,5.76061959 5.0668072,5.60816456 4.87681328,5.40937316 C4.72128428,5.23021146 4.63889045,5.00468923 4.64394806,4.77365105 C4.63722251,4.5999892 4.67925662,4.42710385 4.76500784,4.27230726 C4.84403352,4.13479278 4.95836776,4.0169281 5.09624894,3.92891835 C5.24168855,3.83462218 5.4047846,3.76704276 5.57629134,3.7277532 C5.60655521,3.7277532 5.63261804,3.71360928 5.63261804,3.70732286 L5.63261804,3.45429734 C5.63261804,3.36785868 5.70323517,3.36942785 5.70575751,3.36942785 L6.15300079,3.36942785 C6.1916732,3.37257399 6.22025622,3.40400605 6.21773387,3.4401514 L6.21773387,3.67116946 C6.38923631,3.66959836 6.55988649,3.67981353 6.72971454,3.70338807 C6.87515415,3.71988965 7.01892367,3.74660639 7.16014933,3.78196721 C7.21395368,3.79768424 7.28036761,3.84797351 7.28036761,3.90298011 L7.28036761,4.3713127 C7.27280272,4.41767523 7.2416952,4.45775136 7.19713874,4.47975279 C7.15342379,4.50175623 7.10045878,4.50332733 7.05506083,4.48368154 L7.00293733,4.48368154 C6.92475315,4.45067839 6.84320513,4.42317509 6.75997841,4.40117165 C6.67843038,4.37995476 6.59436216,4.36345318 6.51028318,4.35323801 C6.43293836,4.34302285 6.35391483,4.33752299 6.27573927,4.33673644 C6.18158166,4.33516534 6.08742404,4.34459395 5.99578448,4.36502428 C5.92012265,4.3791682 5.84698102,4.4051004 5.78056708,4.44124777 C5.72676273,4.47032217 5.68136478,4.51039829 5.64689771,4.55833192 C5.61663384,4.60548101 5.5998189,4.65970105 5.5998189,4.71549219 C5.59897956,4.77442755 5.61747319,4.8333629 5.65362325,4.88208108 C5.69397651,4.93787222 5.74525852,4.98580585 5.80410756,5.02273978 C5.87808854,5.07224451 5.95711422,5.11546484 6.03865148,5.1516102 C6.13112824,5.19404397 6.23705609,5.23804885 6.35306257,5.28441138 C6.50102453,5.34256018 6.6456291,5.40935305 6.78349736,5.48557653 C6.90035395,5.54765409 7.00796911,5.62387757 7.10212672,5.71267187 C7.19544283,5.79911053 7.26858446,5.9028353 7.31734412,6.01677323 C7.36778677,6.14564365 7.39048359,6.28237158 7.38375805,6.41910353 C7.38544105,6.59983835 7.33667925,6.7774189 7.24420248,6.93615832 L7.24421755,6.93617442 Z" id="Fill-3"></path>
                            <path d="M17.7250895,11.1583976 L9.88063065,11.1583976 C9.71501441,11.1576452 9.55528651,11.2181517 9.43842347,11.3273763 C9.32072538,11.436603 9.25431144,11.5851091 9.25431144,11.7399258 L9.25431144,16.7831362 C9.25515294,16.9088644 9.36528183,17.0102315 9.4997884,17.0102315 L18.1000908,17.0102315 C18.2346016,17.0102315 18.343889,16.9088624 18.3447284,16.7831362 L18.3447284,11.7383165 C18.3447284,11.4176995 18.0672916,11.1583976 17.725139,11.1583976 L17.7250895,11.1583976 Z M16.9827617,15.892047 C16.9827617,15.9611975 16.9230733,16.0169886 16.8490923,16.0169886 L10.7608074,16.0169886 C10.6868264,16.0169886 10.627138,15.9611975 10.627138,15.892047 L10.627138,12.4100793 C10.627138,12.3409288 10.6868264,12.2851377 10.7608074,12.2851377 L16.8516749,12.2851377 C16.9248144,12.2851377 16.9853443,12.3409288 16.9853443,12.4100793 L16.9827617,15.892047 Z" id="Fill-4"></path>
                            <path d="M19.73522,17.5673509 C19.7495104,17.5673509 19.7612807,17.5783521 19.7612807,17.59171 C19.7158827,17.8950268 19.579691,18.180279 19.3695204,18.4144353 C19.0971413,18.6344697 18.7482524,18.7539015 18.3884304,18.7507633 L9.21306718,18.7507633 C8.51780738,18.7507633 7.94108932,18.1472678 7.84189563,17.59171 C7.84189563,17.579923 7.85282437,17.5673509 7.8696393,17.5673509 L12.4204111,17.5673509 C12.4347016,17.5665652 12.4473133,17.5767806 12.4481548,17.5901389 C12.4582421,17.7339398 12.5910721,17.8431644 12.7449181,17.835319 L14.8500025,17.835319 C15.0038485,17.8431771 15.136672,17.7339499 15.1467657,17.5901389 C15.1484466,17.5767803 15.1610583,17.5665644 15.1753488,17.5673509 L19.73522,17.5673509 Z" id="Fill-5"></path>
                            <path d="M14.4927394,14.2968073 C14.4675181,14.2378719 14.4305287,14.1836519 14.3826084,14.1380759 C14.3321657,14.0877846 14.2733189,14.0445663 14.2085858,14.0107766 C14.1396495,13.971487 14.0673493,13.9369108 13.9933684,13.9062653 C13.9311576,13.8819062 13.8748309,13.8583316 13.8252298,13.8355437 L13.8252298,13.8363302 C13.7815148,13.817471 13.7394786,13.7938964 13.7008083,13.7679662 C13.6697029,13.7467494 13.6428008,13.7216037 13.6209433,13.6933159 C13.603289,13.6665991 13.5931996,13.6359516 13.5931996,13.6045196 C13.5931996,13.5754452 13.601606,13.5463708 13.6192603,13.5220097 C13.6377539,13.496864 13.6621359,13.4756471 13.6898774,13.4599321 C13.7243466,13.4410729 13.7621775,13.426929 13.8016893,13.419856 C13.8496096,13.4096388 13.8992086,13.4049255 13.9479704,13.4057101 C13.9900045,13.4025679 14.0311993,13.4025679 14.0732334,13.4057101 C14.1177898,13.4104254 14.161507,13.4190694 14.2043826,13.4300691 C14.248939,13.4410709 14.2918146,13.4560013 14.3338487,13.474074 L14.3615924,13.474074 C14.3859722,13.4835046 14.4137159,13.4819315 14.4372542,13.4701453 C14.4599532,13.4575724 14.4759267,13.4363556 14.4801299,13.4119965 L14.4801299,13.1786047 C14.4801299,13.1503168 14.4456606,13.1243846 14.4179191,13.1165271 L14.4170776,13.1157426 C14.3464605,13.0976679 14.2749997,13.0835239 14.2018602,13.0733088 C14.1127473,13.0615205 14.0219514,13.0552341 13.9311598,13.0552341 L13.9311598,12.9342212 L13.9311598,12.9350077 C13.9320013,12.915362 13.9168672,12.8988604 13.8966906,12.8965027 L13.6596071,12.8965027 C13.6596071,12.8965027 13.6209347,12.8965027 13.6209347,12.9405076 L13.6209347,13.0756664 C13.6116868,13.0772375 13.6024389,13.0772375 13.593191,13.0756664 C13.5015557,13.0953102 13.4149652,13.130673 13.336781,13.1801778 C13.2644809,13.2273269 13.2047925,13.290191 13.1627584,13.3632702 C13.0568305,13.558149 13.0795295,13.7923153 13.2207659,13.9667657 C13.321649,14.0720636 13.448595,14.1530004 13.5906816,14.2025111 L13.7714297,14.2748059 C13.8218724,14.2968073 13.8714714,14.3211684 13.9185502,14.3486717 C13.9555418,14.3722462 13.988328,14.4005341 14.0152302,14.4335393 C14.0379291,14.4634002 14.0505387,14.4995456 14.0496994,14.5364795 C14.0505409,14.5639828 14.0429738,14.5922706 14.0278419,14.6166317 C14.011027,14.6417774 13.9883301,14.6637808 13.961428,14.6787093 C13.9269587,14.6991396 13.8891278,14.7132855 13.8496161,14.7211431 C13.7974926,14.7321448 13.7453712,14.7376446 13.6924062,14.7376446 C13.5890007,14.7360735 13.4864367,14.719572 13.3889066,14.6873533 C13.3317384,14.6661365 13.2779341,14.6402043 13.2274936,14.6087742 C13.2056361,14.5962014 13.1787339,14.5962014 13.1577158,14.6087742 C13.1358583,14.621347 13.1240881,14.6433505 13.1257689,14.666923 L13.1257689,14.9325214 C13.1232466,14.957667 13.1366977,14.9828127 13.1602382,14.9945989 C13.2291744,15.0252444 13.3014746,15.0464613 13.3754556,15.0590341 C13.450278,15.0731781 13.5259399,15.0826087 13.601606,15.087322 L13.601606,15.2083349 C13.601606,15.2743432 13.6486848,15.2649126 13.6898796,15.2649126 L13.8664245,15.2649126 C13.9244321,15.2649126 13.9118225,15.2067638 13.9118225,15.1525437 L13.9118225,15.0661051 L13.9874843,15.0661051 L13.9866428,15.0653185 C14.0858451,15.0480324 14.1800027,15.0142407 14.2665976,14.9663071 C14.3456233,14.9223022 14.4111979,14.8586515 14.4565937,14.7832146 C14.5053533,14.6991336 14.5297332,14.6040529 14.5272108,14.5081816 C14.5297332,14.4358869 14.5188044,14.3643807 14.4927416,14.2967972 L14.4927394,14.2968073 Z" id="Fill-6"></path>
                        </g>
                    </g>
                </g>
            </g>
        </g>
    </g>
</svg>