<svg width="100%" height="100%" viewBox="0 0 10 9" version="1.1" xmlns="http://www.w3.org/2000/svg" xmlns:xlink="http://www.w3.org/1999/xlink" fit="" preserveAspectRatio="xMidYMid meet" focusable="false">
    <!-- Generator: Sketch 54.1 (76490) - https://sketchapp.com -->
    <title>Bathroom</title>
    <desc>Created with Sketch.</desc>
    <g id="Symbols" stroke="none" stroke-width="1" fill="none" fill-rule="evenodd">
        <g id="Mobile-Apartment" transform="translate(-76.000000, -141.000000)" fill="#000000">
            <g id="Apartment-Style-1">
                <g id="Group-3" transform="translate(1.000000, 139.190549)">
                    <g id="Group" transform="translate(17.671642, 0.000000)">
                        <g id="Group-2">
                            <g id="Bathroom" transform="translate(57.328358, 2.000000)">
                                <path d="M1.142,8.29411765 L1.10554167,8.33272059 L1.10489,8.33272059 C1.00007167,8.44921941 1.00007167,8.63189118 1.10489,8.74770882 C1.15567167,8.80147765 1.22403,8.83180765 1.29564,8.83180765 C1.367905,8.83180765 1.436265,8.80147588 1.48704,8.74770882 L1.89004,8.29412647 L1.34642333,8.29412647 C1.278715,8.29895118 1.209705,8.29895118 1.14199,8.29412647 L1.142,8.29411765 Z" id="Fill-1"></path>
                                <path d="M8.09316667,8.29411765 L8.50006667,8.73873529 C8.55019667,8.79250412 8.61920667,8.82352412 8.69081667,8.82352412 C8.76243167,8.82352412 8.83144167,8.79250412 8.88156667,8.73873529 C8.986385,8.62292647 8.986385,8.44025294 8.88156667,8.32443529 L8.84836333,8.28721059 C8.78456167,8.29548176 8.72076,8.30030824 8.65696333,8.30099647 L8.09316667,8.29411765 Z" id="Fill-2"></path>
                                <path d="M0,4.78270588 L0,7.07682353 C0,7.68412941 0.5,8.18872941 1.14193333,8.28040588 C1.20964167,8.29005706 1.27800167,8.29488176 1.34636667,8.29626176 L8.6537,8.29626176 C8.71750167,8.29901824 8.78130333,8.29832824 8.8451,8.29419353 C9.50005,8.20251176 10.00005,7.69447588 10.00005,7.08164647 L10.00005,4.78752882 L0,4.78270588 Z" id="Fill-3"></path>
                                <path d="M4.763,1.33337567 L6.91466667,1.33337567 C6.97456333,1.33337567 7.02274,1.39393367 7.02274,1.44264227 L7.02274,2.04229088 C7.02274,2.10284889 6.97456333,2.15155749 6.91466667,2.15155749 L4.763,2.15155749 C4.70310333,2.15155749 4.65492667,2.09099948 4.65492667,2.04229088 L4.65492667,1.44264227 C4.65492667,1.38208595 4.70310333,1.33337567 4.763,1.33337567 Z" id="Fill-4"></path>
                                <path d="M8.75,1.4286419 C8.75586,0.931504605 8.33268333,0.523155821 7.80338333,0.51519385 L6.38996667,0.51519385 C5.88931667,0.522539865 5.4785,0.889876664 5.4466,1.36007178 L6.25323333,1.36007178 C6.27862333,1.30986905 6.33266,1.27742088 6.391905,1.27680806 L7.802055,1.27680806 L7.80140333,1.27680806 C7.84567333,1.27680806 7.88799167,1.29333855 7.91924167,1.32272575 C7.95049167,1.35211294 7.96807,1.39190869 7.96807,1.43353977 L7.96807,4.60610294 L8.74997,4.60610294 L8.75,1.4286419 Z" id="Fill-5"></path>
                            </g>
                        </g>
                    </g>
                </g>
            </g>
        </g>
    </g>
</svg>
