<svg width="100%" height="100%" viewBox="0 0 12 9" version="1.1" xmlns="http://www.w3.org/2000/svg" xmlns:xlink="http://www.w3.org/1999/xlink" fit="" preserveAspectRatio="xMidYMid meet" focusable="false">
    <!-- Generator: Sketch 54.1 (76490) - https://sketchapp.com -->
    <title>Bedroom</title>
    <desc>Created with Sketch.</desc>
    <g id="Symbols" stroke="none" stroke-width="1" fill="none" fill-rule="evenodd">
        <g id="Mobile-Apartment" transform="translate(-1.000000, -142.000000)" fill="#000000">
            <g id="Apartment-Style-1">
                <g id="Group-3" transform="translate(1.000000, 139.190549)">
                    <g id="Bedroom" transform="translate(0.000000, 3.000000)">
                        <path d="M11.0429703,2.54335484 C10.8703248,2.54335484 10.7315525,2.69406452 10.7315525,2.88105806 L10.7315525,4.62454194 L1.14961152,4.62454194 L1.14961152,0.38363871 C1.14961152,0.197148387 1.01037588,0.0459354839 0.838657069,0.0459354839 L0.311429347,0.0459354839 C0.139710535,0.0459354839 1.15573998e-05,0.197148387 1.15573998e-05,0.38363871 L1.15573998e-05,7.61550968 C1.15573998e-05,7.80300645 0.139710535,7.95421935 0.311429347,7.95421935 L0.838657069,7.95421935 C1.01037588,7.95421935 1.14961152,7.80300645 1.14961152,7.61651613 L1.14961152,6.70572903 L10.7311949,6.70572903 L10.7311949,7.61651613 C10.7316594,7.80300645 10.8704305,7.95421935 11.043076,7.95421935 L11.5698404,7.95421935 C11.7420226,7.95421935 11.8812594,7.80300645 11.8812594,7.61651613 L11.8812594,2.88116129 C11.8812594,2.69416774 11.7420226,2.54345806 11.5698404,2.54345806 L11.0429703,2.54335484 Z" id="Fill-1"></path>
                        <path d="M3.78106931,2.54180645 C3.78106931,3.2172129 3.27704554,3.76459355 2.65513663,3.76459355 C2.03369109,3.76459355 1.52966733,3.2172129 1.52966733,2.54180645 C1.52966733,1.86690323 2.03369109,1.31952258 2.65513663,1.31952258 C3.27704554,1.31952258 3.78106931,1.86690323 3.78106931,2.54180645" id="Fill-2"></path>
                        <path d="M5.43148515,1.31251613 C5.12145743,1.27773806 4.81190495,1.38761677 4.58076832,1.61442581 C4.3491802,1.84073548 4.2159802,2.16381935 4.2159802,2.50202581 L4.2159802,3.79184516 L10.4039406,3.79184516 C9.95700594,2.82812903 8.18738614,1.62152258 5.43142574,1.31249032 L5.43148515,1.31251613 Z" id="Fill-3"></path>
                    </g>
                </g>
            </g>
        </g>
    </g>
</svg>
