<?xml version="1.0" encoding="UTF-8"?>
<svg width="21px" height="16px" viewBox="0 0 21 16" version="1.1" xmlns="http://www.w3.org/2000/svg" xmlns:xlink="http://www.w3.org/1999/xlink">
    <!-- Generator: Sketch 55.2 (78181) - https://sketchapp.com -->
    <title>Credit Card Icon</title>
    <desc>Created with Sketch.</desc>
    <g id="Booking-Page" stroke="none" stroke-width="1" fill="none" fill-rule="evenodd">
        <g id="10.1-WIRE" transform="translate(-1155.000000, -199.000000)" fill="#FFFFFF">
            <g id="Group-26" transform="translate(884.000000, 132.000000)">
                <g id="Group-29" transform="translate(243.000000, 52.000000)">
                    <g id="Group-28" transform="translate(28.000000, 12.775510)">
                        <g id="Credit-Card-Icon" transform="translate(0.000000, 3.000000)">
                            <path d="M1.39999164,3 L21,3 L21,0.619826777 C21,0.45557157 20.9265011,0.297512727 20.7952505,0.181301157 C20.6639999,0.0650816529 20.4855031,2.22568491e-13 20.3000087,2.22568491e-13 L0.700000299,2.22568491e-13 C0.313241734,2.22568491e-13 5.64860658e-14,0.277368595 5.64860658e-14,0.619834711 L5.64860658e-14,3 L1.39999164,3 Z" id="Fill-1"></path>
                            <path d="M19.6000167,4 L4.83640905e-15,4 L4.83640905e-15,14.3011449 C4.83640905e-15,14.4863427 0.0734989427,14.6645542 0.204749615,14.7955828 C0.336000287,14.9266204 0.514497079,15 0.699991637,15 L20.3000084,15 C20.4855074,15 20.6640087,14.9266204 20.7952504,14.7955828 C20.9265011,14.6645452 21,14.4863382 21,14.3011449 L21,4 L19.6000167,4 Z M3.42857143,9 L2.57142857,9 C2.25570743,9 2,8.776256 2,8.5 C2,8.223744 2.25570743,8 2.57142857,8 L3.42857143,8 C3.74429257,8 4,8.223744 4,8.5 C4,8.776256 3.74429257,9 3.42857143,9 Z M7.32148888,9 L5.66518611,9 C5.2976628,9 5,8.776256 5,8.5 C5,8.223744 5.2976628,8 5.66518611,8 L7.33481389,8 C7.7023372,8 8,8.223744 8,8.5 C8,8.776256 7.7023372,9 7.33481389,9 L7.32148888,9 Z M9.41143771,9 L8.57142857,9 C8.25570743,9 8,8.776256 8,8.5 C8,8.223744 8.25570743,8 8.57142857,8 L9.42857143,8 C9.74429257,8 10,8.223744 10,8.5 C10,8.776256 9.74429257,9 9.42857143,9 L9.41143771,9 Z M10.2601134,7 L2.71828072,7 C2.321422,7 2,6.776256 2,6.5 C2,6.223744 2.321422,6 2.71828072,6 L10.2817193,6 C10.678578,6 11,6.223744 11,6.5 C11,6.776256 10.678578,7 10.2817193,7 L10.2601134,7 Z M16.605358,12.9999008 C16.2208857,12.9990197 15.8414426,12.9021926 15.4991258,12.7182171 C14.7571408,13.1213854 13.8667588,13.0896791 13.151755,12.636353 C12.4367513,12.1830269 12,11.3731702 12,10.4999504 C12,9.62673067 12.4367513,8.81687849 13.151755,8.36354786 C13.8667588,7.91021723 14.7571408,7.87853344 15.4991258,8.28168379 C15.8414426,8.09770822 16.2208857,8.00087885 16.605358,8 C17.9274404,8 19,9.11970434 19,10.5 C19,11.8802957 17.9274836,13 16.605358,13 L16.605358,12.9999008 Z" id="Fill-2"></path>
                        </g>
                    </g>
                </g>
            </g>
        </g>
    </g>
</svg>
