<svg height="512pt" viewBox="0 -38 512 512" width="512pt" xmlns="http://www.w3.org/2000/svg"><path d="m492 0h-472c-11.046875 0-20 8.953125-20 20v396c0 11.046875 8.953125 20 20 20h472c11.046875 0 20-8.953125 20-20 0-10.683594 0-385.390625 0-396 0-11.046875-8.953125-20-20-20zm-20 396h-432v-260h432zm0-300h-432v-56h432zm-396 244c0-11.046875 8.953125-20 20-20h20v-60c0-11.046875 8.953125-20 20-20s20 8.953125 20 20v60h80v-100c0-11.046875 8.953125-20 20-20s20 8.953125 20 20v100h80v-140c0-11.046875 8.953125-20 20-20s20 8.953125 20 20v140h20c11.046875 0 20 8.953125 20 20s-8.953125 20-20 20h-320c-11.046875 0-20-8.953125-20-20zm0 0"/></svg>