<?xml version="1.0" encoding="UTF-8"?>
<svg width="18px" height="17px" viewBox="0 0 18 17" version="1.1" xmlns="http://www.w3.org/2000/svg" xmlns:xlink="http://www.w3.org/1999/xlink">
    <g stroke="none" stroke-width="1" fill="none" fill-rule="evenodd">
        <g transform="translate(1.000000, 0.000000)" fill="#000000">
            <polygon points="0 3.55555556 3.55555556 3.55555556 3.55555556 0 0 0"></polygon>
            <polygon points="6.22266667 3.55555556 9.77822222 3.55555556 9.77822222 0 6.22266667 0"></polygon>
            <polygon points="12.4444444 3.55555556 16 3.55555556 16 0 12.4444444 0"></polygon>
            <polygon points="0 16 3.55555556 16 3.55555556 12.4444444 0 12.4444444"></polygon>
            <polygon points="6.22222222 16 9.77777778 16 9.77777778 12.4444444 6.22222222 12.4444444"></polygon>
            <polygon points="12.4444444 16 16 16 16 12.4444444 12.4444444 12.4444444"></polygon>
            <polygon points="12.4444444 9.77777778 16 9.77777778 16 6.22222222 12.4444444 6.22222222"></polygon>
            <polygon points="6.22222222 9.77777778 9.77777778 9.77777778 9.77777778 6.22222222 6.22222222 6.22222222"></polygon>
            <polygon points="0 9.77777778 3.55555556 9.77777778 3.55555556 6.22222222 0 6.22222222"></polygon>
        </g>
    </g>
</svg>
