<svg xmlns="http://www.w3.org/2000/svg" viewBox="0 0 52.12 51.76"><defs><style>.cls-1{stroke:#000;stroke-miterlimit:10;stroke-width:0.5px;}</style></defs><title>Inventory</title><g id="Layer_2" data-name="Layer 2"><g id="Layer_1-2" data-name="Layer 1"><path class="cls-1" d="M9.32,50.67V33h7.61V18.17H35.16V32.93h7.66V50.67Zm15.09-2.05V36.14H21.29l-.15,3.35H15V36H11.81V48.62Zm-4.64-28.4V32.77h12.5V20.3H29.11v3.52h-6.2v-3.6Zm8,15.94V48.63H40.33V36.07H37.07v3.46H30.92V36.16Z"/><path d="M52,51.76H49.06V49.9c0-10.42,0-20.85,0-31.28a2.52,2.52,0,0,0-1.5-2.54Q37,10.07,26.47,3.92a1.88,1.88,0,0,0-2.24,0q-9.9,6.13-19.87,12.14A2.39,2.39,0,0,0,3,18.45c0,10.43,0,20.85,0,31.28v2H0V50C0,38.92,0,27.82,0,16.71a2.37,2.37,0,0,1,1.31-2.35Q12.74,7.46,24.1.43a2.1,2.1,0,0,1,2.52,0C34.72,5.13,42.86,9.78,51,14.5a2.33,2.33,0,0,1,1.11,1.59c.06,11.67,0,23.35,0,35A5,5,0,0,1,52,51.76Z"/></g></g></svg>