<?xml version="1.0" encoding="UTF-8"?>
<svg width="19px" height="8px" viewBox="0 0 19 8" version="1.1" xmlns="http://www.w3.org/2000/svg" xmlns:xlink="http://www.w3.org/1999/xlink">
    <!-- Generator: Sketch 55.2 (78181) - https://sketchapp.com -->
    <title>Link</title>
    <desc>Created with Sketch.</desc>
    <g id="Symbols" stroke="none" stroke-width="1" fill="none" fill-rule="evenodd">
        <g id="Share-Apartment" transform="translate(-270.000000, -114.000000)" fill="#000000">
            <path d="M277.984759,124.935917 C276.617954,126.302724 274.392016,126.302724 273.025133,124.935917 C271.65825,123.56911 271.658328,121.343169 273.025133,119.976285 L275.780135,117.22128 C277.146939,115.854474 279.372878,115.854474 280.73976,117.22128 C280.851632,117.330107 280.915558,117.479266 280.917088,117.636041 C280.917843,117.792052 280.856199,117.942733 280.745849,118.053081 C280.634739,118.164191 280.484824,118.225835 280.328049,118.224313 C280.172038,118.223552 280.022118,118.159626 279.913289,118.047754 C278.990156,117.12462 277.529817,117.12462 276.607327,118.047754 L273.852325,120.802759 C272.929192,121.725893 272.929192,123.186235 273.852325,124.108726 C274.775458,125.03186 276.235798,125.03186 277.158288,124.108726 L279.775549,121.491462 C279.884376,121.37959 280.034294,121.315664 280.190309,121.314902 C280.347082,121.313381 280.497,121.375023 280.608108,121.486135 C280.718458,121.596485 280.780101,121.7464 280.779341,121.903175 C280.777819,122.059948 280.713892,122.209107 280.60202,122.317936 L277.984759,124.9352 L277.984759,124.935917 Z M283.219866,119.700804 C281.853061,121.06761 279.627123,121.06761 278.26024,119.700804 C278.148368,119.591977 278.084443,119.442058 278.082912,119.286043 C278.082157,119.12927 278.143801,118.979352 278.254151,118.868243 C278.365261,118.757893 278.515176,118.696251 278.671951,118.697011 C278.827962,118.698532 278.977882,118.761698 279.086711,118.874332 C280.009844,119.797466 281.470184,119.797466 282.392674,118.874332 L285.147675,116.119327 C286.070808,115.196193 286.070808,113.735851 285.147675,112.81336 C284.224542,111.890226 282.764202,111.890226 281.841712,112.81336 L279.224451,115.430624 L279.224451,115.429865 C279.115625,115.542496 278.965706,115.606424 278.809691,115.607186 C278.652919,115.607945 278.503,115.546303 278.391892,115.435953 C278.281542,115.325603 278.2199,115.174928 278.220659,115.018913 C278.222181,114.86214 278.286108,114.712981 278.39798,114.603392 L281.015241,111.986128 C282.382046,110.61932 284.607984,110.61932 285.974867,111.986128 C287.34175,113.352935 287.341672,115.578876 285.974867,116.94576 L283.219866,119.700804 Z" id="Link" transform="translate(279.500000, 118.461022) rotate(-315.000000) translate(-279.500000, -118.461022) "></path>
        </g>
    </g>
</svg>