<?xml version="1.0" encoding="UTF-8"?>
<svg width="22px" height="17px" viewBox="0 0 22 17" version="1.1" xmlns="http://www.w3.org/2000/svg" xmlns:xlink="http://www.w3.org/1999/xlink">
    <g stroke="none" stroke-width="1" fill="none" fill-rule="evenodd">
        <path d="M6.44693757,1.03946443 C6.7521634,0.92314383 7,1.07269915 7,1.3732543 L7,13.3434138 C7,13.6446884 6.75375471,13.9820849 6.44693757,14.099125 L1.55385803,15.9601514 C1.24783655,16.0771933 1,15.9276399 1,15.6263612 L1,3.65694337 C1,3.35566874 1.24624523,3.01827223 1.55385803,2.90123215 L6.44693757,1.03946443 Z M20.4461419,1.03984861 C20.7521634,0.922806667 21,1.07236016 21,1.37363852 L21,13.3430576 C21,13.6443323 20.7537547,13.9817289 20.4461419,14.0987689 L15.5530624,15.9605356 C15.2478366,16.0768562 15,15.9273008 15,15.6267451 L15,3.65658431 C15,3.35530965 15.2462453,3.0179131 15.5530624,2.90087301 L20.4461419,1.03984861 Z M8.55378464,1.03984861 C8.24780374,0.922806667 8,1.07236016 8,1.37363852 L8,13.3430576 C8,13.6443323 8.24621264,13.9817289 8.55378464,14.0987689 L13.4462154,15.9605356 C13.7521963,16.0768562 14,15.9273008 14,15.6267451 L14,3.65658431 C14,3.35530965 13.7537874,3.0179131 13.4462154,2.90087301 L8.55378464,1.03984861 Z" id="Fill-1" fill="#000000"></path>
    </g>
</svg>
