<?xml version="1.0" encoding="iso-8859-1"?>
<!-- Generator: Adobe Illustrator 19.0.0, SVG Export Plug-In . SVG Version: 6.00 Build 0)  -->
<svg version="1.1" id="Capa_1" xmlns="http://www.w3.org/2000/svg" xmlns:xlink="http://www.w3.org/1999/xlink" x="0px" y="0px"
	 viewBox="0 0 56 56" style="enable-background:new 0 0 56 56;" xml:space="preserve">
<g>
	<g>
		<rect x="9" y="33" width="4" height="2"/>
		<rect x="24" y="33" width="4" height="2"/>
		<rect x="24" y="29" width="4" height="2"/>
		<rect x="24" y="25" width="4" height="2"/>
		<rect x="24" y="21" width="4" height="2"/>
		<rect x="24" y="17" width="9" height="2"/>
		<rect x="24" y="13" width="9" height="2"/>
		<rect x="24" y="9" width="9" height="2"/>
		<rect x="24" y="5" width="9" height="2"/>
		<rect x="9" y="37" width="4" height="2"/>
		<rect x="24" y="37" width="4" height="2"/>
		<rect x="9" y="41" width="4" height="2"/>
		<rect x="24" y="41" width="4" height="2"/>
		<rect x="9" y="45" width="4" height="2"/>
		<rect x="24" y="45" width="4" height="2"/>
		<rect x="14" y="33" width="4" height="2"/>
		<rect x="29" y="33" width="4" height="2"/>
		<rect x="29" y="29" width="4" height="2"/>
		<rect x="29" y="25" width="4" height="2"/>
		<rect x="29" y="21" width="4" height="2"/>
		<rect x="14" y="37" width="4" height="2"/>
		<rect x="29" y="37" width="4" height="2"/>
		<rect x="14" y="41" width="4" height="2"/>
		<rect x="29" y="41" width="4" height="2"/>
		<rect x="14" y="45" width="4" height="2"/>
		<rect x="29" y="45" width="4" height="2"/>
		<path d="M50,22H37V1c0-0.552-0.447-1-1-1H21c-0.553,0-1,0.448-1,1v27H6c-0.553,0-1,0.448-1,1v26c0,0.552,0.447,1,1,1h4h7h4h4h7h4
			h4h6h4c0.553,0,1-0.448,1-1V23C51,22.448,50.553,22,50,22z M7,30h13v24h-2v-4c0-0.552-0.447-1-1-1h-7c-0.553,0-1,0.448-1,1v4H7V30
			z M11,54v-3h5v3H11z M22,29V2h13v21v31h-2v-4c0-0.552-0.447-1-1-1h-7c-0.553,0-1,0.448-1,1v4h-2V29z M26,54v-3h5v3H26z M41,54v-2
			h4v2H41z M49,54h-2v-3c0-0.552-0.447-1-1-1h-6c-0.553,0-1,0.448-1,1v3h-2V24h12V54z"/>
		<rect x="39" y="26" width="2" height="6"/>
		<rect x="39" y="34" width="2" height="6"/>
		<rect x="39" y="42" width="2" height="6"/>
		<rect x="45" y="26" width="2" height="6"/>
		<rect x="45" y="34" width="2" height="6"/>
		<rect x="45" y="42" width="2" height="6"/>
		<rect x="42" y="26" width="2" height="6"/>
		<rect x="42" y="34" width="2" height="6"/>
		<rect x="42" y="42" width="2" height="6"/>
	</g>
</g>
<g>
</g>
<g>
</g>
<g>
</g>
<g>
</g>
<g>
</g>
<g>
</g>
<g>
</g>
<g>
</g>
<g>
</g>
<g>
</g>
<g>
</g>
<g>
</g>
<g>
</g>
<g>
</g>
<g>
</g>
</svg>
