<?xml version="1.0" encoding="UTF-8"?>
<svg width="27px" height="34px" viewBox="0 0 27 34" version="1.1" xmlns="http://www.w3.org/2000/svg" xmlns:xlink="http://www.w3.org/1999/xlink">
    <!-- Generator: Sketch 53 (72520) - https://sketchapp.com -->
    <title>Fill 9</title>
    <desc>Created with Sketch.</desc>
    <g id="Page-1" stroke="none" stroke-width="1" fill="none" fill-rule="evenodd">
        <g id="Finalized-Homepage" transform="translate(-1243.000000, -5109.000000)" fill="#000000">
            <g id="Fill-9" transform="translate(1243.000000, 5109.000000)">
                <path d="M4.50436513,12.7450638 C4.50436513,10.9724476 4.50260649,9.19983153 4.50436513,7.42538837 C4.50963657,5.81210758 5.0806255,4.21709724 6.10671259,2.94063009 C7.0993809,1.70580256 8.50845715,0.779660675 10.0756767,0.3265535 C10.8153427,0.112445063 11.5849193,0.00290308962 12.3632216,0.00124600224 C13.1204742,-0.000415334081 13.8794809,-0.000415334081 14.6367334,0.00124600224 C16.2742088,0.00456442594 17.9152375,0.504150777 19.2487954,1.41865056 C20.6244978,2.3630629 21.6611098,3.7389553 22.1547903,5.27422551 C22.3814398,5.97462111 22.4938852,6.70658635 22.4956394,7.43685201 L22.4956394,12.7446304 C23.2476295,12.7462917 23.9996196,12.7462917 24.7515647,12.7479488 C25.4367622,12.7512672 26.113189,13.0649581 26.5331052,13.5844805 C26.8282745,13.9496261 26.9899035,14.4060559 26.9934118,14.8657914 C27.0021961,20.5355796 27.0021961,26.2053678 26.9934118,31.8747312 C26.989899,32.5253292 26.6560755,33.1626705 26.1078815,33.5576946 C25.7213481,33.8365314 25.2416918,33.9892171 24.7515197,33.9925313 C17.2509593,34.0024896 9.75039899,34.0024896 2.2484893,33.9925313 C1.54219702,33.9892129 0.849937943,33.6572643 0.433530005,33.1145299 C0.159442006,32.7576868 0.0083468247,32.3195104 0.00658817809,31.8746887 C-0.00219605936,26.2049005 -0.00219605936,20.5351123 0.00658817809,14.8657489 C0.0101009735,14.3246887 0.238504641,13.7869001 0.637317117,13.3968897 C1.05371606,12.9885919 1.65108019,12.751263 2.24843532,12.7479488 C3.00042542,12.7462917 3.75241552,12.7462917 4.50436063,12.7446304 L4.50436513,12.7450638 Z M2.25721056,14.8728489 L2.25545192,14.8728489 C2.24666768,20.5375384 2.25545192,26.2022279 2.25545192,31.8669174 L2.25545192,31.8685787 C9.75241402,31.878534 17.247577,31.878534 24.7445391,31.8685787 L24.7445391,31.8669174 C24.7445391,26.2022279 24.7533278,20.5375384 24.7445391,14.8728489 L24.7427849,14.8728489 L2.2554969,14.8728489 L2.25721056,14.8728489 Z M12.3755007,23.1863288 C12.1189856,23.1016814 11.8747586,22.9871597 11.6463595,22.8460821 C10.8469624,22.3481486 10.2882435,21.5199448 10.1582116,20.6170446 C10.0404947,19.8104255 10.2653856,18.9656083 10.7731532,18.3066824 C11.3810782,17.5199483 12.3684841,17.0187431 13.4243917,16.9971585 C13.452503,16.9954971 13.4823731,16.9954971 13.5104844,16.9954971 C14.3555793,17.0004769 15.1954118,17.3141678 15.8121075,17.8618989 C16.3303911,18.3232915 16.6905763,18.945719 16.8170999,19.6096162 C16.9804966,20.4527763 16.76439,21.3556764 16.2320238,22.0511008 C15.8331933,22.5706189 15.2639585,22.9706143 14.6244139,23.1863756 L14.6244139,28.6802576 C14.6226552,28.7151159 14.6226552,28.7499657 14.6191424,28.7848198 C14.5804882,29.1649004 14.3081588,29.515128 13.9304366,29.6628212 C13.5228219,29.8221565 13.0221024,29.7325293 12.7040617,29.4321164 C12.5476906,29.2843977 12.4405166,29.0935267 12.3965954,28.8877419 C12.3772683,28.7964577 12.379027,28.7732202 12.3755142,28.6802746 L12.3755142,23.184693 L12.3755007,23.1863288 Z M13.4964467,19.121621 C13.225876,19.1232823 12.9588226,19.2195463 12.7567806,19.3871798 C12.3983586,19.6842744 12.2683627,20.2070982 12.4809385,20.6336495 C12.6601495,20.9954724 13.0660146,21.2444349 13.4964557,21.246092 C13.9638239,21.2477533 14.417114,20.9523159 14.5699498,20.5157838 C14.6648268,20.2435881 14.6367154,19.9365256 14.4908872,19.6826088 C14.3011333,19.3506602 13.916381,19.1265922 13.5122521,19.1232781 L13.4981964,19.1232781 L13.4964467,19.121621 Z M20.2467711,12.7431092 C20.2467711,10.9721502 20.2485298,9.20123368 20.2467711,7.42853258 C20.2432583,6.29657195 19.8479407,5.16631088 19.1275792,4.25843945 C18.4195328,3.36216762 17.4040156,2.68667082 16.2672372,2.35801516 C15.7383838,2.20531668 15.1884807,2.12731036 14.6332701,2.12564902 C13.88128,2.12398768 13.1292899,2.12564902 12.3755906,2.12564902 C11.1896511,2.12731036 10.0107282,2.4907946 9.05845026,3.14802944 C7.66516136,4.10901266 6.77792189,5.69573756 6.75331883,7.36213012 L6.75331883,7.43681802 L6.75331883,12.7428968 C11.2511363,12.7395784 15.7489537,12.7395784 20.2467711,12.7428968 L20.2467711,12.7431092 Z" id="Fill-1"></path>
            </g>
        </g>
    </g>
</svg>