<?xml version="1.0" encoding="UTF-8"?>
<svg width="10px" height="10px" viewBox="0 0 10 10" version="1.1" xmlns="http://www.w3.org/2000/svg" xmlns:xlink="http://www.w3.org/1999/xlink">
    <!-- Generator: Sketch 55.2 (78181) - https://sketchapp.com -->
    <title>Fill 1</title>
    <desc>Created with Sketch.</desc>
    <g id="Search" stroke="none" stroke-width="1" fill="none" fill-rule="evenodd">
        <g id="5.1-Search-with-Map" transform="translate(-406.000000, -231.000000)" fill="#000000">
            <g id="Group-4" transform="translate(395.000000, 215.000000)">
                <path d="M16.5001495,17.6677643 L16.5001495,22.3420069 C16.5001495,22.6109111 16.2779649,22.8290525 16.0000061,22.8290525 C15.7239193,22.8290525 15.4998627,22.6109111 15.4998627,22.3420069 L15.4998627,17.6660082 L14.9355095,18.2170692 C14.7419199,18.4059425 14.4278664,18.4054859 14.2314689,18.2138672 C14.0360074,18.0231676 14.0374113,17.713569 14.228187,17.5269786 L15.6489398,16.1413067 C15.7450302,16.0470995 15.8711244,16 15.9976722,16 L16.0014221,16.0013721 C16.1284499,16.0018298 16.2545417,16.0484751 16.3496865,16.141309 L17.7699605,17.5269809 C17.9635501,17.7158542 17.9635501,18.0222568 17.7671478,18.2138696 C17.5716863,18.4045692 17.2538889,18.4031994 17.0631072,18.2170715 L16.5001495,17.6677643 Z M12.000299,25.0241413 L19.9997132,25.0241413 L19.9997132,21.6074931 C19.9997132,21.3390455 20.2218979,21.1218289 20.4998566,21.1218289 C20.7759434,21.1218289 21,21.3408835 21,21.6074931 L21,25.5143245 C21,25.6483141 20.9442211,25.7695077 20.8542288,25.8573119 C20.7628255,25.9455741 20.63814,26 20.5003366,26 L11.4996756,26 C11.3618722,26 11.2376523,25.9460365 11.1471871,25.8582367 C11.0562529,25.7686039 11,25.6474127 11,25.5143362 L11,21.6075048 C11,21.3390572 11.2221849,21.1218289 11.5001436,21.1218289 C11.7762305,21.1218289 12.000287,21.3408952 12.000287,21.6075048 L12.000299,25.0241413 Z" id="Fill-1"></path>
            </g>
        </g>
    </g>
</svg>