<?xml version="1.0" encoding="UTF-8"?>
<svg width="21px" height="25px" viewBox="0 0 21 25" version="1.1" xmlns="http://www.w3.org/2000/svg" xmlns:xlink="http://www.w3.org/1999/xlink">
    <!-- Generator: Sketch 55.2 (78181) - https://sketchapp.com -->
    <title>Shield</title>
    <desc>Created with Sketch.</desc>
    <g id="Listing-Page" stroke="none" stroke-width="1" fill="none" fill-rule="evenodd">
        <g id="7.1" transform="translate(-21.000000, -4855.000000)" fill="#000000" fill-rule="nonzero">
            <g id="Group-8" transform="translate(16.000000, 4486.000000)">
                <g id="Shield" transform="translate(5.000000, 369.000000)">
                    <polygon id="Shape" points="9.08975 15.99425 5.5965 12.5 6.332825 11.763675 9.422575 14.854425 14.599325 8.641425 15.4001 9.308425 9.8581 15.957925"></polygon>
                    <path d="M10.59875,24.9904125 L10.38,24.985367 C5.74525,23.888692 0.083,17.910117 0.083,12.500117 L0.083,4.596867 C0.083,3.825392 0.671875,3.164242 1.453125,3.061717 C3.66895,2.766792 7.457125,1.474792 10.264625,0.056717 L10.727525,0.0537875 C13.805525,1.5469625 17.432525,2.7842875 19.548775,3.0635375 C20.340775,3.1670525 20.91695,3.8174375 20.91695,4.6104125 L20.91695,12.5001625 C20.91695,18.0949125 16.0947,23.9326625 10.5987,24.9904125 L10.59875,24.9904125 Z M10.5040225,1.100325 C7.5920225,2.540925 3.8820225,3.788 1.5900225,4.09375 C1.3214725,4.128905 1.1251725,4.34082 1.1251725,4.596675 L1.1251725,12.499925 C1.1251725,17.339675 6.3439225,22.885675 10.5119225,23.946175 C15.5129225,22.91785 19.8751725,17.599425 19.8751725,12.499925 L19.8751725,4.610175 C19.8751725,4.3465 19.6808375,4.1297 19.4122725,4.093575 C16.8887725,3.760575 13.1690225,2.36995 10.5040225,1.100325 L10.5040225,1.100325 Z" id="Shape"></path>
                </g>
            </g>
        </g>
    </g>
</svg>