<?xml version="1.0" encoding="UTF-8"?>
<svg width="19px" height="25px" viewBox="0 0 19 25" version="1.1" xmlns="http://www.w3.org/2000/svg" xmlns:xlink="http://www.w3.org/1999/xlink">
    <!-- Generator: Sketch 55.2 (78181) - https://sketchapp.com -->
    <title>Sign Lease</title>
    <desc>Created with Sketch.</desc>
    <g id="Listing-Page" stroke="none" stroke-width="1" fill="none" fill-rule="evenodd">
        <g id="7.1" transform="translate(-22.000000, -4782.000000)" fill="#000000" fill-rule="nonzero">
            <g id="Group-8" transform="translate(16.000000, 4486.000000)">
                <g id="Sign-Lease" transform="translate(6.000000, 296.000000)">
                    <path d="M18.9183109,7.17336957 C18.9183109,7.0375 18.864226,6.87402174 18.7550194,6.76576087 L11.9152909,0.325815217 C11.8071429,0.244081522 11.6714286,0.189945652 11.5357251,0.189945652 L1.13973943,0.189945652 C0.542813714,0.189945652 0.0540251429,0.679293478 0.0540251429,1.27690217 L0.0540251429,23.7771739 C0.0540251429,24.3747826 0.542813714,24.8641304 1.13973943,24.8641304 L17.8325966,24.8641304 C18.4295223,24.8641304 18.9183109,24.3747826 18.9183109,23.7771739 L18.9183109,7.17336957 Z M12.1059857,1.95625 L17.0193857,6.60353261 L12.6488429,6.60353261 C12.3498371,6.60353261 12.1059857,6.3593913 12.1059857,6.06005435 L12.1059857,1.95625 Z M1.13972857,23.7494565 L1.13972857,1.25027174 L10.9928571,1.25027174 L10.9928571,6.05978261 C10.9928571,6.95673913 11.7254971,7.69021739 12.6214286,7.69021739 L17.8325857,7.69021739 L17.8325857,23.7228261 L1.13972857,23.7494565 Z" id="Shape"></path>
                    <polygon id="Shape" points="2.79598571 12.2282609 9.47367143 12.2282609 9.47367143 13.3152174 2.79598571 13.3152174"></polygon>
                    <polygon id="Shape" points="2.79598571 16.0326087 15.9325857 16.0326087 15.9325857 17.1195652 2.79598571 17.1195652"></polygon>
                    <polygon id="Shape" points="2.79598571 19.8646739 15.9325857 19.8646739 15.9325857 20.9516304 2.79598571 20.9516304"></polygon>
                </g>
            </g>
        </g>
    </g>
</svg>