<?xml version="1.0" encoding="UTF-8"?>
<svg width="52px" height="54px" viewBox="0 0 52 54" version="1.1" xmlns="http://www.w3.org/2000/svg" xmlns:xlink="http://www.w3.org/1999/xlink">
    <!-- Generator: Sketch 55.2 (78181) - https://sketchapp.com -->
    <title>Budget Friendly</title>
    <desc>Created with Sketch.</desc>
    <g id="Corporate-Page" stroke="none" stroke-width="1" fill="none" fill-rule="evenodd">
        <g id="Corporate-Rooms" transform="translate(-582.000000, -2303.000000)" fill="#000000" fill-rule="nonzero">
            <g id="Group-11" transform="translate(581.000000, 2303.000000)">
                <g id="Group-19">
                    <g id="Budget-Friendly" transform="translate(1.000000, 0.000000)">
                        <path d="M27.0244282,35.9476875 L27.1127435,35.9476875 C29.1440218,35.6840156 30.8219826,34.5414375 31.3518739,32.8714875 C32.1466826,30.67425 31.2635587,28.4769562 29.3205957,27.33435 C28.7907044,26.9827875 28.2608131,26.8070062 27.6425782,26.5433625 L27.5542631,26.4554718 C27.2893174,26.3675812 27.1126869,26.2796906 26.9360282,26.1918 L26.6710826,26.0160187 C26.4061369,25.8402375 26.0528478,25.7523468 25.6995869,25.5765656 C25.5229565,25.488675 25.4346413,25.488675 25.2580108,25.4007843 C24.7281195,25.1371125 24.2865152,24.9613312 23.9332544,24.6976593 C22.7851848,24.0823968 22.4319239,22.6761468 22.8734718,21.3578156 C23.2267326,20.3909906 24.0215413,19.8637031 25.1696674,19.6878656 L25.6995587,19.6878656 C25.9645044,19.6878656 26.3177935,19.6878656 26.6710544,19.7757562 C27.7308369,20.0394281 28.4373587,20.5667437 28.7906195,21.5335687 C28.7906195,21.6214593 28.8789348,21.7972406 28.8789348,21.8851312 C28.96725,22.3245843 29.4088261,22.6761187 29.9387174,22.6761187 L30.2036631,22.6761187 C30.4686087,22.5882281 30.7335544,22.4124468 30.9101848,22.2366656 C31.0868152,22.0608843 31.0868152,21.7972125 30.9985,21.5335406 C30.9101848,21.3577593 30.9101848,21.1819781 30.8218695,21.0061968 C30.2036348,19.4241656 28.8789348,18.3694781 27.1126305,18.0179156 L27.0243152,18.0179156 L27.0243152,16.3479656 C27.0243152,15.8206218 26.5827392,15.3811406 25.9645326,15.3811406 C25.3463261,15.3811406 24.90475,15.8205937 24.90475,16.3479656 L24.90475,17.8420781 L24.8164348,17.8420781 C22.1669782,18.1936406 21.1955392,19.8635906 20.8422782,20.7424406 C20.0474695,22.9396781 20.7539631,25.2248906 22.7852131,26.3674406 C23.4917348,26.8068937 24.1982565,27.0705656 24.9047782,27.4221281 C24.9930935,27.4221281 24.9930935,27.5100187 25.0814087,27.5100187 C25.2580392,27.5979093 25.3463544,27.5979093 25.5229848,27.6858 L25.8762457,27.8615812 C26.1411913,27.9494718 26.4061369,28.1252531 26.6710544,28.2131437 C27.2009457,28.388925 27.7308369,28.6525968 28.1723848,28.9162687 C29.3204544,29.6193937 29.7620587,30.9377812 29.3204544,32.2561125 C28.9671935,33.3108 28.0840413,33.9260625 26.7593413,34.013925 L26.4060805,34.013925 L25.9645044,34.013925 L25.3462695,34.013925 L25.0813239,34.013925 C23.6682805,33.8381437 22.6084978,32.9592375 22.2552369,31.7287687 C22.1669218,31.2893156 21.7253457,30.9377812 21.1954544,30.9377812 L20.9305087,30.9377812 C20.6655631,31.0256718 20.4006174,31.2014531 20.2239869,31.3772343 C20.0473565,31.5530156 20.0473565,31.8166875 20.1356718,32.0803593 C20.6655631,34.1018718 22.3435239,35.5081218 24.6397761,35.8596843 L24.7280913,35.8596843 L24.7280913,37.4417156 C24.7280913,37.9690593 25.1696674,38.4085406 25.7878739,38.4085406 C26.4060805,38.4085406 26.8476565,37.9690875 26.8476565,37.4417156 L26.8476565,35.9476031 L27.0244282,35.9476875 Z" id="Shape"></path>
                        <path d="M37.9755152,12.7445625 C34.4429065,9.4926375 30.4688631,7.8226875 26.3179065,7.8226875 L25.9646457,7.8226875 L25.6113848,7.8226875 C21.4605413,7.8226875 17.4863848,9.4926375 13.9537761,12.7445625 C9.62635871,16.7875312 6.62347174,24.346125 10.4211674,31.289625 C10.7744282,31.9048875 11.1276892,32.6080125 11.48095,33.2232187 L11.6575805,33.5747812 C12.1874718,34.6294687 12.7173631,35.508375 13.2472544,36.4751437 C14.6602978,38.9360812 15.54345,41.3091562 15.9850544,43.7702062 C16.0733695,44.29755 16.1616848,44.9127562 16.1616848,45.4401562 C16.3383152,47.37375 17.4864413,49.483125 19.3410326,51.3289687 L19.4293478,51.4168593 C21.2839392,52.9988906 23.5801913,53.8777968 26.0531305,53.8777968 C28.5260695,53.8777968 30.8221521,52.9988906 32.6769131,51.4168593 L32.7652282,51.3289687 C34.6198195,49.4832937 35.7679457,47.3739187 35.9445761,45.4401562 C36.0328913,44.8248937 36.0328913,44.2976062 36.2095218,43.7702062 C36.6510978,41.3971312 37.5342782,39.0241125 38.9473218,36.4751437 C39.4772131,35.5083187 40.0071044,34.54155 40.5369957,33.4868625 L40.7136261,33.1353 C41.0668869,32.5200375 41.4201478,31.8169125 41.7734087,31.2017062 C45.3060174,24.2582062 42.3916435,16.7876437 37.9758261,12.7449562 L37.9755152,12.7445625 Z M39.4768457,30.1471875 C39.1235848,30.76245 38.7703239,31.465575 38.4170631,32.0807812 L38.2404326,32.4323437 C37.7105413,33.3991687 37.18065,34.3659375 36.6507587,35.3327062 C35.0610848,38.0573437 34.0896457,40.6940062 33.6480413,43.3308937 C33.5597261,43.9461562 33.4714108,44.6492812 33.3830957,45.2644875 C33.2947805,46.6707375 32.3233131,48.2527687 30.9102695,49.6590187 C29.6738565,50.8894875 27.8192087,51.5046937 25.9646174,51.5046937 C24.1100261,51.5046937 22.3437218,50.8015687 20.9306782,49.6590187 C19.5176348,48.2527687 18.5461392,46.5828187 18.4578521,45.2644875 C18.3695369,44.649225 18.2812218,43.9461 18.1929065,43.3308937 C17.7513305,40.694175 16.7798631,38.0574562 15.1901892,35.3327062 C14.6602978,34.4538 14.2186935,33.4870312 13.6888587,32.5202062 L13.5122282,32.1686437 C13.1589674,31.5533812 12.8057065,30.8502562 12.4524457,30.23505 C9.18481084,24.3462375 11.7459239,17.9303625 15.4551631,14.5024875 C18.5462239,11.602125 21.9020326,10.195875 25.5228152,10.195875 L25.7877608,10.195875 L25.9643913,10.195875 L26.2293369,10.195875 C29.8502326,10.195875 33.2063805,11.6899875 36.2969892,14.5024875 C40.0945718,17.8423312 42.6556848,24.2584875 39.4763369,30.1467375 L39.4768457,30.1471875 Z" id="Shape"></path>
                        <path d="M6.62347174,35.771625 C6.4468413,35.771625 6.27021087,35.771625 6.09358044,35.8595157 C5.3870587,36.2110782 4.59225,36.6505032 3.88572826,37.1779032 C3.44415217,37.5294657 3.26749348,37.7931657 3.26749348,38.0568094 C3.26749348,38.2325907 3.26749348,38.3204812 3.3558087,38.4962625 C3.62075435,39.0236062 4.23896087,39.28725 4.68056522,39.1993875 C4.76888044,39.1993875 4.85719565,39.1114969 4.94551087,39.1114969 C5.65203261,38.7599344 6.35855435,38.3205094 7.24170652,37.7931094 C7.77159783,37.4415469 7.8599413,36.9142032 7.59496739,36.2989969 C7.33002174,35.9474344 6.97673261,35.771625 6.62347174,35.771625 L6.62347174,35.771625 Z" id="Shape"></path>
                        <path d="M47.9549935,37.090125 C47.3367587,36.6506719 46.6302369,36.2991375 45.9237152,35.947575 C45.8354,35.8596843 45.5704544,35.8596843 45.4821392,35.7717937 C44.6873305,35.7717937 44.4223565,36.2112468 44.2457261,36.5627812 C44.0690957,37.0022344 44.2457261,37.5296062 44.5989869,37.79325 C45.3937957,38.3205937 46.1003174,38.760075 46.8068392,39.1116375 C46.9834695,39.1995281 47.2484152,39.2874187 47.4250739,39.2874187 C47.86665,39.2874187 48.2198826,39.1116375 48.3965695,38.760075 C48.7498305,38.1448125 48.5732,37.4416875 47.9549935,37.090125 Z" id="Shape"></path>
                        <path d="M39.4767326,4.5703125 L39.4767326,4.5703125 C39.4767326,4.13085938 39.3001021,3.515625 38.7702108,3.33984375 C38.6818957,3.33984375 38.5052652,3.25195312 38.41695,3.25195312 C38.0636892,3.25195312 37.7104282,3.42773438 37.5337978,3.69140625 C37.0922218,4.39453125 36.6506457,5.18551875 36.2973848,5.80078125 C35.9441239,6.41604375 36.1207544,7.03125 36.6506457,7.3828125 C36.8272761,7.47070312 37.0039065,7.55859375 37.2688805,7.55859375 C37.6221413,7.55859375 37.9754021,7.3828125 38.2403761,6.94333125 C38.6819521,6.32806875 39.0351848,5.62494375 39.4767892,4.92181875 C39.3884739,4.83392812 39.4767892,4.65814687 39.4767892,4.57025625 L39.4767326,4.5703125 Z" id="Shape"></path>
                        <path d="M7.06490652,13.6231875 C6.44667174,13.271625 5.74015,12.8322 5.03362826,12.4806375 C4.94531304,12.3927468 4.68036739,12.3927468 4.59205217,12.3048562 C4.15047609,12.3048562 3.62055652,12.4806375 3.35563913,13.0958437 C3.1790087,13.5352968 3.35563913,14.0626687 3.7089,14.3263125 C4.32713478,14.7657657 5.03365652,15.1173 5.91675217,15.6447 C6.53498696,15.9962625 7.15316522,15.8204812 7.50642609,15.2052468 C7.85968696,14.5900125 7.68305652,13.9747781 7.06485,13.6232156 L7.06490652,13.6231875 Z" id="Shape"></path>
                        <path d="M45.9236021,15.5570625 C46.6301239,15.2055 47.4249326,14.6781562 48.0431674,14.3265937 C48.3964282,14.0629219 48.5730587,13.79925 48.5730587,13.2719062 C48.5730587,12.6566437 48.0431674,12.2172187 47.5132761,12.2172187 C47.3366457,12.2172187 47.1600152,12.2172187 46.9833848,12.3051093 C46.2768631,12.6566718 45.4820544,13.0960968 44.8638195,13.5355781 C44.2455848,13.8871406 44.0690108,14.5024032 44.4222435,15.1176093 C44.5988739,15.4691719 44.9521348,15.6449532 45.3937392,15.6449532 C45.5703695,15.7328437 45.747,15.6449532 45.9236305,15.5570625 L45.9236021,15.5570625 Z" id="Shape"></path>
                        <path d="M15.3668195,7.3828125 C15.9850544,7.03125 16.0733413,6.4159875 15.8083957,5.80078125 C15.4551348,5.18551875 15.1018739,4.48239375 14.6603261,3.77926875 C14.3953805,3.42770625 14.1304348,3.251925 13.6888305,3.251925 C13.2472261,3.251925 12.8940218,3.42770625 12.7173348,3.77926875 C12.5406478,4.13083125 12.5407044,4.48239375 12.7173348,4.92181875 C13.0705957,5.62494375 13.5121435,6.24020625 13.9537478,7.03119375 C14.2186935,7.38275625 14.5719826,7.64645625 14.9252435,7.64645625 C14.9252435,7.55856562 15.1018739,7.55856562 15.3668195,7.38278437 L15.3668195,7.3828125 Z" id="Shape"></path>
                        <path d="M25.9646457,4.5703125 C26.5828805,4.5703125 27.0244282,4.13085938 27.1127152,3.515625 L27.1127152,2.7246375 L27.1127152,1.93365 L27.1127152,0.966825 C27.1127152,0.3515625 26.5828239,0 25.9646457,0 C25.3464674,0 24.9048631,0.439453125 24.8165761,0.966825 L24.8165761,3.515625 C24.9048913,4.1308875 25.3464674,4.5703125 25.9646457,4.5703125" id="Shape"></path>
                        <path d="M3.17931957,24.6099375 L1.58964565,24.6099375 L1.14806957,24.6099375 C0.529834783,24.6099375 0.0882869568,25.0493906 3.33955086e-13,25.664625 C3.33955086e-13,26.2798875 0.441576087,26.807175 1.05978261,26.807175 L3.62089565,26.807175 C4.23913044,26.807175 4.68067826,26.2798312 4.68067826,25.664625 C4.68067826,25.0494187 4.23910217,24.6099375 3.62089565,24.6099375 L3.17931957,24.6099375 Z" id="Shape"></path>
                        <path d="M50.3396457,24.6099375 L48.7499718,24.6099375 L48.3083957,24.6099375 C47.6901608,24.6099375 47.2486131,25.0493906 47.2486131,25.664625 C47.2486131,26.2798594 47.6901892,26.7193125 48.3083957,26.807175 L49.6331521,26.807175 L50.8695652,26.807175 C51.4878,26.807175 51.9293478,26.3677219 51.9293478,25.7524875 C51.9293478,25.1372532 51.4877718,24.6978 50.8695652,24.6099375 L50.3396739,24.6099375 L50.3396457,24.6099375 Z" id="Shape"></path>
                    </g>
                </g>
            </g>
        </g>
    </g>
</svg>