<?xml version="1.0" encoding="UTF-8"?>
<svg width="34px" height="53px" viewBox="0 0 34 53" version="1.1" xmlns="http://www.w3.org/2000/svg" xmlns:xlink="http://www.w3.org/1999/xlink">
    <!-- Generator: Sketch 55.2 (78181) - https://sketchapp.com -->
    <title>Shape</title>
    <desc>Created with Sketch.</desc>
    <g id="Corporate-Page" stroke="none" stroke-width="1" fill="none" fill-rule="evenodd">
        <g id="Corporate-Rooms" transform="translate(-1052.000000, -1985.000000)" fill="#000000" fill-rule="nonzero">
            <g id="Group-24" transform="translate(1052.000000, 1985.000000)">
                <g id="Group-23">
                    <path d="M17,-1.52766688e-13 C7.75919231,-1.52766688e-13 1.95399252e-13,7.05095122 1.95399252e-13,17.7804878 C1.95399252e-13,21.6056634 0.916888462,24.3504439 2.45192308,27.2673659 L15.2633846,51.6332195 C15.6030773,52.284038 16.2722692,52.6905 17.0001308,52.6905 C17.7279923,52.6905 18.3972038,52.2840578 18.7368769,51.6332195 L31.5483385,27.27 C33.0833731,24.3503122 34.0002615,21.6081 34.0002615,17.783122 C34.0002615,7.05358537 26.2410692,0.00263414634 17.0002615,0.00263414634 L17,-1.52766688e-13 Z M17,3.95121951 C24.3708077,3.95121951 30.0769231,8.86969756 30.0769231,17.7804878 C30.0769231,21.0320122 29.4664988,22.7683756 28.0745192,25.415561 L16.9996731,46.4709512 L5.92482692,25.4181951 C4.53285385,22.7712073 3.92242308,21.0348439 3.92242308,17.783122 C3.92242308,8.87246341 9.62827692,3.95385366 16.9993462,3.95385366 L17,3.95121951 Z M17,8.56097561 C12.3285962,8.56097561 8.5,12.4170366 8.5,17.1219512 C8.5,21.8268659 12.3285962,25.6829268 17,25.6829268 C21.6714038,25.6829268 25.5,21.8268659 25.5,17.1219512 C25.5,12.4170366 21.6714038,8.56097561 17,8.56097561 Z M17,12.5121951 C19.5515038,12.5121951 21.5769231,14.5521439 21.5769231,17.1219512 C21.5769231,19.6917585 19.5515038,21.7317073 17,21.7317073 C14.4484962,21.7317073 12.4230769,19.6917585 12.4230769,17.1219512 C12.4230769,14.5521439 14.4484962,12.5121951 17,12.5121951 L17,12.5121951 Z" id="Shape"></path>
                </g>
            </g>
        </g>
    </g>
</svg>