<?xml version="1.0" encoding="UTF-8"?>
<svg width="45px" height="45px" viewBox="0 0 45 45" version="1.1" xmlns="http://www.w3.org/2000/svg" xmlns:xlink="http://www.w3.org/1999/xlink">
    <!-- Generator: Sketch 55.2 (78181) - https://sketchapp.com -->
    <title>Flexibility</title>
    <desc>Created with Sketch.</desc>
    <g id="Corporate-Page" stroke="none" stroke-width="1" fill="none" fill-rule="evenodd">
        <g id="Corporate-Rooms" transform="translate(-1053.000000, -2316.000000)" fill="#000000" fill-rule="nonzero">
            <g id="Group-9" transform="translate(1051.000000, 2316.000000)">
                <g id="Group-20">
                    <g id="Flexibility" transform="translate(2.000000, 0.000000)">
                        <path d="M39.9850714,38.1844286 C39.5983543,38.5711457 39.5983543,39.1487143 39.9850714,39.5354571 L40.8213,40.3716857 L27.9641571,40.3716857 C27.44937,40.3716857 26.9998714,40.8211843 26.9998714,41.3359714 C26.9998714,41.8507586 27.44937,42.3002571 27.9641571,42.3002571 L40.7557286,42.3002571 L39.9195,43.1364857 C39.5327829,43.5232029 39.5327829,44.1007714 39.9195,44.4875143 C40.1128586,44.6808729 40.3689986,44.7436543 40.6276714,44.7436543 C40.8838114,44.7436543 41.1424586,44.6783657 41.3358429,44.4875143 L44.4848143,41.3385429 L41.3358429,38.1895714 C40.9491257,37.8003407 40.3062429,37.8003407 39.9848143,38.1845494 L39.9850714,38.1844286 Z" id="Shape"></path>
                        <path d="M32.5922143,28.0922143 L40.7558571,28.0922143 L39.9849429,28.9284429 C39.5982257,29.31516 39.5982257,29.8927286 39.9849429,30.2794714 C40.1783014,30.47283 40.4344414,30.5356114 40.6931143,30.5356114 C40.9492543,30.5356114 41.2079014,30.4703229 41.4012857,30.2794714 L44.5502571,27.1305 L41.4012857,23.9815286 C41.0145686,23.5948114 40.437,23.5948114 40.0502571,23.9815286 C39.66354,24.3682457 39.66354,24.9458143 40.0502571,25.3325571 L40.8864857,26.1687857 L32.5923429,26.1637637 C32.0775557,26.1637637 31.6280571,26.6132623 31.6280571,27.1280494 C31.6280571,27.6428366 32.0775557,28.0923351 32.5923429,28.0923351 L32.5922143,28.0922143 Z" id="Shape"></path>
                        <path d="M28.4136429,22.0506429 L29.2498714,22.8868714 C29.44323,23.08023 29.69937,23.1430114 29.9580429,23.1430114 C30.2141829,23.1430114 30.47283,23.0777229 30.6662143,22.8868714 C31.0529314,22.5001543 31.0529314,21.9225857 30.6662143,21.5358429 L27.5172429,18.3868714 L24.3682714,21.5358429 C23.9815543,21.92256 23.9815543,22.5001286 24.3682714,22.8868714 C24.7549886,23.2735886 25.3325571,23.2735886 25.7193,22.8868714 L26.5555286,22.0506429 L26.5555286,31.0506429 C26.5555286,36.1935 22.3769571,40.3065 17.2996714,40.3065 L2.18481429,40.3065 C1.67002714,40.3065 1.22052857,40.7559986 1.22052857,41.2707857 C1.22052857,41.7855729 1.67002714,42.2350714 2.18481429,42.2350714 L17.1640286,42.2350714 C23.3364857,42.2350714 28.3484571,37.2202714 28.3484571,31.0506429 L28.3484571,22.0506429 L28.4137457,22.0506429 L28.4136429,22.0506429 Z" id="Shape"></path>
                        <path d="M14.4642857,28.0922143 L22.113,28.0922143 C22.6277871,28.0922143 23.0772857,27.6427157 23.0772857,27.1279286 C23.0772857,26.6131414 22.6277871,26.1636429 22.113,26.1636429 L14.4642857,26.1636429 C7.84221429,26.1636429 2.4435,20.7646714 2.4435,14.1428571 C2.4435,7.52104286 7.84247143,2.12207143 14.4642857,2.12207143 C21.0861,2.12207143 26.4850714,7.52104286 26.4850714,14.1428571 C26.4850714,14.6576443 26.93457,15.1071429 27.4493571,15.1071429 C27.9641443,15.1071429 28.4136429,14.6576443 28.4136429,14.1428571 C28.4136429,6.42857143 22.1784429,0.1935 14.4642857,0.1935 C6.75012857,0.1935 0.514928571,6.4287 0.514928571,14.1428571 C0.514928571,21.8570143 6.81544286,28.0922143 14.4642857,28.0922143 Z" id="Shape"></path>
                    </g>
                </g>
            </g>
        </g>
    </g>
</svg>