<?xml version="1.0" encoding="UTF-8"?>
<svg width="54px" height="53px" viewBox="0 0 54 53" version="1.1" xmlns="http://www.w3.org/2000/svg" xmlns:xlink="http://www.w3.org/1999/xlink">
    <!-- Generator: Sketch 55.2 (78181) - https://sketchapp.com -->
    <title>Group 6</title>
    <desc>Created with Sketch.</desc>
    <g id="Corporate-Page" stroke="none" stroke-width="1" fill="none" fill-rule="evenodd">
        <g id="Corporate-Rooms" transform="translate(-112.000000, -1984.000000)" fill="#000000" fill-rule="nonzero">
            <g id="Group-6" transform="translate(112.000000, 1984.000000)">
                <polygon id="Shape" points="0 45 0 53 4.8 53 4.8 48.0769231 24.6 48.0769231 24.6 53 29.4 53 29.4 48.0769231 49.2 48.0769231 49.2 53 54 53 54 45"></polygon>
                <path d="M52,23 L29,23 L29,29 L30.8157895,29 L30.8157895,44 L50.1842105,44 L50.1842105,29 L52,29 L52,23 Z M48.3684211,42.2 L32.6315789,42.2 L32.6315789,29 L48.3684211,29 L48.3684211,42.2 Z M50.1842105,27.2 L30.8157895,27.2 L30.8157895,24.8 L50.1842105,24.8 L50.1842105,27.2 Z" id="Shape"></path>
                <path d="M39,0 L16,0 L16,6 L17.8157895,6 L17.8157895,21 L37.1842105,21 L37.1842105,6 L39,6 L39,0 Z M35.3684211,19.2 L19.6315789,19.2 L19.6315789,6 L35.3684211,6 L35.3684211,19.2 Z M37.1842105,4.2 L17.8157895,4.2 L17.8157895,1.8 L37.1842105,1.8 L37.1842105,4.2 Z" id="Shape"></path>
                <path d="M25,23 L2,23 L2,29 L3.81578947,29 L3.81578947,44 L23.1842105,44 L23.1842105,29 L25,29 L25,23 Z M21.3684211,42.2 L5.63157895,42.2 L5.63157895,29 L21.3684211,29 L21.3684211,42.2 Z M23.1842105,27.2 L3.81578947,27.2 L3.81578947,24.8 L23.1842105,24.8 L23.1842105,27.2 Z" id="Shape"></path>
            </g>
        </g>
    </g>
</svg>