<?xml version="1.0" encoding="UTF-8"?>
<svg width="37px" height="47px" viewBox="0 0 37 47" version="1.1" xmlns="http://www.w3.org/2000/svg" xmlns:xlink="http://www.w3.org/1999/xlink">
    <!-- Generator: Sketch 55.2 (78181) - https://sketchapp.com -->
    <title>Fill 2</title>
    <desc>Created with Sketch.</desc>
    <g id="About-APT212" stroke="none" stroke-width="1" fill="none" fill-rule="evenodd">
        <g id="9-PRIVATE-ROOMS-Copy-3" transform="translate(-1096.000000, -1768.000000)" fill="#000000">
            <g id="Fill-2" transform="translate(1096.000000, 1768.000000)">
                <path d="M8.23923659e-06,1.0695519 L8.23923659e-06,45.93185 C8.23923659e-06,46.5222699 0.517174595,47 1.15627387,47 L35.8437428,47 C36.4828594,47 36.9999918,46.5222539 36.9999918,45.93185 L36.9999918,9.98219513 C36.9977313,9.70055603 36.873527,9.42932072 36.6567303,9.2311789 L26.9910671,0.301979344 C26.7742705,0.107960586 26.4806931,-0.000526063853 26.1781085,0.00156216931 L1.15630277,0.00156216931 C1.12016999,-0.000520723103 1.08403721,-0.000520723103 1.04790443,0.00156216931 C0.45171356,0.0535597092 -0.0022297834,0.516698848 8.23923659e-06,1.0695519 Z M2.31252283,2.13770186 L24.8593776,2.13770186 L24.8593776,10.1488265 C24.8593776,10.7392464 25.3765273,11.2169765 26.0156266,11.2169765 L34.6874938,11.2169765 L34.6874938,44.8637001 L2.31252283,44.8637001 L2.31252283,2.13770186 Z M27.1718756,3.50626899 L33.2421826,9.08094361 L27.1718756,9.08094361 L27.1718756,3.50626899 Z M7.18339503,19.5767667 C6.97562865,19.785387 6.86949078,20.0628603 6.88304202,20.3465823 C6.89659326,20.6303043 7.03208829,20.8973204 7.26017574,21.0871841 C7.48600273,21.27912 7.78636152,21.3771708 8.09348437,21.3646521 L19.655974,21.3646521 C19.9653631,21.3688232 20.2634672,21.2582537 20.4847733,21.0579755 C20.7038304,20.8556092 20.8280347,20.5823177 20.8280347,20.2964914 C20.8280347,20.0106652 20.7038304,19.7373683 20.4847733,19.5350073 C20.2634614,19.3347292 19.9653631,19.2241597 19.655974,19.2283308 L8.09348437,19.2283308 C8.05735159,19.2262426 8.02121881,19.2262426 7.98508603,19.2283308 C7.67795162,19.2408869 7.38891828,19.3660581 7.18339503,19.5767667 Z M7.18339503,27.0538163 C6.97562865,27.2624367 6.86949078,27.53991 6.88304202,27.823632 C6.89659326,28.107354 7.03208829,28.3743701 7.26017574,28.5642338 C7.48600273,28.7561697 7.78636152,28.8542205 8.09348437,28.8417018 L28.9059657,28.8417018 C29.2153548,28.8458729 29.5134589,28.7353034 29.734765,28.5350252 C29.9538221,28.3326589 30.0780264,28.0593674 30.0780264,27.7735411 C30.0780264,27.4877149 29.9538221,27.214418 29.734765,27.012057 C29.5134532,26.8117789 29.2153548,26.7012094 28.9059657,26.7053805 L8.09348437,26.7053805 C8.05735159,26.7032923 8.02121881,26.7032923 7.98508603,26.7053805 C7.67795162,26.7179366 7.38891828,26.8431077 7.18339503,27.0538163 Z M7.18339503,34.530866 C6.97562865,34.7394864 6.86949078,35.0169597 6.88304202,35.3006817 C6.89659326,35.5844037 7.03208829,35.8514198 7.26017574,36.0412835 C7.48600273,36.2332193 7.78636152,36.3312702 8.09348437,36.3187515 L28.9059657,36.3187515 C29.2153548,36.3229226 29.5134589,36.212353 29.734765,36.0120749 C29.9538221,35.8097086 30.0780264,35.5364171 30.0780264,35.2505908 C30.0780264,34.9647646 29.9538221,34.6914677 29.734765,34.4891067 C29.5134532,34.2888286 29.2153548,34.1782591 28.9059657,34.1824302 L8.09348437,34.1824302 C8.05735159,34.180342 8.02121881,34.180342 7.98508603,34.1824302 C7.67795162,34.1949863 7.38891828,34.3201574 7.18339503,34.530866 Z" id="Fill-1"></path>
            </g>
        </g>
    </g>
</svg>