<?xml version="1.0" encoding="UTF-8"?>
<svg width="34px" height="53px" viewBox="0 0 34 53" version="1.1" xmlns="http://www.w3.org/2000/svg" xmlns:xlink="http://www.w3.org/1999/xlink">
    <!-- Generator: Sketch 55.2 (78181) - https://sketchapp.com -->
    <title>Group 2</title>
    <desc>Created with Sketch.</desc>
    <g id="Corporate-Page" stroke="none" stroke-width="1" fill="none" fill-rule="evenodd">
        <g id="Corporate-Rooms" transform="translate(-585.000000, -1986.000000)" fill="#000000" fill-rule="nonzero">
            <g id="Group-21" transform="translate(582.000000, 1986.000000)">
                <g id="Group-22">
                    <g id="Group-2" transform="translate(3.000000, 0.000000)">
                        <path d="M31.3779132,0 L2.62208683,0 C1.1807948,0 0.00872398983,1.17274556 0,2.62548705 L0,50.3569817 C0,51.8163324 1.17429348,53 2.62208683,53 L31.3779132,53 C32.8257065,53 34,51.8163324 34,50.3569817 L34,2.62548705 C33.9913177,1.17268954 32.8192052,0 31.3779132,0 L31.3779132,0 Z M20.2645503,50.6020272 L13.7354497,50.6020272 L13.7354497,38.3497542 L20.3167831,38.3497542 L20.2645503,50.6020272 Z M31.6212958,50.3744849 C31.6212958,50.4991977 31.5192807,50.6020552 31.3955556,50.6020552 L22.6960152,50.6020552 L22.6960152,37.6143378 C22.6960152,37.1876955 22.5267087,36.7785508 22.2271702,36.4766548 C21.9276317,36.1747588 21.5217495,36.0040671 21.0984971,36.0040671 L12.9368434,36.0040671 C12.0556093,36.0040671 11.3392975,36.726097 11.3392975,37.6143658 L11.3392975,50.6020552 L2.65698279,50.6020552 C2.53543038,50.5933035 2.4399277,50.4970357 2.4312426,50.3745129 L2.4312426,2.62565508 C2.4312426,2.56439092 2.45511911,2.50750677 2.49636135,2.46375145 C2.53977237,2.4221811 2.59620936,2.39811287 2.65698279,2.39811287 L31.3783577,2.39811287 C31.4391367,2.39811287 31.4955703,2.42217998 31.5389791,2.46375145 C31.5802203,2.50750901 31.6040979,2.56439652 31.6040979,2.62565508 L31.6212958,50.3744849 Z" id="Shape"></path>
                        <path d="M28.0011061,6.28813559 L21.2640534,6.28813559 C20.392432,6.28813559 19.6842105,6.98667233 19.6842105,7.84637458 L19.6842105,16.4078627 C19.6842105,17.267565 20.392432,17.9661017 21.2640534,17.9661017 L27.9464845,17.9661017 C28.3664085,17.9661017 28.7681911,17.8026666 29.063264,17.509382 C29.3606147,17.2183384 29.5263158,16.8220787 29.5263158,16.4078742 L29.5263158,7.84638604 C29.5263158,6.98668379 28.8180943,6.28813559 27.9464729,6.28813559 L28.0011061,6.28813559 Z M27.0385339,15.4938387 L22.2446159,15.4938387 L22.2446159,8.74173728 L27.0930393,8.74173728 L27.0385339,15.4938387 Z" id="Shape"></path>
                        <path d="M13.6126815,6.28813559 L6.94826397,6.28813559 C6.07664253,6.28813559 5.36842105,6.98667233 5.36842105,7.84637458 L5.36842105,16.4078627 C5.36842105,17.267565 6.07664253,17.9661017 6.94826397,17.9661017 L13.630695,17.9661017 C14.050619,17.9661017 14.4524016,17.8026666 14.7474745,17.509382 C15.0448253,17.2183384 15.2105263,16.8220787 15.2105263,16.4078742 L15.2105263,7.84638604 C15.2105263,6.98668379 14.5023048,6.28813559 13.6306834,6.28813559 L13.6126815,6.28813559 Z M12.7227444,15.4938387 L7.85619135,15.4938387 L7.85619135,8.74173728 L12.7046147,8.74173728 L12.7227444,15.4938387 Z" id="Shape"></path>
                        <path d="M28.0011061,19.7627119 L21.2640534,19.7627119 C20.392432,19.7627119 19.6842105,20.4612486 19.6842105,21.3209508 L19.6842105,29.882439 C19.6842105,30.7421412 20.392432,31.440678 21.2640534,31.440678 L27.9464845,31.440678 C28.3664085,31.440678 28.7681911,31.2772428 29.063264,30.9839583 C29.3606147,30.6929147 29.5263158,30.296655 29.5263158,29.8824504 L29.5263158,21.3209623 C29.5263158,20.4612601 28.8180943,19.7627119 27.9464729,19.7627119 L28.0011061,19.7627119 Z M27.0385339,28.968415 L22.2446159,28.968415 L22.2446159,22.2163135 L27.0930393,22.2163135 L27.0385339,28.968415 Z" id="Shape"></path>
                        <path d="M13.6126815,19.7627119 L6.94826397,19.7627119 C6.07664253,19.7627119 5.36842105,20.4612486 5.36842105,21.3209508 L5.36842105,29.882439 C5.36842105,30.7421412 6.07664253,31.440678 6.94826397,31.440678 L13.630695,31.440678 C14.050619,31.440678 14.4524016,31.2772428 14.7474745,30.9839583 C15.0448253,30.6929147 15.2105263,30.296655 15.2105263,29.8824504 L15.2105263,21.3209623 C15.2105263,20.4612601 14.5023048,19.7627119 13.6306834,19.7627119 L13.6126815,19.7627119 Z M12.7227444,28.968415 L7.85619135,28.968415 L7.85619135,22.2163135 L12.7046147,22.2163135 L12.7227444,28.968415 Z" id="Shape"></path>
                    </g>
                </g>
            </g>
        </g>
    </g>
</svg>