<svg xmlns="http://www.w3.org/2000/svg" width="58" height="60" viewBox="0 0 58 60">
    <g fill="#000" fill-rule="nonzero">
        <path d="M30.143 39.942h.098c2.266-.293 4.137-1.563 4.728-3.418.887-2.441-.098-4.883-2.265-6.152-.591-.391-1.182-.586-1.872-.88l-.098-.097c-.296-.098-.493-.195-.69-.293l-.295-.195c-.296-.196-.69-.293-1.084-.489-.197-.097-.296-.097-.493-.195-.59-.293-1.083-.488-1.477-.781-1.28-.684-1.675-2.246-1.182-3.711.394-1.074 1.28-1.66 2.56-1.856h.592c.295 0 .69 0 1.083.098 1.183.293 1.97.879 2.365 1.953 0 .098.098.293.098.39.099.49.591.88 1.182.88h.296c.295-.098.59-.293.788-.489.197-.195.197-.488.098-.78-.098-.196-.098-.391-.197-.587-.69-1.758-2.167-2.93-4.137-3.32h-.098v-1.856c0-.586-.493-1.074-1.183-1.074-.69 0-1.182.488-1.182 1.074v1.66h-.098c-2.955.391-4.039 2.247-4.433 3.223-.886 2.442-.098 4.98 2.167 6.25.788.488 1.576.781 2.364 1.172.099 0 .099.098.197.098.197.097.296.097.493.195l.394.195c.295.098.591.293.886.39a8.766 8.766 0 0 1 1.675.782c1.28.781 1.773 2.246 1.28 3.711-.393 1.172-1.378 1.856-2.856 1.953H27.975c-1.576-.195-2.758-1.172-3.152-2.539-.098-.488-.59-.879-1.182-.879h-.295a2.148 2.148 0 0 0-.788.489c-.197.195-.197.488-.099.78.591 2.247 2.463 3.81 5.024 4.2h.098v1.758c0 .586.493 1.074 1.182 1.074.69 0 1.182-.488 1.182-1.074v-1.66h.198z"/>
        <path d="M42.357 14.16c-3.94-3.613-8.372-5.468-13.002-5.468h-.788c-4.63 0-9.063 1.855-13.003 5.469-4.827 4.492-8.176 12.89-3.94 20.605.394.684.788 1.465 1.182 2.149l.197.39c.59 1.172 1.182 2.149 1.773 3.223 1.576 2.734 2.56 5.371 3.053 8.106.099.585.197 1.27.197 1.855.198 2.149 1.478 4.492 3.547 6.543l.098.098c2.069 1.758 4.63 2.734 7.388 2.734 2.759 0 5.32-.976 7.388-2.734l.099-.098c2.068-2.05 3.349-4.394 3.546-6.543.099-.684.099-1.27.296-1.855.492-2.637 1.477-5.274 3.053-8.106.591-1.074 1.182-2.148 1.773-3.32l.197-.391c.394-.684.788-1.465 1.182-2.148 3.94-7.715.69-16.016-4.235-20.508zm1.675 19.337c-.394.684-.788 1.465-1.182 2.148l-.197.39-1.773 3.224c-1.773 3.027-2.857 5.957-3.35 8.886-.098.684-.197 1.465-.295 2.149-.099 1.562-1.182 3.32-2.758 4.883-1.38 1.367-3.448 2.05-5.516 2.05-2.069 0-4.04-.78-5.615-2.05-1.576-1.563-2.66-3.418-2.758-4.883-.099-.684-.197-1.465-.296-2.149-.492-2.93-1.576-5.859-3.35-8.886-.59-.977-1.083-2.051-1.674-3.125l-.197-.391c-.394-.684-.788-1.465-1.182-2.149-3.644-6.543-.788-13.671 3.35-17.48 3.447-3.223 7.19-4.785 11.229-4.785h.788c4.038 0 7.782 1.66 11.23 4.785 4.235 3.71 7.091 10.84 3.545 17.382zM7.388 39.746c-.197 0-.394 0-.591.098-.788.39-1.675.879-2.463 1.465-.492.39-.69.683-.69.976 0 .196 0 .293.099.489.296.586.985.879 1.478.78.098 0 .197-.097.295-.097.788-.39 1.576-.879 2.561-1.465.591-.39.69-.976.394-1.66-.295-.39-.69-.586-1.083-.586zM53.488 41.211c-.69-.488-1.477-.879-2.265-1.27-.099-.097-.394-.097-.493-.195-.886 0-1.182.489-1.379.88-.197.488 0 1.074.394 1.367.887.585 1.675 1.074 2.463 1.464.197.098.492.196.69.196.492 0 .886-.196 1.083-.586.394-.684.197-1.465-.493-1.856zM44.032 5.078c0-.488-.197-1.172-.788-1.367-.099 0-.296-.098-.394-.098-.394 0-.788.196-.985.489-.493.78-.985 1.66-1.38 2.343-.393.684-.196 1.367.395 1.758.197.098.394.195.69.195.393 0 .787-.195 1.083-.683.492-.684.886-1.465 1.379-2.246-.099-.098 0-.293 0-.39zM7.88 15.137c-.69-.39-1.478-.879-2.266-1.27-.098-.097-.394-.097-.492-.195-.493 0-1.084.195-1.38.879-.196.488 0 1.074.395 1.367.69.488 1.477.879 2.462 1.465.69.39 1.38.195 1.774-.488.394-.684.197-1.367-.493-1.758zM51.222 17.286c.789-.391 1.675-.977 2.365-1.368.394-.293.59-.585.59-1.171 0-.684-.59-1.172-1.181-1.172-.197 0-.394 0-.591.097-.788.391-1.675.88-2.365 1.368-.69.39-.886 1.074-.492 1.757.197.391.59.586 1.083.586.197.098.395 0 .592-.097zM17.14 8.203c.69-.39.788-1.074.492-1.758-.394-.683-.788-1.465-1.28-2.246-.296-.39-.591-.586-1.084-.586-.492 0-.886.196-1.083.586-.197.39-.197.781 0 1.27.394.78.886 1.465 1.379 2.343.295.391.69.684 1.083.684 0-.098.197-.098.493-.293zM28.96 5.078c.69 0 1.183-.488 1.281-1.172V1.074c0-.683-.59-1.074-1.28-1.074-.69 0-1.182.488-1.281 1.074v2.832c.099.684.591 1.172 1.28 1.172M3.546 27.344H1.281c-.69 0-1.183.489-1.281 1.172 0 .684.493 1.27 1.182 1.27H4.04c.69 0 1.182-.586 1.182-1.27 0-.683-.493-1.172-1.182-1.172h-.493zM56.148 27.344h-2.266c-.69 0-1.182.489-1.182 1.172 0 .684.493 1.172 1.182 1.27H56.74c.689 0 1.181-.489 1.181-1.172 0-.684-.492-1.172-1.182-1.27h-.59z"/>
    </g>
</svg>
