<svg xmlns="http://www.w3.org/2000/svg" width="56" height="56" viewBox="0 0 56 56">
    <g fill="#000" fill-rule="nonzero">
        <path d="M49.76 47.518a1.16 1.16 0 0 0 0 1.682l1.04 1.04h-16c-.64 0-1.2.56-1.2 1.2 0 .64.56 1.2 1.2 1.2h15.918l-1.04 1.041a1.16 1.16 0 0 0 0 1.681c.24.24.559.319.88.319.32 0 .642-.081.882-.319l3.919-3.918-3.919-3.92c-.481-.484-1.281-.484-1.681-.005zM40.56 34.96h10.158L49.76 36a1.16 1.16 0 0 0 0 1.681c.24.24.56.319.881.319.32 0 .64-.081.882-.319l3.918-3.919-3.918-3.918a1.16 1.16 0 0 0-1.682 0 1.16 1.16 0 0 0 0 1.681l1.041 1.04-10.322-.006c-.64 0-1.2.56-1.2 1.2 0 .641.56 1.2 1.2 1.2zM35.36 27.44l1.04 1.041c.24.241.56.32.881.32.319 0 .64-.082.881-.32a1.16 1.16 0 0 0 0-1.68l-3.918-3.92-3.919 3.92a1.16 1.16 0 0 0 0 1.68 1.16 1.16 0 0 0 1.681 0l1.04-1.04v11.2c0 6.4-5.2 11.518-11.518 11.518H2.718c-.64 0-1.2.56-1.2 1.2 0 .64.56 1.2 1.2 1.2H21.36c7.681 0 13.918-6.24 13.918-13.918v-11.2h.081z"/>
        <path d="M18 34.96h9.518c.641 0 1.2-.56 1.2-1.2 0-.641-.559-1.2-1.2-1.2H18c-8.24 0-14.96-6.72-14.96-14.96C3.04 9.36 9.76 2.64 18 2.64c8.24 0 14.96 6.72 14.96 14.96 0 .64.559 1.2 1.2 1.2.64 0 1.2-.56 1.2-1.2C35.36 8 27.6.24 18 .24S.64 8 .64 17.6 8.482 34.96 18 34.96z"/>
    </g>
</svg>
