<svg xmlns="http://www.w3.org/2000/svg" viewBox="0 0 47 60"><title>Minimal-Paperwork</title><g id="Layer_2" data-name="Layer 2"><g id="Layer_1-2" data-name="Layer 1"><path d="M36,22H11a1,1,0,0,0,0,2H36a1,1,0,0,0,0-2Z"/><path d="M11,16H21a1,1,0,0,0,0-2H11a1,1,0,0,0,0,2Z"/><path d="M36,30H11a1,1,0,0,0,0,2H36a1,1,0,0,0,0-2Z"/><path d="M36,38H11a1,1,0,0,0,0,2H36a1,1,0,0,0,0-2Z"/><path d="M36,46H11a1,1,0,0,0,0,2H36a1,1,0,0,0,0-2Z"/><path d="M32.41,0H0V60H47V14.59ZM33,3.41,43.59,14H33ZM2,58V2H31V16H45V58Z"/></g></g></svg>