<svg xmlns="http://www.w3.org/2000/svg" width="56" height="43" viewBox="0 0 56 43">
    <path fill="#000" fill-rule="nonzero" d="M28 0C17.55 0 7.962 3.485.483 9.11c-.532.402-.644 1.25-.239 1.778.406.529 1.259.64 1.791.237C9.083 5.825 18.122 2.53 28 2.53s18.917 3.295 25.965 8.596c.532.403 1.385.292 1.79-.237.406-.528.294-1.376-.238-1.778C48.038 3.485 38.45 0 28 0zm0 12.015c-7.488 0-14.47 2.25-19.896 6.6-.6.383-.749 1.307-.301 1.858.447.55 1.388.6 1.892.099 4.932-3.953 11.332-6.028 18.305-6.028 6.974 0 13.373 2.075 18.305 6.028.503.501 1.445.452 1.893-.1.448-.55.298-1.474-.301-1.857-5.427-4.35-12.408-6.6-19.897-6.6zm0 11.382c-4.57 0-8.916 1.423-12.256 4.051-.527.415-.627 1.265-.209 1.788.418.524 1.276.623 1.8.208 2.853-2.245 6.631-3.518 10.665-3.518 4.034 0 7.812 1.273 10.665 3.518.527.415 1.385.316 1.8-.208.418-.523.319-1.375-.208-1.788-3.34-2.628-7.685-4.05-12.257-4.05zm0 9.485c-2.813 0-5.093 2.265-5.093 5.06C22.907 40.734 25.187 43 28 43s5.094-2.265 5.094-5.059-2.28-5.059-5.094-5.059z"/>
</svg>
