<?xml version="1.0" encoding="UTF-8"?>
<svg width="25px" height="24px" viewBox="0 0 25 24" version="1.1" xmlns="http://www.w3.org/2000/svg" xmlns:xlink="http://www.w3.org/1999/xlink">
    <!-- Generator: Sketch 55.2 (78181) - https://sketchapp.com -->
    <title>Search Icon</title>
    <desc>Created with Sketch.</desc>
    <g id="Search-Icon" stroke="none" stroke-width="1" fill="none" fill-rule="evenodd">
        <path d="M24,21.1886008 L18.6803754,15.9186997 C19.949079,14.3099652 20.6588954,12.3179013 20.6588954,10.238277 C20.6588954,5.14393658 16.472729,1 11.3303363,1 C6.18621089,1 2,5.14393658 2,10.238277 C2,15.3308573 6.18616646,19.4765539 11.3303363,19.4765539 C13.3071236,19.4765539 15.2318387,18.8457674 16.8196842,17.7010588 L22.1704099,23 L24,21.1886008 Z M11.3302919,16.9140717 C7.61273046,16.9140717 4.58934605,13.9182757 4.58934605,10.238365 C4.58934605,6.55849823 7.61268603,3.56265825 11.3302919,3.56265825 C15.0461205,3.56265825 18.0694605,6.55845423 18.0694605,10.238365 C18.0694605,12.2063608 17.1982293,14.0643123 15.6796059,15.3379854 C14.4664401,16.3537734 12.9218251,16.9140717 11.3302919,16.9140717 Z" id="Fill-1" fill="#000000"></path>
    </g>
</svg>